<svg width="26" height="26" viewBox="0 0 26 26" fill="none" xmlns="http://www.w3.org/2000/svg">
<path d="M20.3847 14.0218L10.8759 21.3598C9.7571 22.2258 8 21.522 8 20.2077L8 5.53164C7.99971 5.2375 8.09555 4.94952 8.27604 4.70219C8.45652 4.45486 8.71401 4.25867 9.01765 4.1371C9.32129 4.01553 9.65823 3.97374 9.98811 4.01673C10.318 4.05973 10.6268 4.18569 10.8776 4.37953L20.383 11.7176C20.5693 11.8612 20.7186 12.0383 20.8209 12.237C20.9232 12.4357 20.9762 12.6514 20.9762 12.8697C20.9762 13.0879 20.9232 13.3036 20.8209 13.5024C20.7186 13.7011 20.5693 13.8782 20.383 14.0218L20.3847 14.0218Z" fill="#15C2C4"/>
</svg>
