<svg width="36" height="36" viewBox="0 0 36 36" fill="none" xmlns="http://www.w3.org/2000/svg">
<g clip-path="url(#clip0_849_67)">
<path d="M36.0011 18.1105C36.0011 8.10705 27.9416 -0.00195312 18.0011 -0.00195312C8.05608 0.000296875 -0.00341797 8.10705 -0.00341797 18.1128C-0.00341797 27.151 6.58008 34.6435 15.1841 36.0025V23.3463H10.6166V18.1128H15.1886V14.119C15.1886 9.5808 17.8773 7.0743 21.9881 7.0743C23.9591 7.0743 26.0178 7.42755 26.0178 7.42755V11.8825H23.7476C21.5133 11.8825 20.8158 13.2798 20.8158 14.713V18.1105H25.8063L25.0098 23.344H20.8136V36.0003C29.4176 34.6413 36.0011 27.1488 36.0011 18.1105Z" fill="#15C2C4"/>
</g>
<defs>
<clipPath id="clip0_849_67">
<rect width="36" height="36" fill="white"/>
</clipPath>
</defs>
</svg>
