<svg width="85" height="28" viewBox="0 0 85 28" fill="none" xmlns="http://www.w3.org/2000/svg">
<path d="M11.4046 9.14382L0.00390625 4.15435L11.4298 0L22.7505 4.16615L11.4046 9.14382Z" fill="#71E2DF"/>
<path d="M11.4307 27.9998L0.0185547 23.0292L0.0505792 19.901L11.4284 24.8646L11.4307 27.9998Z" fill="#15C2C4"/>
<path d="M22.323 6.38369L22.8354 4.14963L11.4278 0L11.4072 9.14382L11.8945 8.92914L11.4232 17.9527L22.6387 22.0575L22.7759 9.38681L22.323 6.38369Z" fill="#15C2C4"/>
<path d="M13.9145 22.3548L7.44327 19.8022L7.29688 4.00108L13.8848 7.02307L13.9145 22.3548Z" fill="#15ADA9"/>
<path d="M11.4288 5.6994L6.4375 3.56207L11.4288 1.8942L16.2004 3.61633L11.4288 5.6994Z" fill="white"/>
<path d="M16.2004 3.61633L16.2987 21.2672L13.9266 22.3547L13.8511 7.24712L11.4356 8.30635L11.4288 5.6994L16.2004 3.61633Z" fill="#A5EFEB"/>
<path d="M11.4288 5.6994L11.4356 8.30635L6.529 6.21854L6.4375 3.56207L11.4288 5.6994Z" fill="#15C2C4"/>
<path d="M22.8314 4.14976L11.4375 9.13688V17.9716L20.0109 14.0249L20.0475 21.088L11.4421 24.8625V27.9978L22.8748 22.855L22.8314 4.14976ZM14.2282 14.1263V10.6066L20.0887 8.0399L20.1047 11.5785L14.2282 14.1263Z" fill="#71E2DF"/>
<path d="M11.4282 9.13664L11.4236 17.9738L0.00457493 12.7319L0 4.15425L11.4282 9.13664Z" fill="#15C2C4"/>
<path d="M56.956 3.98224H45.4111V7.6058H49.4256V22.619H52.9392V7.6058H56.956V3.98224Z" fill="#15C2C4"/>
<path d="M73.4551 3.98224V15.8886H81.4864V18.9955H73.4551V22.619H84.9999V3.98224H73.4551ZM81.4864 12.265H76.9686V7.6058H81.4864V12.265Z" fill="#15C2C4"/>
<path d="M62.3242 3.98224V7.6058H64.3326V22.619H67.8462V3.98224H62.3242Z" fill="#15C2C4"/>
<path d="M41.0462 7.6058V3.98224H29.499V7.6058H33.5158V18.9955H29.499V22.619H41.0462V18.9955H37.0294V7.6058H41.0462Z" fill="#15C2C4"/>
</svg>
