<svg width="226" height="73" viewBox="0 0 226 73" fill="none" xmlns="http://www.w3.org/2000/svg">
<g id="name">
<path id="hello-h" d="M1.01004 0.700195H7.01004C7.27526 0.700195 7.52962 0.805551 7.71715 0.993088C7.90469 1.18062 8.01004 1.43498 8.01004 1.7002V9.8602C8.01004 10.1254 8.1154 10.3798 8.30294 10.5673C8.49047 10.7548 8.74483 10.8602 9.01004 10.8602H17.01C17.2753 10.8602 17.5296 10.7548 17.7172 10.5673C17.9047 10.3798 18.01 10.1254 18.01 9.8602V1.7002C18.01 1.43498 18.1154 1.18062 18.3029 0.993088C18.4905 0.805551 18.7448 0.700195 19.01 0.700195H25.01C25.2753 0.700195 25.5296 0.805551 25.7172 0.993088C25.9047 1.18062 26.01 1.43498 26.01 1.7002V27.9202C26.01 28.1854 25.9047 28.4398 25.7172 28.6273C25.5296 28.8148 25.2753 28.9202 25.01 28.9202H19.01C18.7448 28.9202 18.4905 28.8148 18.3029 28.6273C18.1154 28.4398 18.01 28.1854 18.01 27.9202V18.6602C18.01 18.395 17.9047 18.1406 17.7172 17.9531C17.5296 17.7656 17.2753 17.6602 17.01 17.6602H9.01004C8.74483 17.6602 8.49047 17.7656 8.30294 17.9531C8.1154 18.1406 8.01004 18.395 8.01004 18.6602V27.9202C8.01004 28.1854 7.90469 28.4398 7.71715 28.6273C7.52962 28.8148 7.27526 28.9202 7.01004 28.9202H1.01004C0.744828 28.9202 0.490473 28.8148 0.302937 28.6273C0.115401 28.4398 0.0100445 28.1854 0.0100445 27.9202V1.71019C0.00872284 1.57803 0.0336088 1.44693 0.0832715 1.32445C0.132934 1.20197 0.206384 1.09053 0.299374 0.996613C0.392365 0.902692 0.503053 0.828146 0.625035 0.777267C0.747017 0.726389 0.877877 0.700189 1.01004 0.700195Z" fill="#231815"/>
<path id="hello-e" d="M31.5801 0.700195H47.9701C48.2353 0.700195 48.4896 0.805551 48.6772 0.993088C48.8647 1.18062 48.9701 1.43498 48.9701 1.7002V6.46019C48.9701 6.72541 48.8647 6.97976 48.6772 7.1673C48.4896 7.35483 48.2353 7.46019 47.9701 7.46019H39.6201C39.3548 7.46019 39.1005 7.56555 38.913 7.75308C38.7254 7.94062 38.6201 8.19497 38.6201 8.46019V10.0602C38.6201 10.3254 38.7254 10.5798 38.913 10.7673C39.1005 10.9548 39.3548 11.0602 39.6201 11.0602H46.3701C46.6353 11.0602 46.8896 11.1656 47.0772 11.3531C47.2647 11.5406 47.3701 11.795 47.3701 12.0602V16.4402C47.3701 16.7054 47.2647 16.9598 47.0772 17.1473C46.8896 17.3348 46.6353 17.4402 46.3701 17.4402H39.6201C39.3548 17.4402 39.1005 17.5456 38.913 17.7331C38.7254 17.9206 38.6201 18.175 38.6201 18.4402V21.1002C38.6201 21.3654 38.7254 21.6198 38.913 21.8073C39.1005 21.9948 39.3548 22.1002 39.6201 22.1002H48.4401C48.7053 22.1002 48.9596 22.2055 49.1472 22.3931C49.3347 22.5806 49.4401 22.835 49.4401 23.1002V27.8702C49.4401 28.1354 49.3347 28.3898 49.1472 28.5773C48.9596 28.7648 48.7053 28.8702 48.4401 28.8702H31.5801C31.3148 28.8702 31.0605 28.7648 30.8729 28.5773C30.6854 28.3898 30.5801 28.1354 30.5801 27.8702V1.71019C30.5787 1.57803 30.6036 1.44693 30.6533 1.32445C30.703 1.20197 30.7764 1.09053 30.8694 0.996613C30.9624 0.902692 31.0731 0.828146 31.1951 0.777267C31.317 0.726389 31.4479 0.700189 31.5801 0.700195Z" fill="#231815"/>
<path id="hello-l1" d="M54.0501 0.700195H60.0501C60.3153 0.700195 60.5696 0.805551 60.7572 0.993088C60.9447 1.18062 61.0501 1.43498 61.0501 1.7002V21.1302C61.0501 21.3954 61.1554 21.6498 61.3429 21.8373C61.5305 22.0248 61.7848 22.1302 62.0501 22.1302H71.8101C72.0753 22.1302 72.3296 22.2356 72.5172 22.4231C72.7047 22.6106 72.8101 22.865 72.8101 23.1302V27.9002C72.8101 28.1654 72.7047 28.4198 72.5172 28.6073C72.3296 28.7948 72.0753 28.9002 71.8101 28.9002H54.0501C53.7848 28.9002 53.5305 28.7948 53.3429 28.6073C53.1554 28.4198 53.0501 28.1654 53.0501 27.9002V1.71019C53.0487 1.57803 53.0736 1.44693 53.1233 1.32445C53.173 1.20197 53.2464 1.09053 53.3394 0.996613C53.4324 0.902692 53.5431 0.828146 53.665 0.777267C53.787 0.726389 53.9179 0.700189 54.0501 0.700195Z" fill="#231815"/>
<path id="hello-l2" d="M76.6801 0.700195H82.6801C82.9453 0.700195 83.1996 0.805551 83.3872 0.993088C83.5747 1.18062 83.6801 1.43498 83.6801 1.7002V21.1302C83.6801 21.3954 83.7854 21.6498 83.9729 21.8373C84.1605 22.0248 84.4148 22.1302 84.6801 22.1302H94.4401C94.7053 22.1302 94.9596 22.2356 95.1472 22.4231C95.3347 22.6106 95.4401 22.865 95.4401 23.1302V27.9002C95.4401 28.1654 95.3347 28.4198 95.1472 28.6073C94.9596 28.7948 94.7053 28.9002 94.4401 28.9002H76.6801C76.4148 28.9002 76.1605 28.7948 75.973 28.6073C75.7854 28.4198 75.6801 28.1654 75.6801 27.9002V1.71019C75.6787 1.57803 75.7036 1.44693 75.7533 1.32445C75.8029 1.20197 75.8764 1.09053 75.9694 0.996613C76.0624 0.902692 76.1731 0.828146 76.295 0.777267C76.417 0.726389 76.5479 0.700189 76.6801 0.700195Z" fill="#231815"/>
<path id="hello-o" d="M112.16 0.270203C120.66 0.270203 127.25 6.66019 127.25 14.8202C127.25 22.9802 120.68 29.3602 112.16 29.3602C103.64 29.3602 97.07 22.9702 97.07 14.8202C97.07 6.67019 103.68 0.270203 112.16 0.270203ZM112.16 22.1502C113.623 22.206 115.069 21.8232 116.312 21.0509C117.556 20.2787 118.54 19.1522 119.139 17.8163C119.737 16.4803 119.922 14.996 119.671 13.5539C119.419 12.1119 118.742 10.778 117.727 9.72365C116.711 8.66932 115.404 7.94272 113.972 7.63719C112.54 7.33167 111.05 7.46117 109.693 8.00908C108.335 8.55699 107.173 9.49827 106.354 10.712C105.536 11.9257 105.099 13.3563 105.1 14.8202C105.072 15.7677 105.234 16.7113 105.575 17.5955C105.917 18.4798 106.431 19.287 107.089 19.9697C107.746 20.6524 108.534 21.197 109.404 21.5714C110.275 21.9458 111.212 22.1426 112.16 22.1502V22.1502Z" fill="#231815"/>
<path id="icon1" d="M131.68 22.5402H136.25C136.412 22.5321 136.574 22.5636 136.721 22.6319C136.868 22.7002 136.996 22.8033 137.095 22.9322C137.193 23.0611 137.259 23.2121 137.286 23.372C137.313 23.5319 137.301 23.696 137.25 23.8502L134.09 33.9602C134.026 34.1728 133.893 34.3579 133.712 34.4865C133.531 34.615 133.312 34.6797 133.09 34.6702H129.78C129.63 34.6732 129.481 34.6425 129.345 34.5802C129.208 34.518 129.088 34.4258 128.992 34.3106C128.896 34.1953 128.827 34.06 128.79 33.9145C128.753 33.769 128.75 33.6172 128.78 33.4702L130.67 23.3602C130.713 23.1255 130.838 22.9139 131.023 22.7635C131.209 22.6131 131.442 22.5339 131.68 22.5402V22.5402Z" fill="#231815"/>
<path id="im-i" d="M152.32 0.700195H158.32C158.585 0.700195 158.84 0.805551 159.027 0.993088C159.215 1.18062 159.32 1.43498 159.32 1.7002V27.9202C159.32 28.1854 159.215 28.4398 159.027 28.6273C158.84 28.8148 158.585 28.9202 158.32 28.9202H152.32C152.055 28.9202 151.8 28.8148 151.613 28.6273C151.425 28.4398 151.32 28.1854 151.32 27.9202V1.71019C151.319 1.57803 151.344 1.44693 151.393 1.32445C151.443 1.20197 151.516 1.09053 151.609 0.996613C151.702 0.902692 151.813 0.828146 151.935 0.777267C152.057 0.726389 152.188 0.700189 152.32 0.700195Z" fill="#231815"/>
<path id="icon2" d="M165.98 0.000203463H170.06C170.221 -0.0013445 170.381 0.0361926 170.525 0.109609C170.668 0.183025 170.792 0.290141 170.885 0.421804C170.979 0.553467 171.039 0.705769 171.061 0.865697C171.082 1.02563 171.065 1.18842 171.01 1.3402L167.77 10.6302C167.703 10.8288 167.575 11.0013 167.405 11.1234C167.234 11.2454 167.03 11.3107 166.82 11.3102H164.06C163.908 11.3139 163.757 11.2829 163.619 11.2195C163.481 11.1562 163.358 11.0621 163.262 10.9444C163.166 10.8268 163.097 10.6887 163.062 10.5407C163.027 10.3926 163.027 10.2386 163.06 10.0902L164.98 0.800207C165.027 0.570931 165.152 0.365296 165.335 0.219121C165.518 0.0729466 165.746 -0.00451447 165.98 0.000203463Z" fill="#231815"/>
<path id="im-m" d="M174.29 27.9302V1.71019C174.29 1.44498 174.395 1.19062 174.583 1.00309C174.77 0.81555 175.025 0.710194 175.29 0.710194H181.48C181.64 0.709332 181.799 0.747052 181.941 0.820149C182.084 0.893245 182.207 0.999588 182.3 1.13021L188.47 9.8402C188.562 9.97223 188.685 10.08 188.828 10.1545C188.97 10.229 189.129 10.2678 189.29 10.2678C189.451 10.2678 189.61 10.229 189.752 10.1545C189.895 10.08 190.018 9.97223 190.11 9.8402L196.24 1.1402C196.333 1.00634 196.457 0.897196 196.602 0.822255C196.746 0.747313 196.907 0.708837 197.07 0.710194H203.18C203.445 0.710194 203.7 0.81555 203.887 1.00309C204.075 1.19062 204.18 1.44498 204.18 1.71019V27.9302C204.18 28.1954 204.075 28.4498 203.887 28.6373C203.7 28.8248 203.445 28.9302 203.18 28.9302H197.18C196.915 28.9302 196.66 28.8248 196.473 28.6373C196.285 28.4498 196.18 28.1954 196.18 27.9302V19.7302C196.18 17.5102 196.18 15.0502 196.25 13.1002H196.18C195.01 14.9002 193.72 16.7302 192.47 18.5202L189.94 22.1202C189.848 22.2543 189.725 22.3639 189.581 22.4397C189.438 22.5155 189.278 22.5551 189.115 22.5551C188.953 22.5551 188.792 22.5155 188.649 22.4397C188.505 22.3639 188.382 22.2543 188.29 22.1202L185.72 18.5202C184.44 16.7302 183.19 14.9002 182.02 13.1002H181.94C181.94 15.1002 182.02 17.5102 182.02 19.7302V27.9302C182.02 28.1954 181.915 28.4498 181.727 28.6373C181.54 28.8248 181.285 28.9302 181.02 28.9302H175.32C175.186 28.9342 175.053 28.9113 174.928 28.8629C174.803 28.8144 174.69 28.7414 174.593 28.6481C174.497 28.5549 174.421 28.4433 174.369 28.3199C174.317 28.1966 174.29 28.0641 174.29 27.9302Z" fill="#231815"/>
<path id="name-l" d="M1.22004 43.5002H6.81004C7.1336 43.5002 7.44392 43.6287 7.67271 43.8575C7.9015 44.0863 8.03004 44.3966 8.03004 44.7202V63.7202C8.03004 64.0438 8.15858 64.3541 8.38737 64.5829C8.61617 64.8117 8.92648 64.9402 9.25004 64.9402H18.59C18.9136 64.9402 19.2239 65.0687 19.4527 65.2975C19.6815 65.5263 19.81 65.8366 19.81 66.1602V70.5002C19.81 70.6604 19.7785 70.819 19.7172 70.9671C19.6559 71.1151 19.566 71.2496 19.4527 71.3629C19.3394 71.4762 19.2049 71.566 19.0569 71.6273C18.9089 71.6886 18.7503 71.7202 18.59 71.7202H1.22004C1.05946 71.7215 0.900217 71.6909 0.751598 71.63C0.602979 71.5692 0.467958 71.4794 0.354404 71.3658C0.24085 71.2523 0.151029 71.1173 0.0901906 70.9686C0.0293518 70.82 -0.00129104 70.6608 4.1676e-05 70.5002V44.7202C-0.00129104 44.5596 0.0293518 44.4004 0.0901906 44.2518C0.151029 44.1031 0.24085 43.9681 0.354404 43.8545C0.467958 43.741 0.602979 43.6512 0.751598 43.5903C0.900217 43.5295 1.05946 43.4989 1.22004 43.5002V43.5002Z" fill="#231815"/>
<path id="name-e" d="M23.8 43.5002H39.8C40.1236 43.5002 40.4339 43.6287 40.6627 43.8575C40.8915 44.0863 41.02 44.3966 41.02 44.7202V49.0602C41.02 49.3838 40.8915 49.6941 40.6627 49.9229C40.4339 50.1517 40.1236 50.2802 39.8 50.2802H31.86C31.5365 50.2802 31.2262 50.4087 30.9974 50.6375C30.7686 50.8663 30.64 51.1766 30.64 51.5002V52.6502C30.64 52.9738 30.7686 53.2841 30.9974 53.5129C31.2262 53.7417 31.5365 53.8702 31.86 53.8702H38.2C38.5236 53.8702 38.8339 53.9987 39.0627 54.2275C39.2915 54.4563 39.42 54.7666 39.42 55.0902V59.0902C39.42 59.4138 39.2915 59.7241 39.0627 59.9529C38.8339 60.1817 38.5236 60.3102 38.2 60.3102H31.86C31.6998 60.3102 31.5412 60.3417 31.3932 60.4031C31.2451 60.4644 31.1107 60.5542 30.9974 60.6675C30.8841 60.7808 30.7942 60.9153 30.7329 61.0633C30.6716 61.2113 30.64 61.37 30.64 61.5302V63.7702C30.64 63.9304 30.6716 64.0891 30.7329 64.2371C30.7942 64.3851 30.8841 64.5196 30.9974 64.6329C31.1107 64.7461 31.2451 64.836 31.3932 64.8973C31.5412 64.9586 31.6998 64.9902 31.86 64.9902H40.26C40.4203 64.9902 40.5789 65.0217 40.7269 65.083C40.8749 65.1444 41.0094 65.2342 41.1227 65.3475C41.236 65.4608 41.3259 65.5953 41.3872 65.7433C41.4485 65.8913 41.48 66.05 41.48 66.2102V70.5502C41.4814 70.7108 41.4507 70.87 41.3899 71.0186C41.3291 71.1672 41.2392 71.3023 41.1257 71.4158C41.0121 71.5294 40.8771 71.6192 40.7285 71.68C40.5799 71.7409 40.4206 71.7715 40.26 71.7702H23.8C23.6395 71.7715 23.4802 71.7409 23.3316 71.68C23.183 71.6192 23.048 71.5294 22.9344 71.4158C22.8208 71.3023 22.731 71.1672 22.6702 71.0186C22.6094 70.87 22.5787 70.7108 22.58 70.5502V44.7202C22.5787 44.5596 22.6094 44.4004 22.6702 44.2518C22.731 44.1031 22.8208 43.9681 22.9344 43.8545C23.048 43.741 23.183 43.6512 23.3316 43.5903C23.4802 43.5295 23.6395 43.4989 23.8 43.5002V43.5002Z" fill="#231815"/>
<path id="name-t" d="M58.21 50.2802H51.68C51.3565 50.2802 51.0462 50.1517 50.8174 49.9229C50.5886 49.6941 50.46 49.3838 50.46 49.0602V44.7202C50.46 44.3966 50.5886 44.0863 50.8174 43.8575C51.0462 43.6287 51.3565 43.5002 51.68 43.5002H75.22C75.5436 43.5002 75.8539 43.6287 76.0827 43.8575C76.3115 44.0863 76.44 44.3966 76.44 44.7202V49.0602C76.44 49.3838 76.3115 49.6941 76.0827 49.9229C75.8539 50.1517 75.5436 50.2802 75.22 50.2802H68.68C68.3565 50.2802 68.0462 50.4087 67.8174 50.6375C67.5886 50.8663 67.46 51.1766 67.46 51.5002V70.5002C67.46 70.6604 67.4285 70.819 67.3672 70.9671C67.3059 71.1151 67.216 71.2496 67.1027 71.3629C66.9894 71.4762 66.8549 71.566 66.7069 71.6273C66.5589 71.6886 66.4002 71.7202 66.24 71.7202H60.68C60.5198 71.7202 60.3612 71.6886 60.2132 71.6273C60.0651 71.566 59.9307 71.4762 59.8174 71.3629C59.7041 71.2496 59.6142 71.1151 59.5529 70.9671C59.4916 70.819 59.46 70.6604 59.46 70.5002V51.5002C59.4601 51.3374 59.4276 51.1763 59.3644 51.0263C59.3012 50.8763 59.2086 50.7404 59.0922 50.6267C58.9757 50.5131 58.8376 50.4238 58.6861 50.3643C58.5346 50.3048 58.3728 50.2762 58.21 50.2802V50.2802Z" fill="#231815"/>
<path id="name-a" d="M85.57 43.5002H91.57C91.8614 43.5 92.1462 43.5864 92.3884 43.7485C92.6305 43.9105 92.819 44.1408 92.93 44.4102L103.17 69.7202C103.258 69.942 103.291 70.182 103.265 70.4193C103.239 70.6565 103.155 70.8838 103.021 71.0812C102.887 71.2785 102.706 71.44 102.495 71.5514C102.284 71.6628 102.049 71.7208 101.81 71.7202H96.29C95.9839 71.7205 95.6855 71.624 95.4376 71.4443C95.1897 71.2647 95.005 71.0112 94.91 70.7202L93.6 66.9202C93.5006 66.63 93.3134 66.3779 93.0643 66.1988C92.8153 66.0196 92.5168 65.9223 92.21 65.9202H84.61C84.3063 65.9249 84.0116 66.0236 83.7663 66.2027C83.5209 66.3817 83.3371 66.6324 83.24 66.9202L81.86 70.7502C81.7683 71.0413 81.5858 71.2953 81.3393 71.4752C81.0928 71.6552 80.7952 71.7515 80.49 71.7502H75.38C75.1422 71.7484 74.9084 71.6889 74.6986 71.5769C74.4888 71.4648 74.3093 71.3035 74.1756 71.1068C74.0418 70.9101 73.9578 70.684 73.9307 70.4477C73.9036 70.2114 73.9343 69.972 74.02 69.7502L84.27 44.4402C84.3713 44.1737 84.5483 43.9427 84.7794 43.7757C85.0104 43.6086 85.2852 43.5129 85.57 43.5002V43.5002ZM88.41 52.0802C87.86 53.8702 87.32 55.5102 86.65 57.3402L86.39 58.0702C86.3011 58.2935 86.2687 58.5354 86.2957 58.7743C86.3226 59.0132 86.4082 59.2417 86.5447 59.4396C86.6813 59.6374 86.8645 59.7985 87.0783 59.9085C87.292 60.0186 87.5297 60.0741 87.77 60.0702H89.08C89.3131 60.0704 89.5428 60.0148 89.75 59.908C89.9572 59.8012 90.1358 59.6464 90.2709 59.4565C90.406 59.2666 90.4937 59.0471 90.5266 58.8163C90.5595 58.5856 90.5367 58.3503 90.46 58.1302L90.2 57.3802C89.54 55.4702 89.03 53.8702 88.49 52.1202L88.41 52.0802Z" fill="#231815"/>
<path id="name-n" d="M118.28 61.5202C116.72 59.4102 115.36 57.5202 113.95 55.5202H113.88C113.88 57.9002 113.95 60.3202 113.95 62.7002V70.5202C113.951 70.6808 113.921 70.84 113.86 70.9886C113.799 71.1372 113.709 71.2723 113.596 71.3858C113.482 71.4994 113.347 71.5892 113.198 71.65C113.05 71.7109 112.891 71.7415 112.73 71.7402H107.45C107.29 71.7402 107.131 71.7086 106.983 71.6473C106.835 71.586 106.701 71.4961 106.587 71.3829C106.474 71.2696 106.384 71.1351 106.323 70.9871C106.262 70.8391 106.23 70.6804 106.23 70.5202V44.7202C106.23 44.3966 106.359 44.0863 106.587 43.8575C106.816 43.6287 107.126 43.5002 107.45 43.5002H113.14C113.335 43.497 113.527 43.5407 113.701 43.6278C113.875 43.7148 114.026 43.8426 114.14 44.0002L121.26 53.7202C122.82 55.8202 124.18 57.7202 125.59 59.7202H125.67C125.67 57.3402 125.59 54.9302 125.59 52.5502V44.7202C125.589 44.5596 125.619 44.4004 125.68 44.2518C125.741 44.1031 125.831 43.9681 125.944 43.8546C126.058 43.741 126.193 43.6512 126.342 43.5903C126.49 43.5295 126.649 43.4989 126.81 43.5002H132.09C132.414 43.5002 132.724 43.6287 132.953 43.8575C133.182 44.0863 133.31 44.3966 133.31 44.7202V70.5102C133.31 70.8338 133.182 71.1441 132.953 71.3729C132.724 71.6017 132.414 71.7302 132.09 71.7302H126.4C126.206 71.7346 126.014 71.6923 125.84 71.6071C125.666 71.5218 125.515 71.396 125.4 71.2402L118.28 61.5202Z" fill="#231815"/>
<path id="name-l2" d="M148.17 43.5002H153.76C153.921 43.4989 154.08 43.5295 154.228 43.5903C154.377 43.6512 154.512 43.741 154.626 43.8545C154.739 43.9681 154.829 44.1031 154.89 44.2518C154.951 44.4004 154.981 44.5596 154.98 44.7202V63.7202C154.98 64.0438 155.109 64.3541 155.337 64.5829C155.566 64.8117 155.876 64.9402 156.2 64.9402H165.54C165.864 64.9402 166.174 65.0687 166.403 65.2975C166.631 65.5263 166.76 65.8366 166.76 66.1602V70.5002C166.76 70.6604 166.728 70.819 166.667 70.9671C166.606 71.1151 166.516 71.2496 166.403 71.3629C166.289 71.4762 166.155 71.566 166.007 71.6273C165.859 71.6886 165.7 71.7202 165.54 71.7202H148.17C148.009 71.7215 147.85 71.6909 147.702 71.63C147.553 71.5692 147.418 71.4794 147.304 71.3658C147.191 71.2523 147.101 71.1173 147.04 70.9686C146.979 70.82 146.949 70.6608 146.95 70.5002V44.7202C146.949 44.5596 146.979 44.4004 147.04 44.2518C147.101 44.1031 147.191 43.9681 147.304 43.8545C147.418 43.741 147.553 43.6512 147.702 43.5903C147.85 43.5295 148.009 43.4989 148.17 43.5002V43.5002Z" fill="#231815"/>
<path id="name-o" d="M183.49 43.0602C191.99 43.0602 198.59 49.4502 198.59 57.6102C198.59 65.7702 191.99 72.1502 183.49 72.1502C174.99 72.1502 168.4 65.7602 168.4 57.6102C168.4 49.4602 174.99 43.0602 183.49 43.0602ZM183.49 64.9402C184.953 64.996 186.399 64.6132 187.642 63.8409C188.886 63.0686 189.87 61.9422 190.469 60.6063C191.067 59.2703 191.252 57.786 191.001 56.3439C190.749 54.9019 190.072 53.568 189.057 52.5137C188.041 51.4593 186.734 50.7327 185.302 50.4272C183.87 50.1217 182.38 50.2512 181.023 50.7991C179.665 51.347 178.503 52.2883 177.684 53.502C176.866 54.7157 176.429 56.1464 176.43 57.6102C176.401 58.5585 176.561 59.5032 176.902 60.3886C177.243 61.274 177.757 62.0824 178.415 62.7662C179.073 63.45 179.861 63.9954 180.732 64.3705C181.604 64.7456 182.541 64.9427 183.49 64.9502V64.9402Z" fill="#231815"/>
<path id="name-c" d="M225.1 69.6802C225.104 69.9196 225.036 70.1548 224.907 70.356C224.777 70.5572 224.59 70.7152 224.37 70.8102C221.989 71.7194 219.459 72.1772 216.91 72.1602C207.44 72.1602 201.08 65.8502 201.08 57.6602C201.08 49.3102 207.67 43.0702 216.91 43.0702C219.302 43.0662 221.674 43.5 223.91 44.3502C224.134 44.4421 224.325 44.5988 224.458 44.8002C224.592 45.0017 224.662 45.2385 224.66 45.4802V50.4802C224.661 50.6851 224.611 50.8869 224.512 51.0668C224.414 51.2467 224.272 51.3988 224.099 51.5087C223.926 51.6186 223.728 51.6829 223.524 51.6954C223.319 51.7079 223.115 51.6683 222.93 51.5802C221.081 50.7004 219.067 50.2232 217.02 50.1802C212.26 50.1802 209.02 53.2602 209.02 57.5502C209.02 61.6402 212.02 65.0002 217.14 65.0002C219.278 64.9676 221.38 64.4513 223.29 63.4902C223.475 63.404 223.68 63.3662 223.883 63.3803C224.087 63.3944 224.284 63.4599 224.456 63.5708C224.628 63.6816 224.769 63.8342 224.866 64.0142C224.963 64.1942 225.012 64.3958 225.01 64.6002L225.1 69.6802Z" fill="#231815"/>
</g>
</svg>
