<svg width="139" height="94" viewBox="0 0 139 94" fill="none" xmlns="http://www.w3.org/2000/svg">
<path d="M50.358 51H51.898V46.142C51.898 45.022 51.772 43.832 51.688 42.768H51.758L52.836 44.924L56.252 51H57.918V40.682H56.378V45.498C56.378 46.618 56.504 47.864 56.588 48.928H56.518L55.44 46.744L52.024 40.682H50.358V51ZM60.7793 51H67.0233V49.628H62.4033V46.296H66.1833V44.924H62.4033V42.054H66.8693V40.682H60.7793V51ZM70.3778 51H72.3378L73.6958 45.274C73.8638 44.462 74.0318 43.692 74.1858 42.908H74.2418C74.3818 43.692 74.5358 44.462 74.7178 45.274L76.1038 51H78.1058L80.1358 40.682H78.5818L77.6018 46.058C77.4338 47.136 77.2518 48.242 77.0838 49.362H77.0138C76.7758 48.242 76.5518 47.136 76.3138 46.058L74.9838 40.682H73.5418L72.2118 46.058C71.9738 47.15 71.7358 48.256 71.5118 49.362H71.4558C71.2738 48.256 71.0918 47.15 70.9098 46.058L69.9438 40.682H68.2778L70.3778 51ZM84.8215 51.182C87.0755 51.182 88.4475 49.838 88.4475 48.186C88.4475 46.674 87.5655 45.918 86.3475 45.4L84.9335 44.798C84.0935 44.462 83.2675 44.126 83.2675 43.23C83.2675 42.418 83.9535 41.914 85.0035 41.914C85.9135 41.914 86.6275 42.264 87.2715 42.838L88.1255 41.802C87.3415 41.004 86.2075 40.5 85.0035 40.5C83.0435 40.5 81.6155 41.718 81.6155 43.342C81.6155 44.84 82.7215 45.624 83.7155 46.044L85.1435 46.66C86.0955 47.08 86.7955 47.374 86.7955 48.312C86.7955 49.18 86.0955 49.768 84.8495 49.768C83.8555 49.768 82.8475 49.292 82.1055 48.55L81.1535 49.67C82.0915 50.622 83.4075 51.182 84.8215 51.182Z" fill="#C4C4C4"/>
<rect x="1" y="1" width="137" height="92" stroke="#C4C4C4" stroke-width="2"/>
</svg>
