<svg width="29" height="29" viewBox="0 0 29 29" fill="none" xmlns="http://www.w3.org/2000/svg">
<g clip-path="url(#clip0_812_22047)">
<path fill-rule="evenodd" clip-rule="evenodd" d="M3.41595 0.926637C3.73309 0.609973 4.11391 0.364324 4.53317 0.205969C4.95243 0.0476136 5.40056 -0.0198313 5.84785 0.00810333C6.29515 0.036038 6.7314 0.158714 7.1277 0.368003C7.524 0.577291 7.8713 0.868412 8.14658 1.22207L11.4 5.4017C11.9963 6.16839 12.2066 7.16707 11.971 8.10957L10.9795 12.0789C10.9283 12.2845 10.931 12.4999 10.9876 12.7041C11.0441 12.9083 11.1525 13.0944 11.3021 13.2444L15.7555 17.6977C15.9056 17.8477 16.092 17.9562 16.2966 18.0128C16.5011 18.0693 16.7168 18.0719 16.9227 18.0203L20.8903 17.0289C21.3554 16.9126 21.8408 16.9036 22.31 17.0025C22.7791 17.1014 23.2196 17.3056 23.5981 17.5998L27.7778 20.8514C29.2803 22.0205 29.4181 24.2408 28.0732 25.5839L26.1991 27.458C24.8578 28.7993 22.8532 29.3883 20.9845 28.7304C16.2017 27.0475 11.8591 24.3094 8.27889 20.7191C4.68885 17.1395 1.95074 12.7975 0.267639 8.01532C-0.388486 6.14845 0.200576 4.14201 1.54183 2.80076L3.41595 0.926637Z" fill="#222222"/>
</g>
<defs>
<clipPath id="clip0_812_22047">
<rect width="29" height="29" fill="white"/>
</clipPath>
</defs>
</svg>
