<svg width="44" height="44" viewBox="0 0 44 44" fill="none" xmlns="http://www.w3.org/2000/svg">
<path d="M16.115 35.4527C18.5585 37.429 21.6073 38.5049 24.75 38.4997C26.8235 38.4997 28.7925 38.0405 30.5608 37.2155L36.8555 38.4722C37.0773 38.5164 37.3066 38.5051 37.523 38.4395C37.7394 38.3739 37.9363 38.2559 38.0962 38.0959C38.2562 37.936 38.3742 37.7391 38.4398 37.5227C38.5054 37.3063 38.5167 37.077 38.4725 36.8552L37.2158 30.5632C38.0408 28.795 38.5 26.8232 38.5 24.7497C38.5 21.48 37.3588 18.4797 35.453 16.1175C35.8443 18.1534 35.8509 20.2446 35.4723 22.283C36.0489 24.8028 35.7228 27.4451 34.551 29.7492C34.4098 30.0255 34.3662 30.3415 34.4273 30.6457L35.3733 35.373L30.6433 34.427C30.3399 34.3665 30.025 34.4101 29.7495 34.5507C27.445 35.7243 24.8012 36.0504 22.2805 35.472C20.2422 35.851 18.1509 35.8444 16.115 35.4527V35.4527ZM5.50001 19.2497C5.50113 16.2743 6.46738 13.3795 8.25368 11C10.04 8.62047 12.5499 6.88457 15.4068 6.05292C18.2636 5.22126 21.3131 5.33873 24.0974 6.38768C26.8818 7.43664 29.2508 9.36047 30.8488 11.8704C32.4467 14.3803 33.1874 17.3408 32.9597 20.3074C32.7319 23.2741 31.548 26.0869 29.5856 28.3234C27.6232 30.56 24.9883 32.0996 22.0765 32.7112C19.1646 33.3229 16.1329 32.9735 13.4365 31.7155L7.14451 32.9722C6.92271 33.0164 6.69344 33.0051 6.47701 32.9395C6.26059 32.8739 6.0637 32.7559 5.90378 32.5959C5.74386 32.436 5.62586 32.2391 5.56023 32.0227C5.49459 31.8063 5.48336 31.577 5.52751 31.3552L6.78426 25.0605C5.93569 23.241 5.49727 21.2573 5.50001 19.2497V19.2497ZM19.25 24.4197C18.7942 24.4197 18.357 24.6008 18.0347 24.9231C17.7123 25.2454 17.5313 25.6826 17.5313 26.1385C17.5313 26.5943 17.7123 27.0315 18.0347 27.3538C18.357 27.6761 18.7942 27.8572 19.25 27.8572C19.7059 27.8572 20.143 27.6761 20.4654 27.3538C20.7877 27.0315 20.9688 26.5943 20.9688 26.1385C20.9688 25.6826 20.7877 25.2454 20.4654 24.9231C20.143 24.6008 19.7059 24.4197 19.25 24.4197V24.4197ZM19.25 11.008C16.368 11.008 14.124 13.2575 14.1543 16.3842C14.1579 16.7489 14.3063 17.0972 14.5667 17.3524C14.8272 17.6077 15.1783 17.7491 15.543 17.7455C15.9077 17.7418 16.256 17.5934 16.5113 17.333C16.7665 17.0726 16.9079 16.7214 16.9043 16.3567C16.8878 14.7645 17.8943 13.758 19.25 13.758C20.548 13.758 21.5958 14.836 21.5958 16.3705C21.5958 16.926 21.4033 17.2367 20.6058 17.8665L19.844 18.4577C18.4525 19.5687 17.875 20.4295 17.875 21.9997C17.8744 22.3433 18.0024 22.6747 18.2339 22.9286C18.4654 23.1825 18.7836 23.3406 19.1258 23.3716C19.468 23.4027 19.8094 23.3045 20.0828 23.0963C20.3562 22.8882 20.5418 22.5853 20.603 22.2472L20.6333 21.8182C20.68 21.4112 20.9083 21.1197 21.5848 20.5862L22.3465 19.995C23.7573 18.8675 24.3458 17.982 24.3458 16.3705C24.3458 13.3345 22.0853 11.008 19.25 11.008Z" fill="#222222"/>
</svg>
