<svg width="119" height="64" viewBox="0 0 119 64" fill="none" xmlns="http://www.w3.org/2000/svg">
<path d="M49.0536 12.4625C48.5142 12.6959 47.9802 12.9126 47.4514 13.1077L47.4266 13.1106C46.1655 13.2684 44.3822 13.6893 43.0905 13.9786C41.3584 14.3644 39.7892 15.2057 38.5008 15.5082C37.5447 15.6967 36.5729 15.7947 35.5984 15.8007C34.0267 15.7975 30.3092 15.1986 28.4992 14.8652L28.2144 14.8128C27.4718 20.1224 24.1152 36.0581 22.3018 41.8171C22.9804 41.8704 23.9985 41.9598 25.4095 42.1205C26.2895 42.2394 27.1554 42.4462 27.9942 42.7378C28.0964 42.7719 28.1974 42.8085 28.297 42.8477C28.297 42.8477 37.39 47.0559 40.2477 49.0044C43.3911 51.1473 57.0359 59.5058 57.0359 59.5058C58.7262 60.4156 60.4759 61.2104 62.2732 61.8847C63.6974 62.3647 65.2298 62.423 66.6864 62.0529C68.0286 61.6436 68.6892 60.6576 68.7522 59.6488L68.7201 59.1313C69.9475 59.6505 72.7219 60.1343 74.6353 58.5295C75.5033 57.802 76.0177 56.1483 75.6354 55.1006L75.5547 54.764C77.3213 55.7464 80.4628 55.7927 82.3032 53.5764C83.3406 52.3278 83.0719 49.8849 81.5021 48.4524L81.6841 48.5755C84.3369 49.4384 86.7801 48.2183 87.5896 46.8611C88.3612 45.5687 88.6974 43.4312 87.1148 41.7467C88.6139 40.7745 90.4849 39.8155 92.0601 38.8459C93.3212 38.0477 94.6297 37.3269 95.9783 36.6875C94.1198 30.1454 91.2169 16.4501 90.4678 11.3473C89.3401 11.6135 88.0767 11.8674 86.6175 12.0989C84.65 12.4557 67.2998 8.89697 62.3008 8.3601C57.5175 8.05727 53.1332 10.6976 49.0536 12.4625Z" fill="white"/>
<path d="M34.4832 48.804C35.1685 47.2188 36.1098 45.757 37.2695 44.4772C37.8674 43.7348 38.5966 43.1086 39.4208 42.6297C40.139 42.275 40.942 42.1284 41.7392 42.2064C42.5363 42.2844 43.2957 42.5839 43.9315 43.071C45.1852 44.0602 45.6729 45.9341 45.2904 47.4753C44.9078 49.0165 41.9836 53.3925 40.2139 54.49C39.7037 54.7824 39.1353 54.9586 38.5491 55.0058C37.963 55.0531 37.3737 54.9702 36.8233 54.7632C35.5788 54.2408 34.9461 53.5416 34.3855 52.3129C33.9553 51.371 34.0174 49.8922 34.4832 48.804Z" fill="white"/>
<path d="M42.7326 53.11C43.2678 51.525 44.0598 50.0388 45.0771 48.7108C45.5951 47.9466 46.2488 47.2839 47.006 46.7556C47.671 46.3561 48.4346 46.1506 49.2104 46.1623C49.9861 46.1741 50.7431 46.4027 51.3958 46.8222C52.6839 47.677 53.3054 49.447 53.0588 50.9644C52.8122 52.4818 50.3388 56.9407 48.7188 58.1411C48.2497 58.4642 47.715 58.6796 47.1529 58.772C46.5908 58.8643 46.0152 58.8314 45.4674 58.6754C44.2242 58.2703 43.5578 57.6447 42.9184 56.5045C42.4275 55.6294 42.3703 54.1982 42.7326 53.11Z" fill="white"/>
<path d="M49.8455 58.7669C50.0943 57.3877 51.1189 54.9856 52.2219 54.0119C52.7176 53.5991 53.3206 53.336 53.9604 53.2534C54.6002 53.1707 55.2503 53.2719 55.8347 53.5451C56.9939 54.0945 57.5707 55.7177 57.5491 56.993C57.5276 58.2683 56.5467 61.0095 55.3582 62.1877C55.0113 62.5087 54.5978 62.7491 54.1472 62.8917C53.6966 63.0343 53.2201 63.0756 52.7517 63.0127C52.2778 62.9449 51.8235 62.778 51.4185 62.5229C51.0134 62.2678 50.6666 61.9303 50.4007 61.5322C49.8703 60.7148 49.6718 59.7257 49.8455 58.7669Z" fill="white"/>
<path d="M26.5979 47.2199C26.2018 46.1937 26.5281 44.4012 27.182 43.593C28.2368 42.2884 30.5656 42.6044 31.8222 43.3936C32.7484 43.9752 33.9761 45.2801 34.2503 45.9198C35.081 47.659 34.2587 49.1848 33.6437 49.6609C32.922 50.2199 31.1539 50.4041 30.2524 50.2611C29.4368 50.102 28.6744 49.74 28.0357 49.2085C27.397 48.6769 26.9025 47.993 26.5979 47.2199Z" fill="white"/>
<path d="M0.83882 4.37061C8.23734 6.38821 20.5481 9.603 23.696 10.5594C20.6606 22.3712 18.2504 38.9939 15.6844 45.7096C13.0955 45.1113 5.18522 43.0796 0.524414 41.9161" fill="#FCEB3B"/>
<path d="M117.878 0.708252C110.479 2.72618 98.1684 5.94064 95.0205 6.89704C98.0559 18.7088 100.466 35.3322 103.034 42.0482C105.623 41.4499 113.533 39.4185 118.194 38.2547" fill="#15C2C4"/>
<path d="M92.3833 9.17421C93.3779 8.85852 94.5025 8.52193 95.2666 8.30172L95.3663 8.27246C97.8156 18.2383 99.867 31.0579 101.945 38.6262C101.853 38.6525 101.805 38.667 101.805 38.667C100.507 39.0592 98.5023 39.3608 96.9984 39.7562C95.3151 36.0994 90.5495 13.6887 90.2959 9.91361C90.9772 9.62795 91.6741 9.38109 92.3833 9.17421Z" fill="white"/>
<path d="M16.8406 42.0377C18.8981 34.4428 20.9273 21.8019 23.3483 11.9473C23.4126 11.9592 23.4509 11.9643 23.4509 11.9643C24.965 12.4002 27.8027 13.3007 28.3534 13.6013C28.1001 17.3764 23.4026 39.7616 21.7191 43.4188C20.2152 43.0233 18.2101 42.7218 16.9123 42.3296L16.7725 42.2881C16.7954 42.2054 16.8181 42.1219 16.8406 42.0377Z" fill="white"/>
<path d="M60.3198 21.483C59.0834 21.2345 57.6988 21.5152 56.484 21.7495C55.7344 21.8914 54.9943 22.0789 54.2677 22.3111C53.5659 22.5388 52.6924 22.7934 52.1514 23.3187C51.8648 23.6395 51.6337 24.0058 51.4676 24.4027C51.2615 24.8074 51.0596 25.2138 50.8568 25.6198C50.4926 26.3486 50.1261 27.0774 49.7213 27.7846C48.9633 29.184 47.9339 30.4183 46.6933 31.4151C46.1356 31.8844 45.4517 32.1786 44.7275 32.2606C44.0541 32.3887 43.3593 32.3439 42.7079 32.1304C42.065 31.8658 41.3851 31.264 41.2989 30.5346C41.2825 30.0996 41.2998 29.6639 41.3507 29.2316C41.3721 28.704 41.3893 28.1761 41.4024 27.648C41.4432 25.9866 41.441 24.3226 41.5741 22.6651C41.6444 21.7915 41.7535 20.9235 41.9014 20.0611C42.0589 19.1398 42.2135 18.1567 42.6491 17.3189C43.4528 15.7739 45.0972 14.7004 46.7155 14.1739C48.373 13.6037 49.9941 12.9328 51.5698 12.1649C54.8393 10.6402 58.2733 8.9852 61.9716 9.11572C62.2114 9.12408 62.4467 9.14787 62.6846 9.17583C62.7717 9.18655 62.8586 9.19727 62.9454 9.20798L63.0817 9.22566C63.1402 9.23338 63.1186 9.23049 63.0174 9.21666L63.1321 9.23241C63.5788 9.29435 64.0248 9.35983 64.4701 9.42884C65.5953 9.60244 66.7153 9.79082 67.8357 9.98275C70.4664 10.4328 73.0928 10.9064 75.7219 11.3651C78.1304 11.7859 80.5402 12.2083 82.961 12.552C83.8084 12.6726 84.6581 12.7912 85.5113 12.8593C86.3068 12.8994 87.1042 12.8336 87.8825 12.6639C88.8184 12.4982 89.7493 12.3078 90.6752 12.0926C91.6419 11.8676 91.2326 10.3798 90.265 10.6045C89.2905 10.8308 88.3106 11.0299 87.3254 11.2018C87.0476 11.2503 86.7689 11.2928 86.4915 11.3413C86.2053 11.3911 86.6445 11.3494 86.4966 11.3413C86.4001 11.3362 86.2963 11.3513 86.1976 11.3506C85.5078 11.3312 84.8197 11.27 84.1373 11.1674L83.8267 11.1272C83.6197 11.0999 83.9373 11.1423 83.8064 11.1243L83.6419 11.1018C83.3752 11.0647 83.1091 11.0265 82.8433 10.987C82.2925 10.9056 81.7423 10.8207 81.1928 10.7324C79.9088 10.527 78.6268 10.309 77.3454 10.0875C72.4698 9.24495 67.5994 8.22811 62.6859 7.63113C59.0854 7.19392 55.5108 8.66243 52.3096 10.1268C50.6681 10.8774 49.0504 11.694 47.3588 12.3241C46.4956 12.6008 45.6485 12.9254 44.8213 13.2962C43.9774 13.7212 43.2056 14.2765 42.5343 14.9416C41.8136 15.6482 41.2638 16.5102 40.9269 17.4616C40.6261 18.4137 40.4159 19.392 40.2991 20.3836C40.0566 22.1219 39.9243 23.8738 39.903 25.6288C39.885 26.5013 39.8725 27.3738 39.8461 28.246C39.8303 28.7743 39.8088 29.3021 39.7818 29.8296C39.6843 30.547 39.8194 31.2767 40.1673 31.9116C40.5153 32.5465 41.0577 33.0531 41.7149 33.3568C42.4692 33.7371 43.3122 33.9066 44.1549 33.8474C45.007 33.843 45.8488 33.6612 46.6268 33.3134C47.4042 32.8811 48.1107 32.3319 48.7215 31.6852C49.866 30.4981 50.8195 29.1408 51.548 27.6615C51.9591 26.879 52.3446 26.0831 52.7445 25.2945C52.8962 24.9952 53.0297 24.5618 53.3113 24.3651C53.5872 24.1945 53.8842 24.0606 54.1947 23.9668C55.5987 23.4558 57.0628 23.1284 58.5507 22.9927C58.8375 22.9663 59.1259 22.947 59.4139 22.9457C59.5255 22.9457 59.6373 22.9457 59.7489 22.9535C59.8068 22.957 59.8643 22.9621 59.9219 22.9679C59.7036 22.9461 59.8624 22.9612 59.9116 22.9711C60.1087 23.0204 60.3172 22.9919 60.4938 22.8916C60.6705 22.7912 60.8018 22.6268 60.8606 22.4323C60.913 22.2351 60.8859 22.0251 60.7852 21.8476C60.6844 21.6701 60.518 21.5392 60.3218 21.483H60.3198Z" fill="#15C2C4"/>
<path d="M59.9071 22.9697C59.9746 22.9944 60.1836 23.0964 59.9251 22.9719C59.9862 23.0015 60.0499 23.0272 60.1113 23.0562C60.264 23.1285 60.4135 23.2076 60.5613 23.2896C60.9192 23.4886 61.2664 23.7075 61.6097 23.929C62.6792 24.6231 63.7179 25.365 64.7602 26.1009C68.2643 28.5792 71.799 31.0195 75.2844 33.5242C77.2429 34.932 79.1802 36.3688 81.0965 37.8346C82.0457 38.5632 82.9866 39.3034 83.9194 40.055C84.3909 40.435 84.8603 40.818 85.3278 41.204C85.8184 41.572 86.2765 41.9816 86.6969 42.4282C87.1587 43.0066 87.4251 43.7167 87.4577 44.4561C87.4903 45.1956 87.2874 45.9263 86.8783 46.5431C86.4376 47.1353 85.8243 47.5763 85.1227 47.8055C84.6788 47.9654 84.214 48.0596 83.7429 48.0852C83.1636 48.1453 82.5782 48.0733 82.0307 47.8747C81.7247 47.6988 81.4319 47.5009 81.1546 47.2825C80.7659 47.0163 80.3777 46.7496 79.9902 46.4823C79.1133 45.8777 78.2374 45.271 77.3628 44.6621C75.8096 43.582 74.2602 42.497 72.7145 41.4072C72.5375 41.3056 72.3276 41.2777 72.1302 41.3295C71.9327 41.3813 71.7636 41.5086 71.6591 41.6839C71.5601 41.8616 71.5335 42.0707 71.5851 42.2675C71.6367 42.4643 71.7624 42.6335 71.9359 42.7397C74.8813 44.8229 77.8434 46.8829 80.8222 48.9198C81.2284 49.21 81.6929 49.4083 82.1834 49.501C82.7813 49.6234 83.3937 49.6602 84.002 49.6103C85.079 49.529 86.115 49.1629 87.004 48.5494C87.7216 48.0181 88.2821 47.3024 88.6257 46.4782C88.9694 45.654 89.0835 44.7522 88.956 43.8684C88.8082 42.821 88.3228 41.8504 87.5736 41.1037C86.6485 40.2402 85.6747 39.4304 84.6568 38.6784C82.6294 37.056 80.5676 35.4771 78.4716 33.9418C74.6399 31.1198 70.712 28.4319 66.8295 25.6798C65.5819 24.7954 64.3387 23.9029 63.0715 23.0465C62.371 22.5426 61.6319 22.0947 60.861 21.7069C60.6838 21.6243 60.5035 21.5462 60.3199 21.4796C60.1227 21.4271 59.9127 21.4541 59.7352 21.5548C59.5576 21.6556 59.4268 21.8221 59.3709 22.0184C59.3209 22.2156 59.349 22.4245 59.4494 22.6014C59.5498 22.7784 59.7147 22.9096 59.9097 22.9678L59.9071 22.9697Z" fill="#15C2C4"/>
<path d="M56.6464 60.1704C58.2073 61.0321 59.8267 61.7832 61.4927 62.4182C63.4052 63.1576 65.9548 63.4791 67.8095 62.4009C68.2993 62.1179 68.712 61.7186 69.0109 61.2383C69.3099 60.758 69.4859 60.2115 69.5236 59.6471C69.522 59.4429 69.4402 59.2476 69.2958 59.1033C69.1515 58.9589 68.9562 58.8771 68.752 58.8755C68.5486 58.8795 68.3547 58.962 68.2108 59.1059C68.067 59.2497 67.9844 59.4437 67.9805 59.6471C67.9078 60.5424 67.1292 61.1509 66.2403 61.3737C65.0302 61.6373 63.7714 61.5693 62.5967 61.177C61.7034 60.8756 60.8301 60.5178 59.9821 60.1058C59.1183 59.7094 58.2554 59.3021 57.4254 58.8379C56.5574 58.3531 55.7784 59.6853 56.6464 60.1704Z" fill="#15C2C4"/>
<path d="M28.2946 15.6086C30.559 16.0738 32.8512 16.391 35.1569 16.5583C36.3485 16.6191 37.5428 16.5159 38.7063 16.2516C40.1343 15.9179 41.4488 15.2055 42.8666 14.8271C44.3646 14.4132 45.888 14.0975 47.4271 13.882C47.6297 13.8757 47.8223 13.7924 47.9657 13.649C48.109 13.5057 48.1923 13.3131 48.1986 13.1104C48.1974 12.9062 48.1158 12.7106 47.9713 12.5662C47.8269 12.4217 47.6313 12.34 47.4271 12.3389C46.0312 12.5195 44.6595 12.8346 43.2874 13.1426C41.8288 13.4711 40.4883 14.0543 39.0786 14.5323C36.9568 15.2521 34.6904 15.0386 32.5149 14.7352C31.2406 14.5573 29.9705 14.3521 28.7048 14.1195C28.5077 14.0707 28.2995 14.0994 28.1229 14.1995C27.9463 14.2997 27.8149 14.4638 27.7558 14.658C27.7032 14.8553 27.7302 15.0653 27.831 15.2429C27.9317 15.4205 28.0982 15.5513 28.2946 15.6073V15.6086Z" fill="#15C2C4"/>
<path d="M88.0014 42.0963C89.3616 41.2605 90.7754 40.5182 92.143 39.6955C93.5077 38.838 94.9176 38.0546 96.3666 37.3487C96.542 37.2443 96.6694 37.075 96.7212 36.8775C96.7729 36.68 96.745 36.4701 96.6434 36.293C96.5369 36.1198 96.3677 35.9944 96.171 35.9428C95.9744 35.8912 95.7654 35.9175 95.5876 36.0162C94.1388 36.7222 92.729 37.5056 91.3644 38.363C89.9968 39.1857 88.5829 39.9286 87.2224 40.7638C86.3776 41.2823 87.1517 42.6178 88.0014 42.0963Z" fill="#15C2C4"/>
<path d="M66.2913 49.7635C68.967 51.5522 71.6921 53.2718 74.4247 54.9743C75.0569 55.4034 75.7506 55.7338 76.4822 55.9542C77.2833 56.1665 78.1171 56.2273 78.9405 56.1336C80.7286 55.925 82.6896 54.9393 83.4052 53.1905C84.1816 51.2937 83.3528 48.9402 81.8001 47.6932C81.6525 47.554 81.4574 47.4766 81.2545 47.4766C81.0517 47.4766 80.8566 47.554 80.709 47.6932C80.5655 47.8385 80.4851 48.0345 80.4851 48.2387C80.4851 48.4429 80.5655 48.6389 80.709 48.7843C81.8213 49.6767 82.4498 51.2002 82.0123 52.5295C81.8194 53.1101 81.2465 53.6363 80.6328 53.9996C80.0234 54.3573 79.3396 54.5692 78.6348 54.6188C77.9259 54.6767 77.2126 54.5882 76.5394 54.3587C75.9855 54.1281 75.4584 53.8379 74.9674 53.4933C73.5844 52.6285 72.2068 51.7551 70.8348 50.8729C69.5752 50.066 68.3137 49.2613 67.0702 48.4297C66.2424 47.8761 65.469 49.2122 66.2913 49.7619V49.7635Z" fill="#15C2C4"/>
<path d="M61.2913 55.3367C63.4989 56.7923 65.6955 58.3046 67.9857 59.6278C68.9231 60.1145 69.9612 60.3756 71.0173 60.3903C72.4126 60.4843 73.797 60.088 74.9313 59.27C76.177 58.3203 76.8869 56.4143 76.378 54.894C76.0648 53.9566 74.5738 54.3584 74.8898 55.3042C75.0219 55.7973 75.0091 56.3181 74.8529 56.8041C74.6967 57.2901 74.4039 57.7209 74.0093 58.0448C73.0755 58.6883 71.9392 58.9694 70.8132 58.8353C70.3496 58.7983 69.8916 58.7105 69.4472 58.5736C69.362 58.5476 69.2771 58.5203 69.1932 58.4904C69.1546 58.4769 68.9039 58.3756 69.0614 58.4441C68.9258 58.3837 68.7944 58.3142 68.6682 58.2361C67.6254 57.6 66.591 56.95 65.565 56.286C64.3948 55.5324 63.2294 54.7716 62.0686 54.0035C61.2373 53.4554 60.4635 54.7911 61.29 55.336L61.2913 55.3367Z" fill="#15C2C4"/>
<path d="M22.3018 42.587C24.2628 42.7426 26.2367 42.8806 28.092 43.5904C28.2893 43.6431 28.4995 43.6162 28.6771 43.5153C28.8547 43.4144 28.9855 43.2478 29.0413 43.0513C29.0911 42.8541 29.0628 42.6453 28.9623 42.4685C28.8619 42.2917 28.697 42.1605 28.5022 42.1023C26.5257 41.3461 24.3924 41.2095 22.3018 41.0439C22.0977 41.0456 21.9024 41.1275 21.7581 41.2718C21.6138 41.4161 21.532 41.6114 21.5303 41.8155C21.5342 42.0189 21.6168 42.2128 21.7606 42.3567C21.9045 42.5005 22.0984 42.5831 22.3018 42.587Z" fill="#15C2C4"/>
<path d="M12.7219 6.76504C8.90304 5.74273 5.08258 4.72622 1.26791 3.68784C1.15346 3.65799 1.03372 3.65457 0.917749 3.67782C0.801778 3.70108 0.692615 3.75041 0.598522 3.82208C0.504428 3.89375 0.427869 3.98588 0.374636 4.0915C0.321403 4.19713 0.292892 4.31347 0.29126 4.43174C0.295761 14.1465 0.170705 23.8613 0.0755475 33.5757C0.0485433 36.3385 0.0233608 39.1014 0 41.8644C0.00191431 42.0328 0.058049 42.1962 0.160081 42.3301C0.262113 42.4641 0.404611 42.5617 0.566446 42.6083C4.76528 43.657 8.94033 44.797 13.1324 45.8713C13.913 46.0716 14.6942 46.2716 15.4792 46.4535C15.6763 46.5018 15.8843 46.4729 16.0608 46.3727C16.2372 46.2725 16.3687 46.1087 16.4282 45.9147C17.836 42.2129 18.6008 38.2439 19.4122 34.3801C20.4798 29.293 21.4426 24.1847 22.5196 19.0995C23.1102 16.3104 23.7313 13.5267 24.4398 10.7646C24.4902 10.5673 24.4621 10.3582 24.3616 10.1812C24.2611 10.0042 24.0959 9.87301 23.9007 9.81523C20.2062 8.69616 16.4504 7.76291 12.7219 6.76504C11.7616 6.50785 11.3521 7.99598 12.3117 8.25316C16.0408 9.24975 19.796 10.1843 23.4905 11.3034L22.9517 10.3544C21.6658 15.3694 20.6486 20.453 19.6327 25.5282C18.6799 30.2928 17.7739 35.0719 16.6205 39.7925C16.1786 41.7292 15.618 43.6368 14.9417 45.5045L15.8907 44.9654C12.0391 44.0723 8.22825 42.9886 4.40169 41.9953C3.26173 41.6995 2.12048 41.4078 0.977939 41.1202L1.5431 41.8644C1.62411 31.9137 1.75335 21.9649 1.81121 12.0129C1.826 9.48604 1.83372 6.959 1.83436 4.43174L0.857706 5.17436C4.67237 6.21434 8.49283 7.23182 12.3126 8.25316C13.2723 8.51003 13.6818 7.0219 12.7219 6.76504Z" fill="#15C2C4"/>
<path d="M23.2441 12.7084C24.1693 12.9758 25.0895 13.2599 26.0047 13.5606C26.4319 13.7004 26.8585 13.8429 27.2813 13.9952C27.4491 14.0557 27.6153 14.1187 27.7812 14.183C27.9779 14.2592 27.6468 14.1187 27.8107 14.1942C27.8619 14.2183 27.9126 14.2412 27.9625 14.2675L27.5802 13.6014C27.5645 13.8313 27.5394 14.0602 27.5118 14.2891C27.5034 14.3559 27.4947 14.4228 27.4864 14.4897C27.4597 14.7041 27.5108 14.3203 27.4793 14.5427C27.4545 14.717 27.4298 14.8909 27.4037 15.0648C27.2816 15.8788 27.143 16.6902 26.9993 17.5006C26.6058 19.7188 26.1696 21.9264 25.7173 24.1318C24.7323 28.9337 23.6884 33.7321 22.4436 38.4742C22.1935 39.4281 21.9338 40.3803 21.6448 41.3235C21.5355 41.6797 21.4223 42.035 21.2985 42.3863C21.2465 42.5345 21.1928 42.6824 21.1356 42.8287C21.1105 42.893 21.0832 42.9553 21.0587 43.019C21.123 42.8493 21.1037 42.9148 21.0513 43.0296L21.9225 42.676C20.3322 42.2638 18.692 42.0536 17.1158 41.5868C16.1616 41.3042 15.754 42.793 16.7056 43.0749C18.2808 43.5417 19.9204 43.75 21.5123 44.1638C21.6762 44.2074 21.8499 44.1965 22.0071 44.1327C22.1643 44.0689 22.2964 43.9557 22.3835 43.8102C22.9453 42.4608 23.3956 41.0677 23.7299 39.6448C24.3272 37.4343 24.8596 35.2061 25.3736 32.9747C26.4763 28.1847 27.497 23.3731 28.3749 18.5377C28.7147 16.9079 28.9646 15.2606 29.1233 13.6034C29.125 13.4683 29.0905 13.3352 29.0233 13.218C28.9562 13.1008 28.8588 13.0037 28.7414 12.9369C28.0245 12.6004 27.2811 12.3234 26.5187 12.1088C25.5691 11.7965 24.6143 11.5011 23.6543 11.2225C22.6986 10.9463 22.2903 12.4348 23.2441 12.7103V12.7084Z" fill="#15C2C4"/>
<path d="M106.405 4.59066C110.224 3.56836 114.045 2.55184 117.859 1.51314L116.883 0.770205C116.878 10.4673 117.003 20.1644 117.098 29.8608C117.125 32.6416 117.15 35.4223 117.174 38.2029L117.74 37.459C113.542 38.5077 109.366 39.6476 105.174 40.722C104.394 40.922 103.613 41.1219 102.828 41.3042L103.777 41.843C102.369 38.1415 101.604 34.1722 100.793 30.3083C99.725 25.2212 98.7622 20.1129 97.6855 15.0281C97.095 12.2386 96.4736 9.45496 95.7654 6.69281L95.2266 7.64182C98.921 6.52275 102.677 5.5895 106.405 4.59162C107.364 4.33444 106.957 2.84599 105.995 3.1035C102.266 4.10169 98.5108 5.03462 94.8164 6.15401C94.6211 6.21165 94.4559 6.34277 94.3554 6.51977C94.2549 6.69677 94.227 6.90585 94.2775 7.10302C95.5635 12.1181 96.5806 17.2016 97.5962 22.2768C98.5494 27.0402 99.455 31.8202 100.61 36.5399C101.052 38.4766 101.612 40.3842 102.289 42.2519C102.348 42.4461 102.479 42.6102 102.656 42.7104C102.832 42.8106 103.041 42.8394 103.238 42.7907C107.09 41.8976 110.9 40.8139 114.727 39.8206C115.867 39.5244 117.008 39.2327 118.151 38.9455C118.312 38.899 118.455 38.8014 118.557 38.6674C118.659 38.5334 118.715 38.37 118.717 38.2016C118.636 28.2284 118.506 18.2551 118.448 8.28156C118.434 5.77767 118.426 3.27345 118.426 0.768919C118.424 0.650656 118.396 0.534312 118.342 0.428696C118.289 0.32308 118.213 0.230961 118.118 0.159315C118.024 0.0876683 117.915 0.0383728 117.799 0.0151609C117.683 -0.00805106 117.564 -0.00457091 117.449 0.0253378C113.634 1.06404 109.814 2.08023 105.995 3.10253C105.037 3.35907 105.443 4.84817 106.405 4.59066Z" fill="#15C2C4"/>
<path d="M95.0607 7.55794C94.0879 7.8387 93.1189 8.13199 92.1538 8.43783C91.3834 8.64518 90.6314 8.91604 89.9057 9.24763C89.7882 9.31425 89.6907 9.41121 89.6235 9.52839C89.5562 9.64556 89.5217 9.77865 89.5235 9.91374C89.6573 11.334 89.8674 12.7461 90.153 14.1438C90.5529 16.378 90.9972 18.6046 91.4582 20.827C92.4634 25.6742 93.5285 30.518 94.7983 35.3035C95.2288 36.926 95.6319 38.6115 96.3321 40.1443C96.4187 40.2904 96.5508 40.404 96.7081 40.4679C96.8655 40.5317 97.0394 40.5423 97.2033 40.498C98.7937 40.0858 100.434 39.8759 102.01 39.4091C102.96 39.1275 102.557 37.6378 101.6 37.921C100.025 38.3881 98.3851 38.598 96.7931 39.0101L97.6643 39.3638C97.6492 39.3164 97.629 39.2709 97.6042 39.2278C97.7424 39.403 97.6453 39.3297 97.6064 39.2278C97.556 39.0992 97.5065 38.9706 97.4592 38.8388C97.3486 38.5331 97.2473 38.2241 97.1493 37.9142C96.8976 37.1182 96.6713 36.3142 96.4523 35.5089C95.8595 33.3251 95.3272 31.1249 94.815 28.9215C93.704 24.1469 92.674 19.3488 91.7857 14.5276C91.608 13.5632 91.4363 12.5945 91.2846 11.6243C91.2537 11.4263 91.2238 11.228 91.1949 11.0296C91.183 10.947 91.1717 10.864 91.1598 10.7814C91.1386 10.6329 91.1801 10.9495 91.1511 10.7133C91.119 10.4455 91.0869 10.178 91.0672 9.90956L90.685 10.5757C90.7295 10.5479 90.7772 10.5255 90.8271 10.5091C90.6271 10.5515 90.7901 10.5252 90.8457 10.5049C91.0065 10.4467 91.1646 10.3866 91.3251 10.3307C91.7697 10.1757 92.2181 10.0314 92.6669 9.8893C93.5979 9.5944 94.5328 9.31193 95.4715 9.04188C96.4237 8.76702 96.018 7.27761 95.0613 7.55376L95.0607 7.55794Z" fill="#15C2C4"/>
<path d="M35.1492 49.1932C35.6917 47.9264 36.4042 46.7395 37.2671 45.665C38.0454 44.7057 38.9735 43.5384 40.1903 43.1382C40.7347 42.9563 41.3151 42.909 41.8818 43.0004C42.4485 43.0917 42.9846 43.319 43.4443 43.6628C43.8296 43.9974 44.1369 44.4124 44.3444 44.8786C44.5519 45.3447 44.6546 45.8508 44.6454 46.361C44.6539 46.7755 44.5875 47.1882 44.4493 47.5791C44.438 47.6112 44.3644 47.7973 44.3943 47.725C44.4187 47.6652 44.3393 47.8481 44.3194 47.8912C44.2297 48.0841 44.1329 48.277 44.0326 48.4647C43.571 49.3198 43.0536 50.1435 42.4837 50.9305C41.9314 51.7217 41.3118 52.4639 40.632 53.1487C40.4848 53.2934 40.3324 53.4316 40.1765 53.5666C40.1479 53.5917 40.118 53.6155 40.0884 53.6393C39.9897 53.719 40.1701 53.5804 40.0723 53.6524C40.0003 53.7055 39.927 53.7572 39.8511 53.8048C39.3827 54.0889 38.8462 54.2411 38.2984 54.2453C37.738 54.2536 37.1848 54.1184 36.6913 53.8526C36.1979 53.5868 35.7807 53.1992 35.4793 52.7266C35.132 52.1765 34.927 51.5485 34.883 50.8994C34.8389 50.2503 34.9571 49.6004 35.227 49.0084C35.28 48.8111 35.2531 48.6009 35.1522 48.4233C35.0513 48.2458 34.8845 48.1151 34.6879 48.0597C34.4908 48.0103 34.2822 48.0387 34.1055 48.1391C33.9288 48.2394 33.7975 48.4039 33.7389 48.5985C33.4472 49.2936 33.3061 50.0426 33.3249 50.7962C33.3437 51.5498 33.5219 52.2909 33.8478 52.9706C34.4348 54.1715 35.4668 55.0962 36.7248 55.5482C37.3976 55.7807 38.115 55.8546 38.821 55.764C39.5271 55.6735 40.2027 55.4209 40.795 55.0261C41.6455 54.377 42.3995 53.6102 43.0341 52.7488C43.7774 51.8122 44.4542 50.8246 45.0594 49.7934C45.5866 48.9869 45.9512 48.0852 46.1328 47.139C46.2333 46.4404 46.1935 45.7287 46.0156 45.0457C45.8377 44.3627 45.5253 43.7221 45.0967 43.1613C44.6292 42.5983 44.0402 42.1487 43.3739 41.8461C42.7076 41.5435 41.9814 41.3959 41.2499 41.4144C39.3972 41.4398 38.0059 42.5093 36.8135 43.83C35.5723 45.1849 34.5601 46.733 33.8167 48.4133C33.7199 48.5915 33.6947 48.7998 33.7461 48.996C33.7975 49.1921 33.9217 49.3613 34.0935 49.469C34.2704 49.571 34.4803 49.5992 34.6779 49.5476C34.8755 49.496 35.0448 49.3687 35.1492 49.1932Z" fill="#15C2C4"/>
<path d="M43.4765 53.3149C43.906 52.0625 44.5036 50.8743 45.253 49.7828C45.9155 48.809 46.7115 47.6565 47.8373 47.1868C48.3196 46.9651 48.8498 46.8679 49.3794 46.9042C49.909 46.9405 50.421 47.1091 50.8685 47.3946C51.316 47.6802 51.6847 48.0734 51.9408 48.5384C52.1968 49.0034 52.3321 49.5252 52.3342 50.056C52.36 50.4299 52.3206 50.8054 52.2178 51.1658C52.1222 51.4795 52.0076 51.7871 51.8745 52.0868C51.4796 52.9679 51.0276 53.8223 50.5214 54.6445C50.0591 55.4372 49.5252 56.1859 48.9265 56.8814C48.8108 57.01 48.6915 57.1369 48.5664 57.2572C48.5054 57.316 48.4427 57.3726 48.3793 57.4288C48.3472 57.4587 48.3102 57.488 48.2749 57.5163C48.3687 57.4411 48.2893 57.5066 48.2379 57.5391C47.5719 57.979 46.7626 58.1467 45.9766 58.0078C45.1907 57.8688 44.4879 57.4338 44.013 56.7923C43.6443 56.3016 43.4024 55.7275 43.3088 55.1209C43.2152 54.5142 43.2728 53.8939 43.4765 53.3149C43.7771 52.3662 42.287 51.9602 41.9883 52.9047C41.7576 53.5925 41.6725 54.3209 41.7385 55.0435C41.8045 55.766 42.0202 56.4669 42.3719 57.1016C43.017 58.2285 44.0708 59.0641 45.315 59.4355C45.997 59.6247 46.7137 59.652 47.408 59.5153C48.1024 59.3785 48.7552 59.0815 49.3145 58.6479C50.0875 57.9705 50.7537 57.1803 51.2907 56.304C51.9235 55.366 52.4877 54.3835 52.9787 53.3641C53.4433 52.5154 53.7463 51.5879 53.8725 50.6286C53.9206 49.9417 53.8313 49.252 53.6096 48.6001C53.388 47.9481 53.0385 47.3469 52.5817 46.8316C52.0801 46.3084 51.464 45.9087 50.7818 45.6637C50.0996 45.4188 49.3699 45.3354 48.65 45.42C47.7985 45.5015 46.9842 45.8095 46.292 46.3121C45.6043 46.8587 44.9975 47.4999 44.4894 48.2165C43.4063 49.633 42.5612 51.2164 41.9874 52.9047C41.6688 53.8463 43.1588 54.252 43.4765 53.3149Z" fill="#15C2C4"/>
<path d="M50.5892 58.972C50.7385 58.2179 50.9786 57.4847 51.3042 56.7882C51.6051 56.058 52.0213 55.3808 52.537 54.7825C53.5336 53.7249 55.4837 53.6754 56.2662 54.9999C57.0487 56.3243 56.7841 57.6575 56.3061 58.9968C55.8238 60.3448 55.068 62.0509 53.4693 62.2614C53.0723 62.3018 52.6712 62.2482 52.2987 62.1051C51.9261 61.962 51.5924 61.7333 51.3244 61.4375C51.0198 61.1112 50.7948 60.7188 50.667 60.2911C50.5392 59.8634 50.512 59.412 50.5876 58.972C50.6358 58.7749 50.6068 58.5669 50.5067 58.3904C50.4065 58.214 50.2427 58.0824 50.0488 58.0227C49.8515 57.97 49.6413 57.9969 49.4637 58.0978C49.2861 58.1987 49.1553 58.3653 49.0995 58.5618C48.9182 59.6848 49.0416 60.9768 49.7325 61.9216C50.3286 62.7983 51.2227 63.4288 52.2487 63.6959C52.8177 63.8339 53.4102 63.8444 53.9838 63.7268C54.5574 63.6091 55.0979 63.3662 55.5667 63.0153C56.3176 62.3733 56.9053 61.5621 57.2814 60.6486C58.1073 58.8878 58.7014 56.8905 57.9626 54.9947C57.7949 54.4914 57.5224 54.0295 57.163 53.6394C56.8035 53.2492 56.3654 52.9398 55.8775 52.7315C55.3434 52.53 54.7739 52.4387 54.2035 52.4631C53.6331 52.4875 53.0736 52.6272 52.5586 52.8736C51.5102 53.3645 50.8126 54.3794 50.2848 55.3718C49.7331 56.3702 49.3336 57.4454 49.0995 58.5618C49.0506 58.759 49.0793 58.9674 49.1796 59.144C49.2799 59.3206 49.4442 59.4519 49.6386 59.5108C49.8361 59.5639 50.0465 59.5371 50.2243 59.4363C50.4022 59.3355 50.5333 59.1687 50.5892 58.972Z" fill="#15C2C4"/>
<path d="M27.341 47.0147C27.1405 46.3594 27.1455 45.6583 27.3555 45.0058C27.5278 44.3854 27.7615 43.9244 28.3295 43.6672C29.3702 43.1962 30.8416 43.5842 31.7581 44.2851C32.8457 45.1164 34.0676 46.3483 33.7944 47.8471C33.7411 48.147 33.6321 48.4344 33.4729 48.6942C33.3686 48.8838 33.2125 49.0399 33.0228 49.1442C32.4285 49.4065 31.7853 49.5393 31.1357 49.5339C30.3865 49.5788 29.6427 49.3818 29.014 48.9719C28.2667 48.5098 27.6823 47.8259 27.3423 47.0157C27.2827 46.8218 27.1513 46.6579 26.9748 46.5577C26.7984 46.4575 26.5904 46.4284 26.3933 46.4766C26.1967 46.5322 26.0299 46.663 25.9291 46.8407C25.8283 47.0184 25.8014 47.2286 25.8545 47.4259C26.6321 49.3654 28.4009 50.8963 30.5307 51.0651C31.4528 51.1407 32.3804 51.0219 33.2536 50.7163C33.6641 50.5709 34.0381 50.3383 34.35 50.0344C34.6618 49.7306 34.9041 49.3627 35.06 48.9562C35.2758 48.4197 35.3773 47.8441 35.3581 47.2662C35.3388 46.6883 35.1992 46.1208 34.9481 45.5999C34.5311 44.809 33.9591 44.1101 33.2662 43.545C31.9063 42.3234 30.0044 41.5695 28.171 42.0929C27.6646 42.2406 27.202 42.5097 26.8232 42.8768C26.4444 43.244 26.161 43.698 25.9975 44.1996C25.5862 45.2279 25.5358 46.3652 25.8545 47.4259C25.9134 47.6203 26.0447 47.7846 26.2213 47.8849C26.398 47.9852 26.6064 48.0138 26.8035 47.9647C26.9998 47.9085 27.1661 47.7775 27.2667 47.5998C27.3672 47.422 27.3939 47.2119 27.341 47.0147Z" fill="#15C2C4"/>
<path d="M72.7137 41.4067L72.6902 41.389L72.8464 41.5096C72.6659 41.3671 72.5039 41.2026 72.3642 41.02L72.4848 41.1762C72.2362 40.845 72.031 40.4834 71.874 40.1002L71.9517 40.2844C71.8784 40.1092 71.814 39.9303 71.7589 39.7485C71.7024 39.5561 71.5764 39.3917 71.4052 39.2872C71.2727 39.2097 71.1202 39.1735 70.967 39.1832C70.8138 39.1929 70.667 39.248 70.5453 39.3416C70.4237 39.4352 70.3327 39.5629 70.284 39.7085C70.2353 39.854 70.2311 40.0108 70.272 40.1587C70.4018 40.5852 70.5747 40.9974 70.7883 41.3887C70.9325 41.6471 71.0983 41.8929 71.284 42.1233C71.4734 42.3564 71.6928 42.5635 71.9363 42.7392C72.0253 42.791 72.1237 42.8245 72.2257 42.8378C72.3278 42.8511 72.4315 42.8439 72.5307 42.8167C72.6284 42.7898 72.7199 42.7439 72.7998 42.6816C72.8798 42.6194 72.9467 42.542 72.9967 42.4538C73.0467 42.3657 73.0789 42.2686 73.0914 42.168C73.1039 42.0674 73.0965 41.9654 73.0695 41.8677L72.9917 41.6835C72.9248 41.569 72.8295 41.4736 72.7149 41.4067H72.7137Z" fill="#15C2C4"/>
</svg>
