<svg width="106" height="90" viewBox="0 0 106 90" fill="none" xmlns="http://www.w3.org/2000/svg">
<path d="M77.1682 50.2551L77.1682 50.2551L81.5432 55.876C82.1562 56.6642 82.3726 57.6914 82.1302 58.6613L82.1301 58.6615L80.7969 63.9999L80.7968 64.0003C80.6861 64.4441 80.6921 64.909 80.8141 65.3498C80.9361 65.7905 81.17 66.1923 81.4931 66.516L81.4938 66.5167L87.4825 72.5059L87.4829 72.5063C87.807 72.83 88.2094 73.0644 88.6509 73.1864C89.0925 73.3085 89.5581 73.3141 90.0024 73.2027C90.0024 73.2027 90.0025 73.2027 90.0025 73.2027L95.3373 71.8695L95.3375 71.8695C95.8159 71.7498 96.3152 71.7406 96.7978 71.8423C97.2803 71.944 97.7334 72.1542 98.1228 72.4568L103.743 76.8295C103.743 76.8295 103.743 76.8295 103.743 76.8295C105.29 78.0329 105.43 80.3169 104.048 81.6973L104.047 81.6978L101.527 84.2183C99.9624 85.7829 97.6617 86.4356 95.5538 85.6933L95.5536 85.6933C89.2633 83.4798 83.552 79.8784 78.8434 75.1562L78.8414 75.1542C74.12 70.4461 70.5189 64.7353 68.3053 58.4455C67.5652 56.3395 68.218 54.0358 69.7825 52.4712L72.3023 49.9512C72.3024 49.9511 72.3025 49.951 72.3026 49.9509C72.6288 49.6253 73.0204 49.3727 73.4515 49.2099C73.8827 49.047 74.3437 48.9776 74.8037 49.0063C75.2638 49.0351 75.7126 49.1613 76.1202 49.3765C76.5278 49.5918 76.8851 49.8913 77.1682 50.2551Z" stroke="#15C2C4" stroke-width="2"/>
<rect x="1" y="49" width="31.5663" height="39.0255" rx="2" stroke="#15C2C4" stroke-width="2" stroke-linejoin="round"/>
<line x1="6.92383" y1="54.8557" x2="27.6304" y2="54.8557" stroke="#15C2C4" stroke-width="2" stroke-linecap="round"/>
<line x1="6.92383" y1="60.0933" x2="22.6942" y2="60.0933" stroke="#15C2C4" stroke-width="2" stroke-linecap="round"/>
<line x1="6.92383" y1="65.3306" x2="22.6942" y2="65.3306" stroke="#15C2C4" stroke-width="2" stroke-linecap="round"/>
<line x1="6.92383" y1="70.5681" x2="22.6942" y2="70.5681" stroke="#15C2C4" stroke-width="2" stroke-linecap="round"/>
<path d="M25.8524 3.91693L25.8466 24.0312V28.9964V31.1793C25.803 32.0151 25.8205 32.8529 25.8991 33.686C26.0057 34.3734 26.2927 35.0201 26.7308 35.5604C27.169 36.1006 27.7426 36.5149 28.3932 36.7611C29.4142 37.1563 30.6297 37.0119 31.7056 37.0124C42.4435 37.016 53.1818 37.0199 63.9204 37.0241H70.9881C72.1963 37.0241 73.4283 37.1213 74.5066 36.4635C75.1041 36.0895 75.5933 35.5658 75.9259 34.9444C76.2585 34.3229 76.4229 33.6253 76.4028 32.9208C76.4475 26.2656 76.4028 19.6085 76.4071 12.9534C76.4071 11.3043 76.4071 9.65535 76.4071 8.00658C76.4071 7.21867 76.4071 6.43059 76.4071 5.64234C76.446 4.87525 76.4286 4.10634 76.3551 3.34179C76.2484 2.65473 75.9614 2.00826 75.5233 1.46831C75.0852 0.928367 74.5118 0.514261 73.8614 0.268232C72.9207 -0.0968814 71.8399 0.0168821 70.8471 0.016396L57.2163 0.0120205L41.2008 0.00618643H34.1409H31.1752C30.0443 0.00618643 28.9163 -0.066739 27.8851 0.48798C27.2747 0.830926 26.7655 1.32877 26.4089 1.93129C26.0522 2.53382 25.8608 3.21973 25.8538 3.91985C25.8188 5.17173 27.7636 5.17076 27.7986 3.91985C27.8048 3.39916 28.0142 2.90149 28.3821 2.533C28.7501 2.16452 29.2474 1.9544 29.7681 1.94746C30.6267 1.9144 31.4936 1.94746 32.3532 1.94746H38.7116L53.8806 1.95232L67.8235 1.95718H70.5734C71.3464 1.95718 72.2969 1.81133 73.0413 2.03546C73.5079 2.17318 73.908 2.47705 74.1658 2.88966C74.4375 3.44572 74.539 4.06963 74.4575 4.68313C74.4575 6.19479 74.4575 7.70613 74.4575 9.21715C74.4546 15.6462 74.4527 22.075 74.4517 28.5035C74.4517 29.9751 74.4595 31.4472 74.4517 32.9189C74.4899 33.442 74.3233 33.9595 73.9871 34.3622C73.6509 34.7648 73.1714 35.0211 72.6499 35.077C71.6658 35.1659 70.6356 35.0813 69.6472 35.0813H66.2876L35.1648 35.0687H31.9633H30.5825C30.0708 35.1195 29.5542 35.0769 29.0578 34.9428C27.8142 34.4693 27.7894 33.282 27.7898 32.1478V27.5744C27.7898 21.1476 27.7918 14.7206 27.7957 8.29342V3.9179C27.7976 2.66553 25.8529 2.66359 25.8524 3.91693Z" fill="#15C2C4"/>
<path d="M30.7847 7.51173C35.7814 11.9352 40.8624 16.2603 46.0277 20.4871C46.6072 20.9606 47.1882 21.4325 47.7706 21.9028C48.3909 22.4675 49.0491 22.9891 49.7407 23.4639C50.0563 23.6481 50.4067 23.7648 50.7697 23.8066C51.1327 23.8485 51.5005 23.8145 51.8497 23.707C52.6588 23.4605 53.3569 22.7288 54.0094 22.214C56.7969 20.0081 59.5438 17.7532 62.2503 15.4494C65.358 12.817 68.4294 10.143 71.4645 7.42762C72.4009 6.59287 71.0216 5.22188 70.0896 6.05225C64.9715 10.6135 59.7824 15.095 54.4411 19.3971C53.8405 19.8804 53.2381 20.3612 52.634 20.8396C52.2329 21.157 51.5415 21.9626 50.9809 21.8819C50.6844 21.7832 50.418 21.6103 50.2069 21.3797C49.9074 21.1402 49.6084 20.8999 49.3099 20.6587C48.7009 20.167 48.093 19.6737 47.4862 19.1788C45.03 17.1735 42.5942 15.143 40.1788 13.0871C37.4831 10.7963 34.81 8.47888 32.1597 6.1349C31.2257 5.30841 29.8449 6.67844 30.7847 7.50979V7.51173Z" fill="#15C2C4"/>
</svg>
