<svg width="108" height="78" viewBox="0 0 108 78" fill="none" xmlns="http://www.w3.org/2000/svg">
<path d="M13.0349 40.7108C13.031 29.6258 13.0251 15.0123 13.0212 5.40397C13.0206 4.87397 13.1245 4.34905 13.3269 3.85924C13.5293 3.36942 13.8263 2.92431 14.2009 2.54936C14.5755 2.17441 15.0204 1.87699 15.51 1.67409C15.9997 1.47119 16.5245 1.3668 17.0545 1.36688L90.1732 1.34204C90.7034 1.34178 91.2283 1.44602 91.7182 1.64878C92.208 1.85155 92.653 2.14888 93.0279 2.52375C93.4027 2.89863 93.7 3.34371 93.9027 3.83354C94.1054 4.32338 94.2095 4.84836 94.2092 5.37848C94.2092 18.2872 94.2144 38.7158 94.2196 51.8102C96.9096 55.5904 102.684 63.5502 105.5 68.3632C105.776 68.8382 105.919 69.3778 105.917 69.9268C105.917 70.4183 105.906 72.7114 105.906 73.3259C105.905 73.9505 105.656 74.549 105.213 74.9902C104.771 75.4313 104.172 75.6791 103.547 75.6791H3.30332C3.0451 75.6792 2.78939 75.6284 2.55079 75.5297C2.31219 75.4309 2.09538 75.2862 1.91273 75.1036C1.73008 74.9211 1.58517 74.7044 1.48627 74.4659C1.38738 74.2274 1.33643 73.9717 1.33634 73.7135C1.33634 70.6791 1.32523 72.9069 1.32523 69.9222C1.3226 69.3733 1.4661 68.8337 1.74098 68.3586C4.58718 63.494 10.3868 55.2812 13.0395 51.5592C13.0382 48.8183 13.0369 45.0329 13.0349 40.7108Z" fill="white"/>
<path d="M87.7923 55.814C88.1234 55.814 88.4497 55.894 88.7433 56.0473C89.0368 56.2006 89.2889 56.4227 89.4781 56.6945C90.3966 58.0057 91.3647 59.417 92.289 60.8368C92.4907 61.1483 92.6047 61.5084 92.6189 61.8791C92.633 62.2499 92.5469 62.6177 92.3695 62.9436C92.1922 63.2695 91.9301 63.5416 91.6111 63.731C91.2921 63.9205 90.9278 64.0204 90.5567 64.0202H16.6817C16.3106 64.0205 15.9463 63.9207 15.6272 63.7312C15.3081 63.5417 15.0461 63.2696 14.8688 62.9437C14.6914 62.6177 14.6054 62.2499 14.6197 61.8791C14.634 61.5082 14.7481 61.1482 14.95 60.8368C15.875 59.4164 16.8458 58.0051 17.7609 56.6932C17.9502 56.4212 18.2024 56.199 18.496 56.0456C18.7897 55.8921 19.1161 55.812 19.4475 55.812C34.1158 55.812 73.1265 55.812 87.7942 55.812" fill="#15C2C4"/>
<path d="M88.3519 57.354C89.1258 58.4613 89.892 59.5765 90.6398 60.6995C90.9725 61.2002 91.7177 61.9781 91.0562 62.5298C90.8566 62.6759 90.6088 62.7404 90.3633 62.7102C89.6579 62.7259 88.9506 62.7102 88.2453 62.7102H17.421C16.8432 62.7102 15.9293 62.8181 15.9175 61.9696C15.9727 61.6441 16.1204 61.3414 16.3431 61.0976C16.7497 60.4797 17.1617 59.8652 17.5792 59.2542C18.0414 58.577 18.6023 57.186 19.5168 57.1193C20.7412 57.0304 22.0054 57.1193 23.2331 57.1193H83.3471C85.0291 57.1193 85.0324 54.5047 83.3471 54.5047H21.5335C19.8384 54.5047 18.0283 54.2909 16.8373 55.7689C15.9594 56.8579 15.2083 58.0829 14.4336 59.2471C13.7924 60.2106 13.2001 61.1146 13.3387 62.3193C13.4376 63.142 13.8323 63.9006 14.4491 64.4538C15.066 65.007 15.863 65.3171 16.6915 65.3262C17.1949 65.3465 17.7034 65.3262 18.2068 65.3262H90.0691C91.8674 65.3262 93.5671 64.4405 93.8802 62.4932C93.9359 61.9616 93.8854 61.4242 93.7316 60.9123C93.5779 60.4004 93.324 59.9241 92.9846 59.5111C92.21 58.3404 91.4157 57.1841 90.6097 56.0336C89.6521 54.6642 87.3844 55.9695 88.3519 57.354Z" fill="#FCEB3B"/>
<path d="M17.9893 7.54352C17.9919 14.0515 17.9947 20.5597 17.9978 27.0681C18.0004 33.3542 18.0032 39.6406 18.0063 45.9272C18.0063 47.2267 18.0063 48.526 18.0063 49.8251C18.011 50.1703 18.1503 50.5001 18.3944 50.7443C18.6386 50.9884 18.9684 51.1277 19.3137 51.1324L44.517 51.1233L76.1095 51.1122C80.0535 51.1122 83.9975 51.1108 87.9415 51.1082C88.2867 51.1032 88.6162 50.9638 88.8603 50.7197C89.1044 50.4756 89.2438 50.146 89.2489 49.8009C89.2445 38.427 89.2395 27.0531 89.2338 15.6791L89.2299 7.51999C89.225 7.17479 89.0857 6.8451 88.8416 6.60097C88.5974 6.35685 88.2677 6.21755 87.9225 6.21265H82.0804L67.684 6.21787L49.4328 6.22376L32.0235 6.22964L20.1543 6.23356H19.2967C17.6147 6.23356 17.6114 8.84826 19.2967 8.84826L30.1435 8.84498L47.1167 8.83976L65.5203 8.83322L80.6547 8.82799H85.5287C86.2929 8.86982 87.0589 8.86982 87.8232 8.82799C87.8571 8.82603 87.8912 8.82603 87.9251 8.82799L86.6177 7.52064C86.623 18.5377 86.628 29.5544 86.6328 40.571L86.6367 49.8009L87.9441 48.4935C79.6286 48.4935 71.3129 48.4964 62.997 48.502L31.3325 48.5131L19.3156 48.5177L20.623 49.8251C20.62 46.1645 20.6182 42.5039 20.6178 38.8434C20.6143 31.7645 20.6112 24.6859 20.6086 17.6075C20.6086 14.252 20.6071 10.8964 20.604 7.54091C20.6034 5.86097 17.9886 5.85835 17.9893 7.54352Z" fill="#15C2C4"/>
<path d="M14.3419 40.7113C14.3393 33.1335 14.3365 25.5554 14.3334 17.9772C14.3334 14.4473 14.3319 10.9175 14.3288 7.38765C14.3288 6.00775 14.0726 4.43043 15.2015 3.39697C16.0958 2.57923 17.192 2.67205 18.3151 2.6714L50.745 2.66094L86.0323 2.64852H89.3119C90.5827 2.64852 91.7456 2.75376 92.4928 3.93822C93.2236 5.09718 92.9014 6.85099 92.9014 8.15833V13.0315C92.9014 20.3204 92.9029 27.6097 92.9059 34.8995C92.9059 38.4398 92.9059 41.98 92.9059 45.5203V50.317C92.9059 51.0694 92.7673 51.9342 93.1746 52.5951C93.5099 53.1389 93.925 53.6462 94.2963 54.1639C96.1731 56.7897 98.0453 59.4188 99.8698 62.0812C100.81 63.4539 101.739 64.8318 102.639 66.2294C103.023 66.8255 103.401 67.4254 103.772 68.0289C104.227 68.5962 104.516 69.2795 104.604 70.0017C104.62 71.0934 104.682 72.2347 104.593 73.3217C104.511 74.3304 103.671 74.3676 102.873 74.3676H4.05269C3.44279 74.3676 2.77014 74.4794 2.64201 73.7094C2.57921 72.9224 2.57594 72.1318 2.63221 71.3444C2.53913 70.6271 2.58552 69.8987 2.76883 69.199C3.09314 68.5535 3.46457 67.9328 3.88012 67.3419C5.62026 64.5383 7.47545 61.8047 9.34503 59.0873C10.2489 57.7748 11.1599 56.4674 12.0781 55.1653C12.4538 54.631 12.8305 54.0976 13.2084 53.5651C13.6565 53.0726 14.024 52.5125 14.2974 51.9054C14.4093 51.1259 14.4247 50.3355 14.3432 49.5522V46.9957C14.3432 44.8987 14.3432 42.8019 14.3432 40.7054C14.3432 39.0228 11.7284 39.0202 11.7284 40.7054C11.7284 44.3224 11.7299 47.9394 11.733 51.5564L11.9114 50.8968C9.95951 53.6383 8.03175 56.3968 6.12818 59.1723C5.08619 60.7006 4.05945 62.2389 3.04796 63.7873C2.01267 65.1907 1.11037 66.6876 0.352762 68.2584C-0.11594 69.42 0.0128387 70.7096 0.0259127 71.9405C0.0416014 73.6401 -0.104827 75.3448 1.48235 76.4306C2.73222 77.2863 4.68547 76.9882 6.14649 76.9882H102.094C102.845 77.0386 103.598 77.0088 104.342 76.8993C106.315 76.4613 107.209 74.7252 107.214 72.8465C107.218 71.462 107.439 69.8442 106.992 68.5113C106.67 67.7231 106.259 66.9743 105.767 66.2797C105.282 65.4999 104.786 64.7279 104.281 63.9605C102.221 60.8228 100.057 57.7571 97.8812 54.7012C97.038 53.5176 96.1936 52.3347 95.3481 51.1524L95.5266 51.812C95.5218 39.2104 95.5183 26.6089 95.5162 14.0074C95.5162 11.2005 95.5358 8.39365 95.5162 5.58678C95.5289 4.85388 95.3939 4.12593 95.1191 3.44637C94.8443 2.76681 94.4354 2.14959 93.9168 1.63155C93.3982 1.11351 92.7805 0.705274 92.1006 0.431214C91.4208 0.157154 90.6926 0.0228901 89.9597 0.0364374C85.6453 0.0109441 81.3309 0.0364398 77.0165 0.0410155L43.7498 0.0521269L28.4422 0.0573584H21.913C20.1637 0.0573584 18.3386 -0.0884109 16.5972 0.0848125C15.831 0.156087 15.0888 0.389688 14.42 0.770079C13.7512 1.15047 13.171 1.66893 12.7181 2.29096C11.814 3.52379 11.7114 4.90566 11.7121 6.381C11.7121 9.44368 11.7121 12.5061 11.7121 15.5684L11.7199 35.9767V40.7106C11.7278 42.3938 14.3426 42.3964 14.3419 40.7113Z" fill="#15C2C4"/>
<path d="M96.3479 68.2923H21.4047C17.959 68.2923 14.4866 68.1675 11.0429 68.2923C10.9932 68.2923 10.9442 68.2923 10.8945 68.2923C9.21257 68.2923 9.2093 70.907 10.8945 70.907H85.8384C89.284 70.907 92.7558 71.0312 96.2002 70.907C96.2492 70.907 96.2989 70.907 96.3479 70.907C98.0305 70.907 98.0331 68.2923 96.3479 68.2923Z" fill="#15C2C4"/>
</svg>
