<svg width="194" height="151" viewBox="0 0 194 151" fill="none" xmlns="http://www.w3.org/2000/svg">
<g clip-path="url(#clip0_657_17977)">
<path d="M157.389 138.962C157.927 136.197 158.274 133.399 158.428 130.586C158.666 126.013 157.834 119.422 157.309 116.157C154.986 116.157 146.936 116.346 144.511 116.346C139.979 116.346 137.611 116.346 132.28 116.231C131.725 120.994 131.493 125.789 131.585 130.584C131.649 133.188 131.78 135.915 131.95 138.686L157.389 138.962Z" fill="white"/>
<path d="M137.128 65.4167C137.063 65.2445 136.937 65.1024 136.775 65.0171C136.612 64.9318 136.425 64.9091 136.247 64.9534C134.72 65.3417 132.378 65.0735 130.673 64.4111C129.632 63.9932 128.792 63.1843 128.329 62.1545C127.574 60.6546 127.27 57.8718 127.226 56.6345C127.098 56.0803 126.836 55.5664 126.465 55.1377C125.873 54.4702 124.912 53.9452 125.427 52.8155C125.639 52.396 125.983 52.0592 126.405 51.8583C128.496 50.7627 128.637 47.5932 128.744 45.3095C128.708 44.2502 128.769 43.1897 128.925 42.1415C129.119 41.0033 129.419 39.886 129.82 38.804L129.913 38.9218C131.705 41.1825 133.748 43.2295 136 45.0233C137.207 45.9264 141.151 48.8179 143.362 49.5035L144.194 49.7607C144.526 49.3596 144.951 49.0472 145.431 48.8509C145.719 48.7333 146.029 48.6846 146.339 48.7086C146.648 48.7326 146.948 48.8286 147.215 48.9891C147.998 49.5058 148.199 50.5817 148.128 51.5225C148.023 52.6929 147.617 53.8154 146.951 54.7798C146.286 55.7442 145.382 56.5173 144.331 57.0229C144.876 58.7989 145.443 60.6133 145.408 62.4498C145.412 63.884 144.916 65.274 144.006 66.3764C143.456 67.0046 145.861 67.9313 146.995 68.2175C148.345 68.5317 149.901 68.6919 151.014 67.9819C151.307 67.7931 151.567 67.5559 151.783 67.2803C152.295 68.8426 146.039 72.8929 145.382 73.2357C142.951 74.504 136.85 75.7621 135.433 74.5935C136.387 73.2785 137.25 70.7828 138.011 69.0323C138.355 67.4813 137.661 66.3944 137.132 65.4316" fill="white"/>
<path d="M125.159 88.4733C126.018 86.5475 126.462 84.4596 126.46 82.3478L126.403 82.0569C126.429 80.8514 122.966 80.3928 119.979 80.3182C116.217 80.2239 112.909 80.6072 112.707 81.9878C112.629 85.0819 112.741 87.1752 113.631 89.0214C114.59 91.0102 116.554 92.1796 119.164 92.1796C122.047 92.1796 123.521 91.1532 124.541 89.5951C124.774 89.2371 124.981 88.8621 125.159 88.4733Z" fill="white"/>
<path d="M125.681 82.3487C125.699 84.1853 125.348 86.0064 124.649 87.7026C124.116 89.0125 123.309 90.2509 122.005 90.8717C120.454 91.5307 118.719 91.6076 117.116 91.0885C116.404 90.8546 115.755 90.4552 115.223 89.9226C114.691 89.3899 114.29 88.7387 114.052 88.0214C113.372 86.1021 113.437 83.9959 113.486 81.9886C113.51 80.9775 111.953 80.9779 111.929 81.9886C111.837 85.7334 111.961 90.4971 115.9 92.288C117.813 93.1131 119.956 93.2153 121.938 92.5758C122.746 92.2934 123.49 91.8524 124.127 91.2783C124.765 90.7041 125.284 90.0082 125.653 89.2308C126.727 87.1005 127.271 84.7384 127.237 82.3487C127.218 81.3392 125.66 81.3356 125.68 82.3487H125.681Z" fill="#15C2C4"/>
<path d="M119.98 81.1042C121.456 81.104 122.926 81.2641 124.368 81.5816C124.636 81.6427 124.899 81.7242 125.156 81.8255C125.231 81.8571 125.306 81.8929 125.378 81.9327C125.425 81.9586 125.639 82.0976 125.565 82.0454C125.599 82.0693 125.633 82.1325 125.668 82.1482C125.61 82.1223 125.659 82.0756 125.643 82.1259C125.623 82.1902 125.643 81.9358 125.643 81.8922C125.643 81.9401 125.557 82.0705 125.624 81.9652C125.698 81.8475 125.574 82.0403 125.554 82.0681C125.476 82.1789 125.661 81.9613 125.56 82.056C125.513 82.1003 125.466 82.1482 125.42 82.1938C125.328 82.2841 125.552 82.1152 125.392 82.2158C125.329 82.255 125.269 82.2978 125.204 82.3336C125.139 82.3693 125.084 82.3999 125.023 82.4313C124.987 82.4498 124.813 82.5279 124.89 82.4953C124.966 82.4627 124.779 82.537 124.739 82.5515C124.653 82.5829 124.565 82.612 124.478 82.6391C123.749 82.8588 122.997 82.9906 122.237 83.0317C120.43 83.164 118.613 83.0928 116.821 82.8193C116.045 82.7087 115.28 82.5361 114.531 82.3029C114.388 82.2566 114.248 82.2048 114.107 82.1514C113.936 82.087 114.172 82.1863 114.051 82.1282C113.987 82.0972 113.921 82.0677 113.857 82.034C113.757 81.9821 113.666 81.9197 113.57 81.8628C113.457 81.7956 113.704 81.9786 113.581 81.8714C113.54 81.8349 113.506 81.7929 113.465 81.7536C113.535 81.8176 113.573 81.8981 113.497 81.7791C113.549 81.86 113.549 81.9684 113.528 81.8302C113.541 81.9177 113.521 82.0179 113.533 82.0984C113.525 82.0457 113.521 82.0139 113.519 82.0984C113.535 82.0561 113.557 82.0164 113.585 81.9806C113.533 82.0418 113.55 82.0198 113.593 81.9739C113.952 81.6928 114.374 81.5067 114.822 81.4328C116.49 81.0272 118.276 81.0637 119.98 81.103C120.982 81.1261 120.982 79.5555 119.98 79.5323C118.175 79.4332 116.364 79.5491 114.586 79.8775C113.56 80.1025 112.019 80.6628 111.992 81.9566C111.96 83.4809 114.389 83.9446 115.471 84.1669C117.591 84.6002 119.757 84.7541 121.916 84.6247C123.498 84.5289 125.815 84.364 126.842 82.9363C127.001 82.7404 127.106 82.5055 127.146 82.2555C127.186 82.0055 127.159 81.7492 127.069 81.5129C126.811 80.8764 126.174 80.545 125.569 80.3118C123.838 79.6443 121.811 79.5842 119.98 79.5343C118.978 79.5064 118.978 81.0771 119.98 81.1042Z" fill="#15C2C4"/>
<path d="M135.42 74.5882C136.814 75.7744 142.943 74.5128 145.381 73.2406C145.965 72.9366 150.953 69.7153 151.714 67.9004L151.986 67.8694C152.92 70.8324 156.135 74.267 157.486 78.6855L157.804 87.9311C157.619 89.0977 157.406 90.3655 157.181 91.8211C156.999 92.9284 156.552 94.951 156.354 95.9048C155.786 98.6416 155.38 101.191 155.854 103.965C156.274 106.408 158.118 113.799 157.826 116.164C156.68 116.114 147.181 116.344 144.509 116.344C139.976 116.344 137.608 116.344 132.273 116.231C132.716 111.889 133.321 104.795 132.015 100.623C130.697 96.4078 128.552 91.8541 129.485 87.2985C130.263 83.5066 132.819 77.4275 135.28 74.4401C135.321 74.4945 135.368 74.5442 135.42 74.5882Z" fill="white"/>
<path d="M132.354 117.017C139.25 117.165 146.135 117.12 153.031 116.999C154.449 116.974 155.868 116.943 157.287 116.942C158.289 116.942 158.291 115.372 157.287 115.372C151.273 115.376 145.264 115.589 139.249 115.55C136.951 115.535 134.653 115.496 132.354 115.447C131.352 115.425 131.352 116.996 132.354 117.017Z" fill="#15C2C4"/>
<path d="M149.715 57.9649C149.388 59.8057 149.028 61.5605 149.4 63.4228C149.706 64.9573 150.21 66.4412 150.646 67.9412C150.926 68.9094 152.429 68.4976 152.148 67.5238C151.736 66.1027 151.265 64.6966 150.953 63.2493C150.595 61.5868 150.925 60.0295 151.218 58.3803C151.267 58.1796 151.238 57.9675 151.136 57.7878C151.035 57.6081 150.869 57.4744 150.673 57.4144C150.474 57.3609 150.262 57.3885 150.082 57.4913C149.903 57.5942 149.771 57.764 149.715 57.9641L149.715 57.9649Z" fill="#15C2C4"/>
<path d="M136.461 65.833C136.806 66.3817 137.074 66.9764 137.256 67.6C137.333 67.9345 137.349 68.2807 137.301 68.6209C137.209 68.9964 137.073 69.3593 136.896 69.7019C136.375 71.1405 135.738 72.5336 134.991 73.8672C134.461 74.7279 135.809 75.5164 136.336 74.66C137.256 73.1679 137.833 71.4755 138.503 69.8613C138.693 69.4541 138.815 69.0184 138.866 68.5714C138.901 68.1276 138.87 67.6809 138.772 67.2466C138.559 66.4676 138.233 65.7246 137.805 65.0414C137.316 64.1587 135.971 64.9499 136.461 65.8342V65.833Z" fill="#15C2C4"/>
<path d="M144.302 29.6634C147.147 29.7437 149.924 30.5592 152.366 32.032C154.809 33.5047 156.836 35.5853 158.253 38.0746C159.651 40.5223 160.286 43.3373 160.076 46.1539C160.017 46.5336 159.97 46.8418 159.97 46.8418C159.796 48.0045 159.581 49.623 159.396 51.3087C158.316 57.6741 158.858 61.3965 159.149 63.2062C159.387 64.4897 159.4 65.8055 159.188 67.0935C158.82 69.3466 155.63 71.7269 150.906 69.3341L149.279 68.5095C148.508 68.5186 147.74 68.4225 146.995 68.224C145.861 67.9378 143.456 67.0099 144.006 66.3828C144.916 65.2805 145.412 63.8905 145.408 62.4563C145.443 60.6198 144.874 58.8045 144.331 57.0293C145.383 56.5237 146.286 55.7507 146.951 54.7863C147.617 53.8219 148.023 52.6993 148.128 51.529C148.2 50.5866 147.998 49.5123 147.215 48.9956C146.949 48.835 146.649 48.739 146.339 48.7151C146.03 48.6911 145.719 48.7398 145.431 48.8573C144.951 49.0535 144.526 49.3663 144.195 49.7679L143.363 49.5099C141.151 48.8244 137.206 45.9324 136.001 45.0297C133.748 43.236 131.705 41.1889 129.913 38.9282L129.819 38.8073C130.044 38.193 130.306 37.5931 130.603 37.0109C131.414 35.3985 132.546 33.9719 133.928 32.8196C135.309 31.6673 136.911 30.814 138.633 30.3129C139.63 30.0589 140.646 29.8874 141.67 29.8001C142.53 29.7067 143.393 29.6569 144.258 29.6509L144.302 29.6634Z" fill="#15C2C4"/>
<path d="M144.549 50.5623C145.029 49.943 146.025 49.0517 146.841 49.6827C147.511 50.1998 147.417 51.3684 147.27 52.0964C147.069 53.0575 146.641 53.9553 146.022 54.7133C145.402 55.4712 144.61 56.0667 143.713 56.449C143.536 56.5549 143.407 56.7271 143.355 56.9282C143.303 57.1293 143.331 57.3431 143.434 57.5233C143.542 57.6991 143.712 57.8263 143.911 57.8788C144.109 57.9313 144.32 57.9049 144.499 57.8052C145.716 57.2581 146.765 56.3933 147.54 55.3C148.314 54.2068 148.785 52.9249 148.903 51.5867C149.012 50.3168 148.631 48.7906 147.394 48.1953C145.941 47.4952 144.373 48.2597 143.449 49.4518C143.309 49.6022 143.231 49.8007 143.231 50.007C143.231 50.2133 143.309 50.4119 143.449 50.5623C143.596 50.7083 143.794 50.7901 144 50.7901C144.206 50.7901 144.404 50.7083 144.551 50.5623H144.549Z" fill="#15C2C4"/>
<path d="M128.264 41.4049C127.834 43.7369 128.148 46.1278 127.655 48.4465C127.473 49.3076 127.188 50.2213 126.52 50.8311C126.179 51.1425 125.741 51.3105 125.388 51.6113C125.13 51.8258 124.919 52.0911 124.767 52.3909C124.615 52.6907 124.525 53.0187 124.504 53.3547C124.471 54.4895 125.379 54.9964 125.99 55.7813C126.601 56.5662 126.496 57.6072 126.62 58.5468C126.909 60.7598 127.426 63.1711 129.326 64.5635C130.328 65.2982 131.644 65.5993 132.85 65.7764C133.527 65.8837 134.213 65.9298 134.899 65.9142C135.25 65.902 135.6 65.868 135.946 65.8125C136.077 65.8024 136.206 65.7783 136.332 65.7407C136.445 65.6883 136.483 65.6826 136.444 65.7234C136.363 65.6546 136.367 65.6848 136.456 65.8141C136.903 66.7172 138.247 65.9241 137.801 65.0213C137.165 63.7326 135.846 64.3283 134.751 64.3475C133.577 64.3624 132.409 64.1787 131.295 63.8041C129.193 63.1048 128.583 61.0217 128.251 59.0188C128.176 58.5672 128.118 58.1137 128.075 57.6582C128.067 57.1951 128.02 56.7335 127.937 56.278C127.777 55.7013 127.499 55.1652 127.119 54.7046C126.787 54.3891 126.471 54.0564 126.173 53.7081C126.089 53.5596 126.064 53.3846 126.104 53.2185C126.144 53.0524 126.245 52.9078 126.386 52.814C126.758 52.4743 127.246 52.2929 127.622 51.9419C128.308 51.2465 128.792 50.3756 129.024 49.423C129.722 46.9371 129.305 44.3365 129.769 41.8227C129.952 40.8348 128.451 40.4111 128.268 41.4049H128.264Z" fill="#15C2C4"/>
<path d="M158.553 51.6596C157.965 55.0034 157.836 58.4131 158.17 61.7925C158.343 63.2614 158.65 64.6982 158.523 66.1879C158.416 67.4637 157.958 68.4005 156.789 69.0402C155.066 69.9826 152.96 69.478 151.3 68.6538C150.405 68.2089 149.614 69.5632 150.514 70.01C152.337 70.9151 154.446 71.4629 156.454 70.8637C157.153 70.672 157.803 70.3298 158.359 69.8608C158.915 69.3918 159.363 68.807 159.674 68.1465C160.417 66.4259 160.102 64.3625 159.833 62.5739C159.816 62.4608 159.8 62.3477 159.783 62.2346C159.776 62.1863 159.77 62.1384 159.763 62.0901C159.783 62.2382 159.761 62.0693 159.756 62.0332C159.719 61.7356 159.686 61.4377 159.657 61.1395C159.591 60.4327 159.552 59.7259 159.538 59.0192C159.506 56.6945 159.679 54.3716 160.055 52.0778C160.103 51.877 160.073 51.6652 159.972 51.4857C159.871 51.3062 159.705 51.1724 159.51 51.1118C159.31 51.0581 159.098 51.0856 158.919 51.1885C158.74 51.2914 158.608 51.4613 158.552 51.6615L158.553 51.6596Z" fill="#15C2C4"/>
<path d="M144.258 28.8655C140.952 28.8804 137.535 29.3697 134.727 31.2403C132.29 32.8916 130.401 35.2434 129.305 37.9909C128.566 39.7929 128.113 41.701 127.962 43.6451C127.884 44.6531 129.441 44.648 129.519 43.6451C129.94 38.1479 133.221 32.6719 138.694 31.1076C140.511 30.6333 142.382 30.4074 144.258 30.4361C145.259 30.4314 145.262 28.8608 144.258 28.8655Z" fill="#15C2C4"/>
<path d="M144.303 30.4485C151.972 30.6138 159.356 37.0271 159.349 45.0417C159.304 46.0727 159.191 47.0996 159.01 48.1154C158.829 49.4559 158.668 50.7988 158.529 52.1441C158.53 52.3519 158.613 52.551 158.758 52.698C158.904 52.845 159.102 52.9281 159.308 52.9294C159.513 52.9248 159.708 52.8406 159.853 52.6943C159.998 52.548 160.082 52.3509 160.086 52.1441C160.216 50.8839 160.365 49.6262 160.534 48.371C160.664 47.4082 160.864 46.4411 160.898 45.4697C160.95 43.0895 160.434 40.7317 159.395 38.5942C157.991 35.7451 155.844 33.3354 153.186 31.6236C150.527 29.9118 147.456 28.9626 144.303 28.8779C143.3 28.8563 143.3 30.4273 144.303 30.4485Z" fill="#15C2C4"/>
<path d="M143.624 57.3821C144.184 59.2107 144.814 61.1414 144.589 63.082C144.501 63.8895 144.232 64.6664 143.804 65.3547C143.443 65.9256 142.905 66.3756 143.283 67.1024C143.798 68.0938 145.335 68.5395 146.312 68.8434C147.791 69.3044 149.569 69.5298 151.022 68.8697C152.699 68.108 153.496 66.1502 153.375 64.3813C153.306 63.3784 151.748 63.3706 151.818 64.3813C151.899 65.5687 151.498 66.9508 150.328 67.4707C149.204 67.9702 147.743 67.6568 146.622 67.2956C146.137 67.1466 145.666 66.9556 145.214 66.7246C145.076 66.652 144.812 66.4891 144.747 66.4455C144.713 66.406 144.675 66.3697 144.634 66.3371C144.702 66.3493 144.625 66.4133 144.656 66.3626C144.667 66.3434 144.705 66.5114 144.706 66.5766C144.706 66.7282 144.545 66.8515 144.709 66.7541C144.966 66.506 145.17 66.2076 145.309 65.8773C145.492 65.5414 145.648 65.1911 145.774 64.8297C146.02 64.1149 146.158 63.3667 146.182 62.6104C146.26 60.6801 145.685 58.7867 145.126 56.9647C144.831 56.0019 143.327 56.4127 143.625 57.3821H143.624Z" fill="#15C2C4"/>
<path d="M129.363 39.4805C132.307 43.1607 135.887 46.2735 139.93 48.6687C140.94 49.3262 142.022 49.8614 143.156 50.2633C144.114 50.5696 144.523 49.0539 143.57 48.7488C142.669 48.4262 141.808 48.0019 141.001 47.4841C140.032 46.9065 139.094 46.2794 138.167 45.6319C136.461 44.4514 134.864 43.1196 133.393 41.6523C132.353 40.6181 131.375 39.5218 130.465 38.3693C130.318 38.2231 130.121 38.1411 129.914 38.1411C129.708 38.1411 129.51 38.2231 129.364 38.3693C129.222 38.519 129.144 38.7178 129.144 38.9245C129.144 39.1313 129.222 39.3301 129.364 39.4797L129.363 39.4805Z" fill="#15C2C4"/>
<path d="M152.345 70.5213C153.891 73.279 155.788 75.8375 156.74 78.8936C157.04 79.8544 158.543 79.4433 158.242 78.4762C157.246 75.2803 155.305 72.611 153.69 69.7285C153.197 68.8486 151.851 69.639 152.345 70.5213Z" fill="#15C2C4"/>
<path d="M135.197 75.3845C136.272 75.9861 137.679 75.895 138.858 75.7748C140.445 75.6129 142.011 75.2898 143.533 74.8105C144.531 74.5192 145.486 74.0974 146.375 73.5559C147.451 72.8711 148.491 72.1262 149.494 71.3374C150.532 70.5214 151.837 69.5473 152.388 68.297C152.486 68.1158 152.512 67.9036 152.46 67.7038C152.408 67.5041 152.282 67.3318 152.109 67.2223C151.93 67.1188 151.718 67.0903 151.519 67.1431C151.32 67.1959 151.149 67.3256 151.044 67.5043C150.634 68.4333 149.668 69.1892 148.847 69.8626C147.916 70.6172 146.946 71.3215 145.941 71.9723C144.031 73.2253 141.757 73.797 139.517 74.1237C138.812 74.2318 138.1 74.2826 137.387 74.2757C137.11 74.2774 136.832 74.2553 136.558 74.2097C136.442 74.1861 136.325 74.1579 136.21 74.1241C136.152 74.1072 136.094 74.0848 136.038 74.0644C136.161 74.1111 136.032 74.0546 135.985 74.0283C135.107 73.5379 134.321 74.8921 135.199 75.3845H135.197Z" fill="#15C2C4"/>
<path d="M148.077 78.8677C148.443 78.0331 149.062 77.3366 149.844 76.8777C150.626 76.4189 151.532 76.2211 152.432 76.3127C154.443 76.4737 155.724 78.23 156.542 79.9055C156.984 80.8125 158.328 80.0174 157.887 79.1131C156.797 76.8824 155.023 74.9509 152.432 74.742C151.259 74.6472 150.085 74.9154 149.066 75.5109C148.048 76.1063 147.233 77.0007 146.731 78.0749C146.293 78.978 147.635 79.7763 148.076 78.8677H148.077Z" fill="#15C2C4"/>
<path d="M156.663 79.6741C157.979 84.9184 156.166 90.1345 155.198 95.2665C154.581 98.5393 154.62 102.133 153.226 105.208C152.525 106.755 151.444 107.964 149.74 108.31C148.759 108.511 149.174 110.025 150.154 109.825C153.838 109.072 155.176 105.197 155.773 101.899C156.072 100.248 156.222 98.5692 156.48 96.9416C156.926 94.1294 157.687 91.3816 158.188 88.5804C158.743 85.4807 158.938 82.3371 158.165 79.2551C157.919 78.2759 156.417 78.6909 156.663 79.6725V79.6741Z" fill="#15C2C4"/>
<path d="M145.341 81.186C144.666 83.7923 144.179 86.4444 143.883 89.1216C143.659 91.7124 143.64 94.317 143.826 96.9108C143.886 97.9152 145.444 97.9219 145.383 96.9108C145.201 94.3669 145.215 91.8125 145.426 89.2709C145.709 86.6832 146.182 84.1203 146.842 81.6034C147.084 80.6218 145.583 80.204 145.341 81.186Z" fill="#15C2C4"/>
<path d="M156.534 116.224C157.433 121.76 158.002 127.435 157.469 133.036C157.286 134.955 156.998 136.861 156.638 138.755C156.451 139.742 157.951 140.165 158.14 139.172C158.822 135.816 159.193 132.404 159.248 128.979C159.225 125.961 159.014 122.948 158.618 119.956C158.45 118.57 158.26 117.185 158.034 115.806C157.979 115.606 157.847 115.436 157.667 115.333C157.488 115.23 157.276 115.203 157.077 115.256C156.88 115.316 156.714 115.449 156.612 115.629C156.511 115.809 156.482 116.022 156.532 116.222L156.534 116.224Z" fill="#15C2C4"/>
<path d="M131.524 116.01C130.885 121.673 130.671 127.376 130.885 133.072C130.957 134.945 131.056 136.817 131.171 138.687C131.233 139.691 132.791 139.698 132.728 138.687C132.347 132.487 132.183 126.305 132.684 120.106C132.794 118.739 132.927 117.374 133.082 116.011C133.08 115.803 132.998 115.604 132.852 115.457C132.706 115.31 132.509 115.227 132.303 115.225C132.098 115.23 131.903 115.314 131.758 115.461C131.613 115.607 131.529 115.804 131.524 116.011V116.01Z" fill="#15C2C4"/>
<path d="M157.057 87.7224C156.715 89.8679 156.384 92.0118 155.935 94.1377C155.457 96.4041 154.936 98.6835 154.874 101.009C154.884 102.802 155.106 104.587 155.536 106.327C155.895 108.03 156.262 109.732 156.573 111.446C156.846 112.951 157.208 114.579 157.055 116.118C157.056 116.326 157.139 116.525 157.284 116.672C157.43 116.819 157.627 116.902 157.833 116.904C158.039 116.899 158.234 116.815 158.379 116.669C158.524 116.522 158.608 116.325 158.612 116.118C158.749 114.744 158.46 113.295 158.235 111.946C157.947 110.218 157.586 108.502 157.223 106.789C156.849 105.311 156.59 103.806 156.447 102.288C156.317 99.8972 156.797 97.5522 157.293 95.2285C157.793 92.8768 158.179 90.5134 158.558 88.139C158.606 87.9383 158.577 87.7264 158.475 87.5469C158.374 87.3673 158.208 87.2336 158.013 87.1731C157.813 87.1194 157.601 87.1469 157.422 87.2498C157.243 87.3527 157.111 87.5226 157.055 87.7228L157.057 87.7224Z" fill="#15C2C4"/>
<path d="M134.847 73.7506C133.13 75.7924 131.899 78.2438 130.858 80.6897C129.794 83.1885 128.75 85.8802 128.523 88.6139C128.239 92.03 129.408 95.359 130.499 98.5324C131.003 99.8593 131.4 101.225 131.687 102.616C131.903 103.975 132.015 105.349 132.022 106.726C132.038 109.849 131.867 112.97 131.513 116.073C131.514 116.281 131.597 116.48 131.742 116.627C131.888 116.774 132.085 116.857 132.291 116.858C132.497 116.854 132.692 116.769 132.837 116.623C132.982 116.477 133.066 116.28 133.07 116.073C133.34 113.4 133.56 110.718 133.585 108.03C133.609 105.341 133.471 102.585 132.639 100.008C131.64 96.9131 130.292 93.8213 130.07 90.5363C129.883 87.7685 130.779 85.0933 131.77 82.5493C132.812 79.8733 134.09 77.0694 135.948 74.8607C136.593 74.0946 135.497 72.9783 134.847 73.7502V73.7506Z" fill="#15C2C4"/>
<path d="M119.679 93.7591C119.545 93.4383 119.486 93.0905 119.508 92.743C119.529 92.3955 119.631 92.0579 119.804 91.7566C120.016 91.3319 120.288 90.9403 120.612 90.5939C120.175 90.335 119.855 89.9139 119.722 89.4206C119.491 88.6491 120.223 87.6144 121.084 87.3623C121.824 87.1472 122.611 87.8174 123.316 88.0785C123.349 88.0907 123.382 88.1037 123.416 88.1178L123.715 87.25C124.291 84.9636 128.236 87.0034 129.169 87.8563C130.053 88.664 132.004 91.7212 132.037 92.5749L132.067 93.3771C130.916 95.6122 129.933 97.932 129.129 100.317C127.065 100.175 124.83 100.365 124.156 100.111C123.09 99.7071 121.906 99.4499 120.967 98.8185C120.211 98.2929 119.608 97.5723 119.222 96.7319C119.001 95.9348 119.155 94.6037 119.835 94.0226C119.773 93.9409 119.721 93.8525 119.679 93.7591Z" fill="white"/>
<path d="M132.816 92.5736C132.755 91.6972 132.222 90.8487 131.786 90.114C131.269 89.2125 130.667 88.3631 129.99 87.5774C129.463 87.0314 128.84 86.5889 128.152 86.2726C127.289 85.7995 126.338 85.5092 125.359 85.4194C124.834 85.3587 124.305 85.4884 123.867 85.7853C123.428 86.0822 123.108 86.527 122.965 87.0399C122.695 88.0153 124.197 88.4315 124.466 87.4573C124.489 87.359 124.529 87.2653 124.583 87.1805C124.526 87.2641 124.713 87.0599 124.63 87.1298C124.557 87.1923 124.828 87.0191 124.74 87.0599C124.669 87.0929 124.838 87.0293 124.87 87.0207C124.912 87.0097 125.129 86.9814 124.979 86.9947C125.145 86.9819 125.313 86.9833 125.479 86.9991C125.533 87.0039 125.586 87.0117 125.639 87.0226C125.723 87.0383 125.807 87.0563 125.89 87.0764C126.091 87.1247 126.289 87.1848 126.485 87.2523C126.828 87.3704 127.161 87.516 127.481 87.6878C127.78 87.8415 128.069 88.0132 128.347 88.2018C128.409 88.2442 128.469 88.2878 128.529 88.3317C128.653 88.4209 128.446 88.2512 128.547 88.3467C128.647 88.4421 128.747 88.5328 128.84 88.6345C129.37 89.2415 129.842 89.8974 130.25 90.5935C130.511 91.014 130.76 91.4436 130.98 91.8892C131.053 92.026 131.117 92.168 131.17 92.3141C131.198 92.3926 131.219 92.4711 131.246 92.5497C131.31 92.7287 131.255 92.5139 131.259 92.5752C131.264 92.782 131.347 92.9789 131.492 93.1252C131.637 93.2714 131.832 93.3557 132.037 93.3605C132.243 93.3588 132.44 93.2755 132.586 93.1286C132.732 92.9817 132.814 92.7829 132.816 92.5752V92.5736Z" fill="#15C2C4"/>
<path d="M126.191 88.4194C125.349 88.0971 124.534 87.7127 123.694 87.3852C122.985 87.1103 122.209 86.5143 121.354 86.5347C120.912 86.5741 120.487 86.7234 120.117 86.9692C119.747 87.2149 119.443 87.5494 119.233 87.9428C119.016 88.3123 118.907 88.736 118.919 89.1652C118.93 89.5944 119.061 90.0116 119.297 90.369C119.775 91.1194 120.512 91.4417 121.3 91.7602C121.499 91.8141 121.711 91.7867 121.891 91.6837C122.07 91.5808 122.202 91.4108 122.257 91.2105C122.307 91.0096 122.279 90.7971 122.177 90.6172C122.076 90.4372 121.909 90.3037 121.712 90.2445C121.638 90.2143 121.563 90.184 121.488 90.1546C121.313 90.0855 121.514 90.1727 121.381 90.1102C121.249 90.0508 121.12 89.9837 120.996 89.9092C120.8 89.7836 120.641 89.6073 120.536 89.3987C120.517 89.3563 120.443 89.0394 120.458 89.2024C120.455 89.169 120.464 88.9562 120.445 89.1105C120.457 89.0328 120.476 88.9564 120.502 88.8824C120.551 88.7351 120.483 88.8985 120.554 88.7705C120.697 88.4942 120.927 88.2733 121.207 88.1422C121.262 88.1192 121.32 88.1029 121.379 88.0939C121.282 88.1143 121.515 88.1108 121.414 88.0959C121.586 88.125 121.753 88.1799 121.909 88.2588C122.324 88.4583 122.718 88.6825 123.149 88.8478C124.033 89.1871 124.89 89.5939 125.774 89.9308C125.973 89.9844 126.185 89.9568 126.365 89.8539C126.544 89.7511 126.676 89.5812 126.732 89.3811C126.782 89.1802 126.753 88.9676 126.652 88.7875C126.55 88.6075 126.384 88.4741 126.187 88.4151L126.191 88.4194Z" fill="#15C2C4"/>
<path d="M119.97 90.1241C118.944 91.2236 118.213 93.0463 119.163 94.4167L119.285 93.4649C118.417 94.2773 118.156 95.7595 118.459 96.8861C118.771 98.0476 119.908 99.1439 120.92 99.7057C121.566 100.04 122.241 100.312 122.937 100.519C123.443 100.722 123.967 100.874 124.503 100.974C125.458 101.053 126.417 101.075 127.375 101.042C128.686 100.987 129.999 101.129 131.268 101.464C132.226 101.77 132.636 100.255 131.682 99.95C130.389 99.5989 129.052 99.4388 127.713 99.4749C127.08 99.4658 126.446 99.4749 125.813 99.4682C125.538 99.4658 125.263 99.4627 124.989 99.4474C124.876 99.4411 124.764 99.4336 124.651 99.4219C124.476 99.403 124.741 99.4537 124.549 99.4038C123.883 99.2302 123.214 98.9738 122.567 98.7363C121.854 98.4936 121.21 98.0813 120.688 97.5344C120.295 97.1902 120.025 96.7257 119.918 96.2119C119.871 95.9212 119.888 95.6236 119.969 95.3407C120.051 95.0578 120.193 94.7967 120.387 94.5765C120.508 94.4532 120.586 94.2933 120.608 94.1213C120.63 93.9494 120.595 93.7748 120.509 93.6247C119.967 92.8433 120.542 91.8027 121.072 91.2357C121.76 90.5007 120.661 89.3879 119.971 90.1249L119.97 90.1241Z" fill="#15C2C4"/>
<path d="M149.947 109.069C147.991 109.804 142.702 107.468 139.661 106.137C135.547 104.337 130.672 101.779 129.005 100.699C129.732 98.3771 131.907 93.0771 132.713 92.4822C135.54 93.6075 138.378 94.6913 141.418 95.8406C143.1 96.4895 144.823 97.0219 146.577 97.434" fill="white"/>
<path d="M149.74 108.312C148.862 108.621 147.567 108.268 146.577 107.984C145.087 107.537 143.624 107.003 142.196 106.384C139.14 105.106 136.142 103.697 133.203 102.156C131.918 101.484 130.62 100.808 129.398 100.021L129.756 100.908C130.258 99.3553 130.841 97.8304 131.502 96.3394C131.821 95.6075 132.151 94.8787 132.523 94.1719C132.668 93.8971 132.817 93.6246 132.986 93.365C133.025 93.3069 133.209 93.0788 133.081 93.2225C133.136 93.1555 133.197 93.0936 133.264 93.0376L132.506 93.2398C137.057 95.0499 141.616 96.9928 146.37 98.1916C147.343 98.4366 147.757 96.9225 146.784 96.6771C143.059 95.7375 139.504 94.2948 135.926 92.9076C135.451 92.7243 134.976 92.5391 134.502 92.352C133.989 92.1092 133.46 91.9002 132.92 91.7265C132.303 91.5769 131.912 92.1553 131.622 92.6041C130.962 93.7095 130.397 94.8698 129.932 96.0724C129.319 97.5217 128.729 98.9895 128.254 100.492C128.211 100.659 128.223 100.836 128.287 100.996C128.351 101.155 128.465 101.29 128.612 101.379C131.224 103.062 134.088 104.415 136.891 105.735C139.832 107.12 142.853 108.523 145.973 109.446C147.243 109.821 148.847 110.287 150.154 109.828C151.094 109.497 150.69 107.979 149.74 108.313V108.312Z" fill="#15C2C4"/>
<path d="M127.472 58.9952C128.645 59.1684 129.998 59.113 130.948 58.3057C131.093 58.158 131.175 57.9584 131.175 57.7505C131.175 57.5425 131.093 57.343 130.948 57.1953C130.8 57.0528 130.602 56.9734 130.397 56.9734C130.192 56.9734 129.995 57.0528 129.847 57.1953C129.73 57.2938 130.044 57.0559 129.903 57.1501C129.871 57.1717 129.839 57.1933 129.806 57.2129C129.765 57.2381 129.723 57.2612 129.68 57.2828C129.612 57.3174 129.411 57.3924 129.693 57.2828C129.424 57.387 129.144 57.4599 128.859 57.5L129.065 57.4717C128.636 57.5244 128.201 57.5223 127.772 57.4654L127.979 57.4933C127.948 57.4894 127.917 57.4846 127.886 57.4799C127.683 57.4314 127.47 57.4594 127.286 57.5585C127.108 57.6636 126.978 57.8358 126.926 58.0373C126.873 58.2388 126.903 58.453 127.007 58.6328C127.056 58.7215 127.123 58.7991 127.203 58.8611C127.283 58.9232 127.374 58.9682 127.472 58.9936V58.9952Z" fill="#15C2C4"/>
<path d="M130.793 48.802C130.551 49.4531 130.562 50.9919 131.738 51.2082C133.306 51.3127 133.528 49.4692 133.065 48.5613C132.686 47.818 131.438 47.4293 130.793 48.802Z" fill="#15C2C4"/>
<path d="M53.9772 65.8135C53.6883 64.7488 53.4565 63.6691 53.2827 62.5792C53.177 61.8737 53.0296 61.1753 52.8412 60.4875C52.4519 60.4805 51.9669 60.4824 51.5515 60.4667L51.4464 60.4624C50.9056 61.7279 50.2676 63.2299 49.8643 64.0662C50.0301 64.3254 50.1531 64.5197 50.1531 64.5197C50.4198 64.9422 51.2595 65.7256 51.5733 66.1736L51.7076 66.3652C51.7562 68.6387 51.4849 71.1981 51.4962 73.7366L51.4421 74.3648C53.3368 77.1527 55.6691 80.8437 57.0441 83.8558C57.0051 83.3708 56.9845 83.074 56.9845 83.074C56.8743 81.6086 54.4716 67.9245 53.9772 65.8135Z" fill="#FCEB3B"/>
<path d="M27.9361 73.4938C27.9522 73.3925 27.9686 73.2904 27.9852 73.1875C28.682 68.8565 33.9103 63.2925 36.0931 59.6094C36.3757 58.5952 36.6498 57.427 36.9133 56.3142C39.4181 59.0742 45.1298 65.7894 48.806 70.6529C50.2853 72.6119 55.4657 79.909 57.4406 84.7752L60.0956 80.5231C60.4619 79.9911 61.1911 79.1461 61.7069 78.446C63.4587 79.8112 68.8497 84.3453 69.2593 85.6815C67.3365 88.9767 62.0981 96.833 60.6013 97.4219L57.9027 98.8712C57.7894 101.566 57.6625 103.948 57.555 105.016C56.5553 109.777 54.9654 130.662 53.7921 135.431C52.8189 135.23 40.2111 132.483 39.2444 132.284C34.6036 131.327 28.2826 130.011 24.7314 128.626C24.9779 127.005 28.0767 118.457 29.3337 112.586C30.1345 108.844 29.2745 107.141 29.4116 105.921C29.4116 105.921 29.6082 105.898 29.8651 105.87C29.1422 101.649 27.5908 89.795 27.3117 85.3014C26.9815 81.3553 27.1916 77.3821 27.9361 73.4938Z" fill="white"/>
<path d="M39.1368 55.2164C38.4552 55.0259 37.8969 54.872 37.5205 54.7715C37.503 54.9965 37.4488 56.0747 37.3955 56.8526C40.0929 59.8709 45.3492 66.08 48.8058 70.6541C49.3356 71.355 50.3385 72.7387 51.4986 74.4503C51.4966 73.9987 51.4959 73.7376 51.4959 73.7376C51.4846 71.1991 51.7559 68.6398 51.7072 66.3663L51.5729 66.1747C51.2592 65.7266 50.4194 64.9433 50.1528 64.5208C50.1528 64.5208 50.0095 64.2946 49.8643 64.0665C50.4358 62.8814 51.4772 60.3625 52.0471 59.0707C51.0517 58.6207 43.0539 56.3111 39.1368 55.2164Z" fill="white"/>
<path d="M53.0027 55.3095C53.0927 55.1308 53.2443 54.9915 53.429 54.9178C53.6137 54.844 53.8187 54.8409 54.0055 54.909C55.611 55.5007 58.171 55.4763 60.084 54.9541L60.1872 54.9262C61.2686 54.5553 62.1833 53.8074 62.7667 52.8169C63.7629 51.2729 64.4173 48.2793 64.6088 46.9372C64.8136 46.349 65.1582 45.8204 65.6124 45.3976C66.3342 44.7427 67.4421 44.2825 67.012 42.9918C66.8304 42.5099 66.4952 42.1025 66.059 41.8338C63.9085 40.3936 64.1238 36.9256 64.2733 34.4271C64.4649 33.0837 64.5098 31.7231 64.4072 30.3698C64.4072 30.3698 64.0537 26.8587 58.4462 26.9985C52.8388 27.1382 47.1177 37.7372 47.1177 37.7372C46.7835 37.1373 46.2894 36.6438 45.6913 36.3127C45.3917 36.1506 45.0589 36.0608 44.719 36.0504C44.3792 36.04 44.0416 36.1092 43.7328 36.2526C42.8202 36.7238 42.4757 37.87 42.4446 38.903C42.4268 39.9592 42.6327 41.007 43.0484 41.9764C43.464 42.9459 44.08 43.8148 44.8551 44.5251C42.9491 47.5662 39.9595 49.7545 36.502 50.6392C37.273 52.1685 37.6772 53.8592 37.6819 55.5749C37.6819 55.5749 37.3277 59.5576 44.1151 60.9999C50.9024 62.4421 52.1007 60.0269 52.1007 60.0269C52.2148 58.4239 52.5174 56.8403 53.0023 55.3095" fill="white"/>
<path d="M55.3084 17.1622C53.9465 16.6082 52.5238 16.2209 51.0705 16.0086C48.5234 15.6306 45.9292 15.7251 43.4157 16.2874C41.2617 16.6805 39.2556 17.6612 37.6152 19.1232C36.8023 19.8052 36.0234 21.1862 35.5297 22.1353C35.441 22.3065 35.4024 22.5746 35.3468 22.6775C34.7821 23.5265 34.0905 24.2823 33.2967 24.918C31.675 26.3138 30.5216 28.1817 29.9947 30.2652C29.4304 32.7272 29.3489 35.2766 29.7549 37.7701C30.1072 40.1956 31.0226 42.5028 32.4266 44.5038C33.5797 46.2401 34.7301 47.4672 35.548 48.9369C35.8985 49.4852 36.2173 50.0534 36.503 50.6387C39.9603 49.7541 42.9496 47.566 44.8554 44.525C44.0803 43.8147 43.4643 42.9458 43.0486 41.9763C42.6329 41.0068 42.4271 39.959 42.4448 38.9029C42.476 37.8698 42.8205 36.7221 43.733 36.2525C44.0418 36.109 44.3795 36.0398 44.7193 36.0503C45.0591 36.0607 45.3919 36.1505 45.6916 36.3126C46.3334 36.6722 46.8563 37.2142 47.1954 37.871C48.4583 36.1751 48.9737 35.7507 49.7165 35.1715C50.2981 34.711 50.9147 34.2975 51.5606 33.9346C54.084 32.5792 57.0108 31.2316 59.5544 29.6154C59.6484 29.5565 59.7541 29.5192 59.864 29.5061C59.9739 29.493 60.0854 29.5044 60.1904 29.5396C60.2954 29.5748 60.3915 29.6329 60.4718 29.7097C60.552 29.7865 60.6146 29.8802 60.655 29.9841L60.6624 30.0033C60.7058 30.1126 60.7731 30.2105 60.8594 30.2899C60.9456 30.3692 61.0485 30.4279 61.1603 30.4615C61.2722 30.4951 61.3901 30.5027 61.5053 30.4839C61.6205 30.4651 61.73 30.4203 61.8256 30.3528C62.5789 29.82 63.6576 28.9648 64.2042 28.5992C64.2042 28.5992 64.2202 28.5921 64.2478 28.5768C63.954 26.4753 63.2067 24.4644 62.0586 22.6858C60.9106 20.9072 59.3897 19.4042 57.6033 18.2829C57.037 17.9453 56.4489 17.6465 55.8429 17.3884C55.6623 17.3088 55.4841 17.2334 55.3084 17.1622Z" fill="#15C2C4"/>
<path d="M47.7899 37.3417C46.9556 35.9886 45.4444 34.8699 43.7926 35.3854C42.3008 35.8511 41.7137 37.4665 41.6659 38.9041C41.6451 40.3738 42.0161 41.8223 42.7401 43.098C43.4641 44.3737 44.5145 45.4298 45.7815 46.1561C46.6567 46.6508 47.4427 45.2946 46.5675 44.7998C45.6538 44.2816 44.876 43.5509 44.2986 42.6685C43.7213 41.7861 43.3611 40.7774 43.248 39.7263C43.1701 38.8805 43.1701 37.6476 43.9098 37.0625C44.8499 36.3164 45.968 37.3597 46.4457 38.1345C46.9724 38.9908 48.3217 38.2024 47.7899 37.3417Z" fill="#15C2C4"/>
<path d="M53.6755 55.7056C53.7534 55.5807 54.757 55.9309 54.9773 55.9679C55.6226 56.0764 56.2755 56.1321 56.9297 56.1343C58.1819 56.1796 59.4322 55.9994 60.6218 55.6023C63.0288 54.6744 64.1075 52.2879 64.7596 49.9421C64.9138 49.388 65.0481 48.8287 65.1625 48.2643C65.21 47.8277 65.2997 47.3969 65.4304 46.978C65.8835 45.9178 66.9844 45.5554 67.5746 44.622C68.3365 43.4169 67.5956 41.9987 66.578 41.2452C65.8058 40.6598 65.2914 39.7929 65.1446 38.8299C64.5642 36.046 65.4019 33.1757 65.1863 30.3705C65.1084 29.3692 63.5512 29.361 63.6291 30.3705C63.8237 32.9228 63.2277 35.4507 63.4644 38.0046C63.5206 39.1116 63.8298 40.1906 64.368 41.1572C64.656 41.6276 65.0295 42.0388 65.4689 42.3693C65.8434 42.6521 66.388 43.0215 66.3285 43.5724C66.2919 43.9129 65.9182 44.1571 65.6667 44.355C65.2141 44.6853 64.811 45.0796 64.47 45.5259C64.123 46.0031 63.8911 46.5552 63.7926 47.1386C63.7097 47.6266 63.6088 48.1116 63.4956 48.5914C63.0183 50.6167 62.3222 53.2177 60.2064 54.0886C58.9782 54.5932 57.4513 54.6261 56.148 54.5374C55.5103 54.4911 54.8803 54.3689 54.2712 54.1734C53.9125 54.052 53.5233 54.0593 53.1694 54.1942C52.8155 54.3291 52.5187 54.5832 52.3293 54.9136C51.7991 55.7747 53.1469 56.5627 53.674 55.7063L53.6755 55.7056Z" fill="#15C2C4"/>
<path d="M43.8612 44.6241C42.155 47.0742 39.681 48.874 36.8375 49.7337C35.8799 50.0227 36.2878 51.54 37.2517 51.2482C40.4799 50.2662 43.2835 48.2109 45.2059 45.4169C45.3082 45.2366 45.3363 45.0231 45.2841 44.8221C45.2319 44.6212 45.1036 44.449 44.9267 44.3426C44.7475 44.2415 44.5364 44.2144 44.3378 44.2669C44.1391 44.3194 43.9683 44.4474 43.8612 44.6241Z" fill="#15C2C4"/>
<path d="M48.3651 37.6199C49.0663 36.7454 49.8875 35.9761 50.804 35.3354C52.0223 34.5477 53.2935 33.8463 54.6082 33.2362C55.9497 32.5514 57.2909 31.8619 58.5962 31.1104C58.9006 30.9345 59.203 30.7548 59.5032 30.5713C59.6313 30.4927 59.8813 30.4048 59.9677 30.2858C59.9646 30.2901 59.9482 30.2799 59.9264 30.2677C59.9264 30.2677 59.8443 30.0322 59.9509 30.307C59.9766 30.3774 60.0077 30.4457 60.044 30.5112C60.1625 30.7135 60.3252 30.8859 60.5198 31.0152C60.7144 31.1445 60.9356 31.2273 61.1667 31.2572C61.913 31.3629 62.4514 30.8689 63.0085 30.4503C63.5348 30.0553 64.0526 29.6466 64.5968 29.2771C65.4237 28.7156 64.6455 27.3531 63.8108 27.9208C63.3491 28.235 62.9073 28.5781 62.4615 28.9143C62.1181 29.2103 61.7449 29.4695 61.3481 29.6874C61.3808 29.6733 61.4567 29.8507 61.3271 29.5877C61.2526 29.4343 61.1543 29.294 61.0359 29.1718C60.8143 28.9502 60.5313 28.8015 60.2242 28.7454C59.4725 28.6029 58.8737 29.1251 58.2668 29.486C56.9432 30.2713 55.5807 30.9781 54.2135 31.6794C52.8659 32.3058 51.5558 33.011 50.2897 33.7915C49.1497 34.5361 48.1294 35.4523 47.2641 36.5083C47.1234 36.6583 47.0449 36.8569 47.0449 37.0635C47.0449 37.27 47.1234 37.4687 47.2641 37.6187C47.4108 37.7646 47.6086 37.8464 47.8146 37.8464C48.0206 37.8464 48.2183 37.7646 48.3651 37.6187V37.6199Z" fill="#15C2C4"/>
<path d="M65.125 29.4513C64.6769 24.439 61.8475 19.6074 57.3546 17.2416C52.8886 14.8904 47.6814 14.493 42.8155 15.6223C40.6166 16.1096 38.5829 17.1704 36.9177 18.6988C36.4473 19.1678 36.0364 19.6939 35.6945 20.2651C35.3341 20.7943 35.0244 21.3569 34.7695 21.9453C34.7178 22.1235 34.6488 22.2962 34.5636 22.4608C34.4202 22.6678 34.2642 22.8655 34.0965 23.0529C33.6942 23.5089 33.2587 23.9337 32.7935 24.324C28.5564 27.9203 28.0853 34.1404 29.2649 39.2587C29.8815 41.9331 31.1939 44.227 32.8246 46.4019C34.5076 48.6456 36.2267 50.996 36.7522 53.8232C36.8544 54.4013 36.9051 54.9876 36.9037 55.5748C36.9119 56.5851 38.469 56.5875 38.4609 55.5748C38.4395 52.8203 37.3946 50.4404 35.9818 48.1332C35.2519 46.9407 34.3366 45.8754 33.5292 44.7363C32.7573 43.6831 32.0968 42.5513 31.5586 41.3594C30.6278 39.0834 30.1931 36.6322 30.2841 34.1718C30.3475 31.5438 30.863 28.8788 32.5615 26.8044C33.2233 25.9959 34.0408 25.3798 34.7614 24.6354C35.1462 24.2431 35.5008 23.8219 35.8222 23.3753C36.06 22.9457 36.272 22.5021 36.4572 22.047C37.0288 20.898 37.8546 19.897 38.8708 19.1213C39.7589 18.4499 40.7413 17.9156 41.7855 17.5361C45.9068 16.1612 50.3647 16.2087 54.4563 17.6712C56.9472 18.5265 59.1361 20.0969 60.7544 22.1895C62.3727 24.2821 63.3499 26.8059 63.5659 29.4509C63.5712 29.6575 63.6549 29.8541 63.7998 30.0003C63.9447 30.1464 64.1396 30.2309 64.3445 30.2362C64.5505 30.2346 64.7476 30.1513 64.8932 30.0044C65.0389 29.8575 65.1214 29.6587 65.1231 29.4509L65.125 29.4513Z" fill="#15C2C4"/>
<path d="M55.4737 123.503C55.2856 125.132 55.0984 126.712 54.915 128.176L55.3176 128.094C56.3804 127.877 61.5296 127.075 62.6823 126.7C62.8337 125.704 59.0027 108.025 58.4351 104.817L58.0598 102.694C57.9574 103.509 57.871 104.193 57.8118 104.68C57.2228 107.484 56.3399 116.002 55.4737 123.503Z" fill="#BDBDBD"/>
<path d="M36.363 56.8709C38.6953 59.4428 40.9334 62.1055 43.1438 64.7838C45.2071 67.2842 47.2633 69.8019 49.1522 72.4406C50.8604 74.8272 52.4916 77.2766 53.9919 79.8018C54.7822 81.1313 55.539 82.4852 56.2008 83.8854C56.7363 84.9476 57.1359 86.0742 57.3901 87.2379C57.4014 87.2956 57.41 87.3557 57.4182 87.4119C57.3956 87.252 57.4127 87.3706 57.4154 87.404C57.4248 87.5096 57.4329 87.6145 57.4361 87.7205C57.4431 87.949 57.4361 88.1783 57.4361 88.4068C57.4318 88.9601 57.422 89.5134 57.4108 90.0666C57.3812 91.5386 57.3404 93.0108 57.2885 94.4832C57.1892 97.4965 57.0818 100.512 56.891 103.521C56.8626 103.969 56.8241 104.417 56.791 104.866C56.7735 105.101 56.8299 104.728 56.7762 104.944C56.7563 105.026 56.7439 105.11 56.7287 105.192C56.6937 105.379 56.6617 105.567 56.631 105.754C56.4543 106.827 56.3164 107.907 56.1829 108.985C55.8283 111.852 55.5332 114.723 55.2338 117.594C54.9052 120.742 54.5837 123.892 54.2259 127.037C53.9491 129.472 53.7054 131.756 53.2655 134.151C53.1993 134.51 53.1277 134.868 53.0413 135.222L53.9993 134.673C50.994 134.048 47.9979 133.374 44.998 132.724C41.4375 131.951 37.8669 131.224 34.3102 130.436C31.1604 129.738 27.9565 129.035 24.9383 127.868L25.4833 128.834C25.6742 127.897 25.9311 126.974 26.2522 126.074C26.7435 124.493 27.2503 122.917 27.7397 121.335C28.3014 119.519 28.8468 117.698 29.3377 115.861C29.8411 113.977 30.3581 112.057 30.4461 110.1C30.4768 109.254 30.4333 108.406 30.3161 107.567C30.2059 107.025 30.1638 106.472 30.1907 105.92C30.1893 105.712 30.1068 105.513 29.9611 105.366C29.8154 105.219 29.6182 105.136 29.4121 105.135C29.2069 105.139 29.0114 105.223 28.8663 105.37C28.7212 105.516 28.6378 105.713 28.6335 105.92C28.6112 106.438 28.6486 106.957 28.7448 107.467C28.8358 108.115 28.8878 108.767 28.9006 109.421C28.9154 111.286 28.447 113.099 27.981 114.89C27.0857 118.341 25.9785 121.732 24.9126 125.133C24.5239 126.204 24.2125 127.301 23.9806 128.416C23.9337 128.617 23.9638 128.828 24.0649 129.007C24.166 129.187 24.3306 129.32 24.5256 129.382C27.1963 130.345 29.9317 131.114 32.711 131.684C34.9689 132.2 37.2409 132.653 39.5062 133.139C42.8818 133.862 46.2543 134.601 49.6279 135.333C50.9469 135.618 52.2646 135.913 53.5859 136.187C53.785 136.239 53.9963 136.21 54.1749 136.107C54.3536 136.005 54.4858 135.836 54.5436 135.637C54.9948 133.532 55.3218 131.402 55.5231 129.258C55.8987 126.169 56.2203 123.073 56.543 119.978C56.863 116.911 57.1744 113.842 57.5272 110.778C57.6642 109.588 57.811 108.367 57.9601 107.313C58.0788 106.471 58.2804 105.629 58.356 104.784C58.5966 102.095 58.6674 99.3852 58.769 96.6884C58.8753 93.8397 58.9855 90.9874 58.9956 88.1363C59.0049 85.6327 57.6852 83.2242 56.5235 81.0861C54.988 78.3156 53.3044 75.6312 51.4802 73.0449C47.6262 67.4849 43.2166 62.2892 38.7607 57.2161C38.3317 56.7276 37.8994 56.2424 37.4639 55.7605C36.7862 55.0145 35.6872 56.1261 36.363 56.8709Z" fill="#15C2C4"/>
<path d="M53.2266 66.022C53.712 68.1113 54.048 70.2434 54.4252 72.3544C54.922 75.1336 55.4082 77.9152 55.8578 80.703C55.9439 81.2351 56.0284 81.7671 56.107 82.3004C56.1226 82.4056 56.1374 82.5108 56.1525 82.6145C56.1592 82.6608 56.1654 82.7076 56.172 82.7543C56.1926 82.9011 56.1487 82.5642 56.1662 82.7127C56.1802 82.8328 56.1961 82.9522 56.2051 83.0723C56.283 84.0732 57.8425 84.0819 57.7623 83.0723C57.6007 81.0391 57.1526 78.9997 56.8101 76.9924C56.3224 74.1368 55.8152 71.2844 55.2883 68.4352C55.1116 67.4901 54.9449 66.5399 54.7273 65.603C54.4988 64.6214 52.9969 65.0356 53.2258 66.0204L53.2266 66.022Z" fill="#15C2C4"/>
<path d="M49.4812 64.9163C49.7837 65.3371 50.1198 65.7324 50.4859 66.0982C50.5638 66.183 50.6417 66.2678 50.7195 66.3546C50.7585 66.3989 50.7974 66.4433 50.8363 66.4889C50.8503 66.5054 50.9679 66.6479 50.8955 66.5576C50.9347 66.6175 50.9779 66.6747 51.0247 66.7288C51.1278 66.8254 51.2515 66.8966 51.3864 66.9369C51.4443 66.9567 51.5033 66.973 51.5631 66.9856C52.4196 67.1689 53.3652 66.7676 54.1862 66.5705C54.3843 66.5135 54.5523 66.3804 54.6542 66.1998C54.7561 66.0192 54.7838 65.8055 54.7312 65.6046C54.4588 64.6231 54.2419 63.6267 54.0815 62.6204C53.9778 61.8282 53.8151 61.045 53.5949 60.2774C53.5458 60.1139 53.4469 59.9701 53.3121 59.8666C53.1774 59.7631 53.0136 59.7052 52.8443 59.701C52.4141 59.6939 51.9844 59.6951 51.5546 59.6802C51.3481 59.6802 51.15 59.7629 51.004 59.9102C50.858 60.0575 50.776 60.2572 50.776 60.4655C50.776 60.6738 50.858 60.8735 51.004 61.0208C51.15 61.1681 51.3481 61.2508 51.5546 61.2508C51.9828 61.2657 52.4141 61.2645 52.8443 61.2716L52.0934 60.6952C52.3136 61.4628 52.4763 62.246 52.58 63.0382C52.7402 64.0446 52.9571 65.0409 53.2297 66.0224L53.7747 65.0564C53.262 65.1797 52.7536 65.3293 52.2374 65.4361C52.1985 65.4444 52.1595 65.4515 52.1206 65.4593C52.0817 65.4672 51.961 65.4593 52.0949 65.4648C52.2421 65.4715 52.0264 65.4648 51.9855 65.4648C51.9571 65.4648 51.924 65.4585 51.896 65.4609C51.7792 65.4719 52.0517 65.508 51.9808 65.4719C51.9171 65.4496 51.8521 65.4312 51.7862 65.4169L52.2514 65.7778C52.0058 65.4494 51.7403 65.1366 51.4565 64.8413C51.3233 64.6976 51.1894 64.5542 51.0598 64.4074C50.9983 64.3375 50.9391 64.2656 50.8788 64.195C50.8184 64.1243 50.8258 64.1286 50.8897 64.2103C50.8694 64.182 50.8507 64.1533 50.8309 64.1243C50.7235 63.948 50.5528 63.8203 50.3544 63.7678C50.156 63.7152 49.9451 63.742 49.7658 63.8423C49.589 63.9489 49.4607 64.1212 49.4085 64.3222C49.3563 64.5231 49.3843 64.7367 49.4866 64.9171L49.4812 64.9163Z" fill="#15C2C4"/>
<path d="M50.9263 66.1726C50.9906 68.6958 50.711 71.2131 50.7169 73.7363C50.7169 74.7467 52.2741 74.7486 52.2741 73.7363C52.2682 71.2131 52.5466 68.6958 52.4835 66.1726C52.4578 65.1638 50.9006 65.1599 50.9263 66.1726Z" fill="#15C2C4"/>
<path d="M40.3762 60.0943C43.4676 61.6559 46.1241 64.1309 49.4316 65.2637C49.5972 65.3085 49.7727 65.2975 49.9315 65.2324C50.0903 65.1672 50.2236 65.0515 50.311 64.9028C51.2675 63.1798 51.9266 61.2684 52.7196 59.4657C52.8207 59.2851 52.8481 59.0719 52.7959 58.8713C52.7437 58.6708 52.6161 58.4986 52.4401 58.3914C50.9125 57.7156 49.2307 57.3206 47.635 56.847C45.24 56.1355 42.8394 55.4418 40.433 54.766C39.5318 54.5115 38.6306 54.2555 37.7262 54.0144C37.6107 53.9846 37.49 53.9815 37.3732 54.0054C37.2564 54.0293 37.1464 54.0796 37.0516 54.1525C36.9568 54.2253 36.8795 54.3189 36.8256 54.4262C36.7718 54.5334 36.7427 54.6516 36.7405 54.7718C36.6845 55.5407 36.6557 56.3111 36.5992 57.0799C36.5256 58.0882 38.0832 58.0835 38.1564 57.0799C38.2128 56.3111 38.2417 55.5407 38.2977 54.7718L37.3124 55.5293C41.495 56.6502 45.6576 57.8543 49.8003 59.1417C50.2188 59.2717 50.6369 59.4028 51.053 59.5415C51.2045 59.5917 51.3559 59.6428 51.5058 59.6985C51.6226 59.7409 51.9103 59.8627 51.6526 59.7488L51.3734 58.6745C50.5804 60.4772 49.9214 62.3882 48.9648 64.1112L49.8443 63.7504C48.2431 63.2006 46.7688 62.2056 45.3467 61.3072C43.9678 60.4367 42.6177 59.4755 41.1606 58.7393C40.2652 58.2881 39.4773 59.6424 40.3746 60.0955L40.3762 60.0943Z" fill="#15C2C4"/>
<path d="M32.9067 72.0562C34.931 71.7087 36.9842 72.388 38.6632 73.5161C40.0075 74.4193 41.3638 75.7621 41.8263 77.3689C42.1054 78.3376 43.6085 77.9253 43.3282 76.9511C42.7485 74.9395 41.1376 73.2939 39.4492 72.1607C37.4206 70.7442 34.9312 70.1652 32.4925 70.5426C32.294 70.5991 32.1256 70.7321 32.0236 70.9128C31.9216 71.0936 31.8943 71.3075 31.9474 71.5085C32.0061 71.7069 32.1384 71.8749 32.3168 71.9773C32.4953 72.0798 32.706 72.1087 32.9051 72.0582L32.9067 72.0562Z" fill="#15C2C4"/>
<path d="M28.3118 130.145C28.2239 130.703 28.2009 131.27 28.2433 131.833C28.2725 132.679 28.3351 133.522 28.4052 134.365C28.5609 136.25 28.7614 138.128 28.9942 140.002C29.0803 140.693 29.1612 141.387 29.2811 142.072C29.3373 142.272 29.4691 142.442 29.6483 142.545C29.8275 142.648 30.0396 142.675 30.2388 142.622C30.4356 142.563 30.6021 142.429 30.7036 142.249C30.8052 142.069 30.8339 141.857 30.7838 141.656C30.7449 141.444 30.7157 141.232 30.6857 141.019C30.6756 140.948 30.6304 140.617 30.6468 140.744C30.6234 140.57 30.6012 140.395 30.5791 140.221C30.4719 139.374 30.3731 138.526 30.2828 137.677C30.0881 135.862 29.9025 134.041 29.8156 132.216C29.7985 131.855 29.7853 131.494 29.7872 131.133C29.7872 130.988 29.7903 130.843 29.7997 130.698C29.8036 130.644 29.8098 130.59 29.8129 130.536C29.8207 130.409 29.7771 130.74 29.8129 130.561C30.0111 129.575 28.5103 129.152 28.3114 130.144L28.3118 130.145Z" fill="#15C2C4"/>
<path d="M54.1742 64.1791C54.2633 64.3405 54.1575 64.1195 54.1625 64.1399C54.1796 64.209 54.2108 64.2777 54.2322 64.346C54.2886 64.5255 54.335 64.7088 54.3801 64.8918C54.5164 65.447 54.6293 66.0085 54.7383 66.5696C55.0583 68.2188 55.3296 69.8754 55.5897 71.534C56.1561 75.1465 56.6715 78.7197 57.0344 82.3561C57.0994 83.0059 57.1605 83.6573 57.1932 84.3099C57.2037 84.5243 57.2134 84.7399 57.2084 84.9547C57.1999 85.0276 57.1963 85.1011 57.1979 85.1746C57.2053 85.2335 57.2578 84.9433 57.1955 85.1306C56.8755 86.0906 58.379 86.5025 58.6971 85.548C58.7734 85.2249 58.795 84.8912 58.7609 84.5608C58.743 84.0158 58.6963 83.4712 58.6464 82.9282C58.4942 81.2625 58.2879 79.602 58.0711 77.9442C57.5763 74.1609 57.0336 70.3765 56.3301 66.6262C56.2028 65.9461 56.0708 65.2656 55.9101 64.5922C55.834 64.1749 55.703 63.7696 55.5208 63.3871C55.0338 62.5037 53.6883 63.2949 54.1761 64.1799L54.1742 64.1791Z" fill="#15C2C4"/>
<path d="M57.6844 105.025C58.187 107.854 58.8161 110.664 59.3973 113.478C60.1249 117.007 60.8658 120.536 61.5171 124.079C61.6339 124.708 61.7456 125.334 61.8402 125.964C61.8542 126.057 61.8966 126.398 61.8643 126.121C61.8741 126.207 61.8861 126.292 61.8939 126.378C61.9092 126.483 61.9129 126.59 61.9048 126.697L62.4763 125.939C61.2553 126.273 60.0141 126.525 58.7605 126.695C57.5451 126.909 56.3215 127.088 55.1116 127.333C54.1298 127.529 54.5451 129.044 55.5254 128.847C56.7353 128.604 57.9589 128.423 59.1743 128.21C60.4279 128.04 61.6692 127.787 62.8901 127.454C63.0513 127.403 63.1929 127.302 63.2953 127.167C63.3977 127.031 63.4559 126.867 63.462 126.697C63.4719 126.393 63.4435 126.09 63.3775 125.793C63.3078 125.295 63.2218 124.799 63.1342 124.301C62.8563 122.734 62.5464 121.171 62.2345 119.611C61.4949 115.902 60.7182 112.201 59.9595 108.496C59.694 107.2 59.4184 105.905 59.1871 104.604C59.1309 104.404 58.999 104.234 58.8199 104.131C58.6407 104.028 58.4287 104.001 58.2295 104.054C58.0326 104.113 57.8659 104.246 57.7644 104.426C57.6628 104.606 57.6341 104.819 57.6844 105.02V105.025Z" fill="#15C2C4"/>
<path d="M58.8572 127.575C59.1974 129.649 59.4513 131.74 59.7062 133.826C59.9449 135.778 60.1952 137.733 60.349 139.693C60.4268 140.694 61.984 140.703 61.9062 139.693C61.7504 137.691 61.4923 135.692 61.2475 133.698C60.98 131.515 60.7149 129.327 60.3587 127.157C60.3028 126.957 60.1709 126.787 59.9917 126.684C59.8125 126.581 59.6003 126.554 59.401 126.607C59.2043 126.667 59.0379 126.8 58.9363 126.98C58.8348 127.16 58.806 127.373 58.856 127.573L58.8572 127.575Z" fill="#15C2C4"/>
<path d="M28.6875 73.7019C29.0647 71.3232 30.3303 69.2488 31.6528 67.2843C33.0609 65.1927 34.641 63.2254 36.0476 61.1338C36.4468 60.6133 36.7546 60.0276 36.9574 59.4021C37.2018 58.4864 37.4183 57.5629 37.6367 56.6406C37.8703 55.6589 36.368 55.2388 36.1348 56.2232C35.9436 57.0309 35.7536 57.839 35.5458 58.6423C35.4909 58.9411 35.3909 59.2295 35.2491 59.4975C35.1051 59.7303 34.9571 59.9605 34.8053 60.1882C34.1373 61.1938 33.4175 62.1645 32.7031 63.1367C31.1794 65.2111 29.6105 67.2946 28.443 69.6014C27.8341 70.7546 27.4098 71.9977 27.186 73.2845C27.1374 73.4853 27.1668 73.6972 27.2681 73.8768C27.3694 74.0564 27.5351 74.1901 27.731 74.2505C27.9302 74.3042 28.1424 74.2767 28.3217 74.1738C28.5009 74.0709 28.6327 73.901 28.6887 73.7008L28.6875 73.7019Z" fill="#15C2C4"/>
<path d="M62.8652 78.4761C67.8148 75.0812 65.5218 72.4987 69.0286 71.0361C70.1066 70.5865 74.5815 68.3809 76.63 68.7956C77.5857 68.8388 78.0743 69.8601 78.2179 70.716L79.9063 70.5708C79.941 70.2062 80.0259 69.8483 80.1586 69.5074C81.1248 67.6286 82.5026 68.816 82.8253 70.2928L82.9066 70.2535C83.3407 70.0446 85.5597 69.0814 85.9517 69.9598C86.9869 72.2792 82.4539 73.9417 82.7575 73.8047C82.6871 74.2987 82.5948 74.7863 82.485 75.2681C82.4378 75.5657 82.3104 75.8443 82.1166 76.0737C81.9228 76.303 81.6702 76.4741 81.3864 76.5682L79.8662 76.7229C79.8612 76.7622 79.8561 76.7975 79.8514 76.8333C79.7424 77.6555 79.0281 78.9674 78.251 79.1637C77.0719 80.8129 74.6582 81.5377 71.9327 81.7482C69.4023 81.9445 69.05 83.4056 68.4727 84.6684" fill="white"/>
<path d="M63.2581 79.1544C64.5842 78.3006 65.702 77.1558 66.5282 75.8054C67.0105 74.9533 67.2827 73.9438 67.6782 73.1872C68.1041 72.3724 68.8169 71.9797 69.6426 71.6165C70.6271 71.1846 71.6039 70.7425 72.6118 70.3691C73.3054 70.1043 74.0148 69.8835 74.7358 69.7078C75.2849 69.5605 75.8548 69.5074 76.4214 69.5508C77.4013 69.7302 77.8229 68.2157 76.8352 68.0363C75.5603 67.8026 74.2359 68.1651 73.0279 68.5628C71.796 68.9851 70.5861 69.47 69.4028 70.0157L68.8578 70.2587C68.5981 70.3742 68.9407 70.2246 68.7277 70.3153C68.5545 70.3891 68.3813 70.4633 68.2135 70.5509C67.7108 70.8026 67.2613 71.1502 66.8899 71.5745C66.2518 72.3261 65.9485 73.3415 65.597 74.1723C64.923 75.6587 63.8376 76.917 62.4713 77.7958C61.6515 78.3655 62.4293 79.7277 63.2573 79.152L63.2581 79.1544Z" fill="#15C2C4"/>
<path d="M83.2995 70.9333C83.3676 70.9007 83.4365 70.8701 83.5054 70.8395C83.658 70.7712 83.3077 70.9204 83.477 70.8513C83.5377 70.8265 83.5985 70.8014 83.66 70.7774C83.9132 70.6768 84.1712 70.5891 84.4331 70.5148C84.5776 70.4755 84.7232 70.4386 84.8707 70.4111C84.9447 70.397 85.1716 70.3875 84.8972 70.4025C84.9719 70.3985 85.0459 70.3871 85.121 70.3844C85.1798 70.3844 85.2378 70.3844 85.2966 70.3844C85.4893 70.3895 85.1066 70.3345 85.2834 70.3816C85.3297 70.3938 85.3803 70.417 85.427 70.4241C85.2612 70.3981 85.2581 70.3455 85.3421 70.3946C85.4609 70.4641 85.2834 70.3644 85.2725 70.3365C85.2886 70.3585 85.3074 70.3783 85.3285 70.3954C85.225 70.3196 85.2117 70.2344 85.2604 70.3169C85.2974 70.3793 85.2604 70.3954 85.2359 70.2505C85.2475 70.2924 85.262 70.3335 85.2791 70.3734C85.2997 70.4398 85.3133 70.5073 85.3289 70.5748C85.3569 70.6954 85.3176 70.4936 85.3184 70.4853C85.3145 70.5352 85.327 70.5909 85.3274 70.6424C85.3274 70.7068 85.3184 70.77 85.3168 70.8344C85.3231 70.5666 85.3235 70.7704 85.3028 70.8505C85.2869 70.9125 85.2639 70.9722 85.2456 71.0327C85.1985 71.1748 85.3316 70.8536 85.2643 70.9879C85.2472 71.0229 85.2308 71.0582 85.2125 71.0927C85.1786 71.1571 85.1413 71.2196 85.102 71.2804C85.0626 71.3413 84.8968 71.5219 85.0708 71.3354C84.9665 71.4469 84.8762 71.5679 84.7656 71.6762C84.6648 71.776 84.5593 71.8726 84.4507 71.9617C84.418 71.9888 84.3818 72.0139 84.351 72.043C84.4954 71.9067 84.4507 71.9668 84.4074 71.999C84.3393 72.0497 84.2712 72.1007 84.2019 72.1494C83.7257 72.4807 83.219 72.7648 82.6887 72.9979C82.5108 73.1034 82.3816 73.2756 82.3293 73.4769C82.2769 73.6782 82.3056 73.8922 82.4092 74.0722C82.5176 74.2475 82.6883 74.3744 82.8864 74.4268C83.0845 74.4792 83.295 74.4532 83.4747 74.3542C83.9922 74.1265 84.4875 73.8504 84.954 73.5296C85.6098 73.1168 86.1594 72.5533 86.5579 71.8851C86.7647 71.521 86.8757 71.1096 86.8803 70.69C86.8849 70.2704 86.7831 69.8566 86.5844 69.488C86.1235 68.7168 85.1393 68.7517 84.3782 68.91C83.7331 69.0574 83.1078 69.282 82.5155 69.5791C82.3378 69.6848 82.2088 69.857 82.1565 70.0582C82.1041 70.2594 82.1327 70.4733 82.2359 70.6534C82.3438 70.8291 82.5145 70.9564 82.7127 71.0089C82.9109 71.0613 83.1215 71.035 83.3011 70.9353L83.2995 70.9333Z" fill="#15C2C4"/>
<path d="M80.5931 71.381C80.6361 70.8831 80.7169 70.3893 80.8349 69.9038C80.8684 69.8101 80.8669 69.8101 80.8306 69.9038L80.8878 69.797C80.9458 69.7083 81.0066 69.5925 81.0646 69.5222C81.1226 69.4519 81.1891 69.4024 81.2507 69.3392C81.1987 69.384 81.2093 69.3816 81.2822 69.3321C81.2023 69.3599 81.2039 69.3599 81.2873 69.3321L81.3507 69.316C81.2495 69.327 81.2438 69.3304 81.3336 69.3262C81.4239 69.3321 81.4169 69.3306 81.3133 69.3223C81.3445 69.3294 81.3752 69.3384 81.4052 69.3494C81.4578 69.3683 81.4441 69.3632 81.3694 69.3349C81.4083 69.3561 81.4473 69.3793 81.4862 69.4044C81.6185 69.5151 81.4344 69.3443 81.5504 69.4617C81.7623 69.6823 81.9188 69.9509 82.0067 70.2451C82.2866 71.1517 82.1554 72.4165 82.0285 73.437C81.9695 74.024 81.8622 74.605 81.7077 75.1741C81.6644 75.3376 81.5857 75.4894 81.4772 75.6186C81.4003 75.7122 81.2966 75.7796 81.1802 75.8114C80.2299 76.12 80.6352 77.6372 81.594 77.3259C82.0885 77.1699 82.5189 76.8551 82.8195 76.4294C83.1175 75.9435 83.3062 75.3976 83.3723 74.8301C83.6254 73.573 83.73 72.29 83.6838 71.008C83.6842 70.0485 83.3359 69.1221 82.7047 68.4043C82.4216 68.0739 82.0302 67.8571 81.6019 67.7934C81.1736 67.7297 80.7369 67.8233 80.3712 68.0572C79.2777 68.8197 79.1523 70.1567 79.0371 71.381C79.0386 71.5888 79.1212 71.7877 79.2668 71.9346C79.4125 72.0816 79.6097 72.1648 79.8157 72.1663C80.0209 72.162 80.2164 72.0779 80.3615 71.9315C80.5066 71.7852 80.59 71.5879 80.5943 71.381H80.5931Z" fill="#15C2C4"/>
<path d="M76.8737 79.4347C77.1441 79.7253 77.509 79.9083 77.9018 79.9506C78.2947 79.9929 78.6897 79.8916 79.0148 79.6652C79.6217 79.213 80.086 78.5933 80.3517 77.881C80.4239 77.7135 80.4853 77.5414 80.5354 77.3658C80.5529 77.3002 80.5689 77.2343 80.5817 77.1695C80.5876 77.1385 80.5926 77.1071 80.5977 77.0752C80.6008 77.054 80.6397 76.7631 80.6249 76.8722C80.6137 76.9574 80.6405 76.7592 80.6452 76.7262L80.6989 76.3229C80.7234 76.1376 80.7476 75.9526 80.7694 75.7669C80.887 74.9409 80.9231 74.1052 80.8772 73.272C80.8188 72.5287 80.6826 71.699 80.0986 71.176C79.8437 70.9437 79.5311 70.7857 79.1941 70.7186C78.8572 70.6515 78.5085 70.6779 78.1852 70.7951C76.5891 71.3947 76.3707 73.3081 76.2107 74.7892C76.1078 75.6392 76.0925 76.4977 76.1652 77.3509C76.1744 78.1043 76.4219 78.8351 76.8717 79.4367C77.0178 79.584 77.2159 79.6667 77.4224 79.6667C77.6289 79.6667 77.827 79.584 77.973 79.4367C78.1191 79.2894 78.2011 79.0896 78.2011 78.8813C78.2011 78.673 78.1191 78.4732 77.973 78.3259C77.8726 78.2136 78.0455 78.4896 77.9847 78.3416C77.9702 78.3121 77.9537 78.2836 77.9353 78.2564C77.9096 78.2151 77.8574 78.0561 77.9248 78.2477C77.9084 78.2014 77.8913 78.1554 77.8761 78.1087C77.8434 78.0066 77.8169 77.9026 77.794 77.7977C77.7815 77.7412 77.7702 77.6843 77.7601 77.6269C77.7515 77.5794 77.7438 77.5315 77.7364 77.4836C77.7453 77.5566 77.7461 77.5621 77.7391 77.5056C77.6731 76.9081 77.6587 76.306 77.6959 75.7061C77.721 75.0989 77.7891 74.4944 77.8995 73.8971C77.9457 73.6271 78.0055 73.3596 78.0786 73.0957C78.1056 72.9926 78.1433 72.8927 78.1911 72.7976C78.216 72.7505 78.2417 72.7038 78.2689 72.6582C78.2962 72.6127 78.3234 72.5719 78.353 72.5302C78.3059 72.5911 78.311 72.5868 78.3682 72.5185C78.3989 72.4851 78.4351 72.4533 78.4651 72.4187C78.5901 72.2742 78.3546 72.4674 78.513 72.3751C78.5503 72.3557 78.5861 72.3336 78.6201 72.3088C78.7505 72.2008 78.4959 72.3288 78.6543 72.2888C78.7006 72.277 78.7485 72.2632 78.7941 72.2495C78.8965 72.2193 78.6099 72.2377 78.7832 72.2495C78.8279 72.253 78.8758 72.2495 78.9214 72.2495C78.9816 72.2547 78.9577 72.2516 78.8497 72.2401C78.8856 72.2471 78.9206 72.2566 78.9556 72.2672C79.1199 72.3457 78.8459 72.1996 78.9463 72.2624C78.9852 72.2872 79.0261 72.3103 79.0654 72.3355C78.8844 72.2177 79.1764 72.5122 79.0728 72.3484C79.1016 72.394 79.1281 72.4399 79.1553 72.4863C79.2161 72.5903 79.1098 72.3127 79.1717 72.5185C79.2189 72.6732 79.2572 72.8305 79.2865 72.9896C79.3348 73.2622 79.2823 72.9225 79.3009 73.0866C79.3099 73.1624 79.3161 73.2382 79.3216 73.3144C79.3329 73.4714 79.3383 73.6285 79.3403 73.7879C79.3445 74.1476 79.3274 74.5073 79.3013 74.8658C79.2772 75.1799 79.2441 75.494 79.2067 75.8081C79.1627 76.1725 79.1538 76.224 79.109 76.5565L79.0814 76.765C79.0951 76.6637 79.0951 76.6581 79.0814 76.7482C79.0642 76.8137 79.0526 76.8805 79.0351 76.9445C79.0175 77.0085 78.9961 77.0835 78.9708 77.1522C78.9623 77.1777 78.8863 77.3772 78.9389 77.2496C78.8769 77.3963 78.8056 77.5389 78.7256 77.6764C78.6921 77.7343 78.6574 77.7912 78.6216 77.8472C78.6064 77.8708 78.462 78.0746 78.5383 77.976C78.4451 78.0915 78.3436 78.1999 78.2347 78.3003C78.126 78.404 78.202 78.3235 78.23 78.3054C78.1911 78.3302 77.9886 78.4955 78.1358 78.3749C78.0995 78.3919 78.0609 78.4033 78.0213 78.4087C78.1321 78.398 78.1434 78.395 78.0552 78.3997C77.9669 78.395 77.978 78.3971 78.0883 78.406C78.0443 78.3883 77.9808 78.3486 78.1011 78.4185C78.0614 78.3978 78.0232 78.374 77.9871 78.3475C78.0513 78.3934 78.0478 78.3844 77.9758 78.32C77.2634 77.6108 76.1617 78.7209 76.8737 79.4347Z" fill="#15C2C4"/>
<path d="M69.9833 78.5916C70.3065 78.3974 70.641 78.2231 70.9849 78.0693C70.8374 78.1337 71.1017 78.0242 71.1282 78.0144C71.2154 77.9818 71.3034 77.9508 71.3918 77.9225C71.5444 77.8738 71.6985 77.8318 71.8546 77.7976C71.9434 77.7784 72.0325 77.765 72.1213 77.7477C71.9422 77.7827 72.1563 77.7446 72.1828 77.7419C72.3646 77.7249 72.5473 77.7195 72.7298 77.7258C72.7995 77.7281 72.8691 77.732 72.9384 77.7379C72.9855 77.7419 73.0323 77.7462 73.0794 77.7517C72.9902 77.7387 72.9925 77.7391 73.0856 77.7517C73.2826 77.7878 73.4749 77.8302 73.6695 77.8844C73.8686 77.9398 74.0814 77.9131 74.2611 77.8103C74.4407 77.7075 74.5725 77.5369 74.6274 77.336C74.6823 77.1352 74.6559 76.9206 74.554 76.7394C74.452 76.5582 74.2829 76.4253 74.0837 76.3699C73.2453 76.1295 72.362 76.0945 71.5074 76.2678C70.6901 76.46 69.9096 76.7863 69.1973 77.2338C69.019 77.3389 68.8894 77.5112 68.837 77.7127C68.7846 77.9142 68.8137 78.1284 68.918 78.3083C69.0222 78.4881 69.193 78.6188 69.3928 78.6717C69.5926 78.7245 69.805 78.6951 69.9833 78.59V78.5916Z" fill="#15C2C4"/>
<path d="M75.0332 78.1851C75.0118 78.0375 75.0499 78.3449 75.0332 78.1957C75.0274 78.1368 75.0211 78.0779 75.0165 78.019C75.0067 77.9012 75.0009 77.7799 74.9982 77.6601C74.9934 77.4243 75.0007 77.1884 75.02 76.9533C75.0243 76.9003 75.0293 76.8473 75.0348 76.7943C75.0379 76.7633 75.0636 76.5564 75.0461 76.6871C75.0289 76.8116 75.0538 76.6369 75.0589 76.6066C75.0698 76.5363 75.0819 76.4664 75.0951 76.3962C75.1161 76.2831 75.1399 76.17 75.1663 76.0577C75.1761 76.0153 75.1878 75.9733 75.1975 75.9309C75.2002 75.9191 75.2068 75.9081 75.2088 75.8963C75.2185 75.8445 75.1103 76.0852 75.164 76.007C75.1774 75.9872 75.1898 75.9666 75.201 75.9454C75.2481 75.859 75.0659 76.0942 75.1391 76.0275C75.1601 76.0082 75.1804 75.9882 75.2006 75.9662C75.2921 75.8739 75.0492 76.0671 75.1333 76.0176C75.1831 75.9882 75.2314 75.958 75.2824 75.9301C75.4038 75.8645 75.1009 75.996 75.2107 75.9595C75.2423 75.9489 75.273 75.9368 75.3049 75.9269C75.365 75.9083 75.4261 75.8929 75.4879 75.881C75.5171 75.8755 75.5463 75.8716 75.5751 75.8661C75.2968 75.9175 75.4431 75.8834 75.5159 75.8786C75.5802 75.8743 75.6444 75.8735 75.7106 75.8755C75.7402 75.8755 75.7694 75.8782 75.7986 75.8806C75.818 75.8806 75.8375 75.8853 75.8566 75.8865C75.9418 75.8928 75.653 75.8512 75.7355 75.8708C75.8036 75.8869 75.8721 75.8983 75.9395 75.9199C75.9761 75.9316 76.0921 75.9796 75.9473 75.9175C75.8025 75.8555 75.9259 75.91 75.9597 75.9289C75.9854 75.9434 76.0092 75.9607 76.0345 75.9752C76.1123 76.02 75.9356 75.8967 75.9356 75.8967C75.9399 75.9073 75.9632 75.9199 75.9714 75.9289C76.0349 75.9964 76.0306 76.0498 75.9274 75.859C75.9422 75.8865 75.9613 75.9116 75.9761 75.9375C76.0815 76.1161 76.2523 76.2457 76.4516 76.2984C76.6509 76.3512 76.8628 76.3228 77.0416 76.2195C77.2165 76.1112 77.3432 75.9389 77.3952 75.7387C77.4472 75.5384 77.4205 75.3256 77.3207 75.1448C76.8972 74.3406 75.8301 74.1977 75.0328 74.3728C74.6434 74.4508 74.2879 74.6499 74.0164 74.9421C73.6271 75.3992 73.5741 76.031 73.5009 76.6066C73.4202 77.2698 73.4306 77.941 73.5317 78.6013C73.5852 78.7995 73.7137 78.9687 73.8895 79.0725C74.0713 79.1775 74.2869 79.2057 74.4894 79.151C74.6856 79.0964 74.8531 78.967 74.9565 78.7902C75.0502 78.6034 75.0777 78.3899 75.0344 78.1851H75.0332Z" fill="#15C2C4"/>
<path d="M77.6561 78.6623C76.5085 80.3216 74.1135 80.7614 72.2593 80.9354C71.1883 81.0359 70.1692 81.189 69.3065 81.8872C68.7281 82.4056 68.2841 83.0587 68.0128 83.7896C67.915 83.9708 67.8894 84.1829 67.9413 84.3826C67.9932 84.5822 68.1186 84.7543 68.292 84.8639C68.4706 84.9675 68.6825 84.996 68.8819 84.9433C69.0812 84.8905 69.2519 84.7607 69.3571 84.582C69.6249 83.9671 69.8963 83.3376 70.4678 82.9685C71.3542 82.3957 72.5742 82.4974 73.5782 82.3403C75.6415 82.014 77.7624 81.2463 79.0008 79.4558C79.5754 78.625 78.2261 77.8393 77.6561 78.6631V78.6623Z" fill="#15C2C4"/>
<path d="M74.2367 73.6442C74.4941 73.5149 74.7537 73.3917 75.0153 73.2747C75.0861 73.243 75.1572 73.2116 75.2286 73.1804C75.2644 73.1647 75.3018 73.151 75.3368 73.1333C75.1465 73.228 75.259 73.1675 75.3041 73.1479C75.4575 73.0835 75.6117 73.0213 75.7666 72.9613C76.0391 72.8561 76.3159 72.7576 76.5974 72.6771C76.7204 72.6417 76.8442 72.6099 76.9695 72.586C76.9956 72.5809 77.0221 72.5769 77.0474 72.5718C77.1642 72.5494 76.8527 72.5911 76.9438 72.586C76.9917 72.5832 77.0388 72.5781 77.0871 72.5777C77.2936 72.5777 77.4916 72.495 77.6376 72.3477C77.7837 72.2004 77.8657 72.0007 77.8657 71.7924C77.8657 71.5841 77.7837 71.3844 77.6376 71.2371C77.4916 71.0898 77.2936 71.0071 77.0871 71.0071C76.4875 71.0501 75.9001 71.1989 75.3516 71.4469C74.705 71.6958 74.0669 71.9773 73.4483 72.2879C73.271 72.3939 73.1423 72.5662 73.09 72.7673C73.0378 72.9684 73.0662 73.1822 73.1692 73.3623C73.2768 73.5383 73.4475 73.6658 73.6458 73.7183C73.8441 73.7708 74.0549 73.7443 74.2343 73.6442H74.2367Z" fill="#15C2C4"/>
<path d="M60.8084 98.177C62.0153 97.6717 62.9029 96.3456 63.6791 95.3455C64.9657 93.6877 66.1656 91.9624 67.3261 90.2131C67.8739 89.3877 68.411 88.5552 68.9374 87.7154C69.1637 87.3536 69.3871 86.9899 69.6077 86.6242C69.837 86.2429 70.1352 85.8648 69.9826 85.396C69.7026 84.7568 69.2943 84.183 68.7836 83.7107C68.1572 83.0279 67.4837 82.3886 66.8028 81.7619C65.3391 80.4155 63.8247 79.1142 62.2578 77.8903C62.1719 77.809 62.0691 77.7478 61.957 77.7112C61.8449 77.6746 61.7261 77.6635 61.6092 77.6787C61.4923 77.6939 61.3802 77.7351 61.2809 77.7991C61.1816 77.8632 61.0977 77.9487 61.035 78.0493C60.5114 78.7522 59.9282 79.4091 59.4237 80.1269C59.321 80.3071 59.2927 80.5209 59.345 80.7219C59.3972 80.923 59.5257 81.0953 59.7028 81.2016C59.8822 81.3024 60.0932 81.3294 60.2918 81.2768C60.4904 81.2243 60.6612 81.0963 60.7683 80.9197C61.2721 80.2031 61.8564 79.5454 62.3796 78.8425L61.1569 79.0015C62.5973 80.1269 63.9913 81.321 65.3469 82.5492C66.0807 83.214 66.8056 83.8917 67.488 84.6114C67.7469 84.8863 68.0034 85.1643 68.2351 85.4623C68.1444 85.3445 68.2861 85.5322 68.3024 85.5558C68.3413 85.6151 68.3838 85.6736 68.4192 85.7348C68.4468 85.7804 68.4706 85.8303 68.4994 85.8746C68.6162 86.0541 68.4745 85.7898 68.508 85.8907L68.5858 85.2856C67.5627 87.0345 66.4529 88.7344 65.3157 90.4102C64.1727 92.1566 62.9316 93.8358 61.5987 95.4394C61.3332 95.7476 61.0607 96.0523 60.7656 96.3327C60.7053 96.3904 60.6426 96.4458 60.5807 96.5019C60.539 96.5412 60.3506 96.6747 60.5266 96.5514C60.4487 96.6064 60.1276 96.774 60.3923 96.6629C60.1967 96.7239 60.0315 96.8577 59.9303 97.0371C59.829 97.2165 59.7993 97.4281 59.8473 97.6289C59.903 97.8293 60.0349 97.9994 60.2143 98.1023C60.3937 98.2052 60.606 98.2326 60.8053 98.1786L60.8084 98.177Z" fill="#15C2C4"/>
<path d="M25.4968 113.582C27.3444 121.282 30.6048 134.839 31.9619 140.493C31.9861 140.593 32.0297 140.687 32.0901 140.771C32.1505 140.854 32.2266 140.924 32.314 140.978C32.4014 141.031 32.4985 141.067 32.5996 141.083C32.7006 141.099 32.8038 141.094 32.9032 141.07C46.4671 137.78 56.349 135.28 67.7741 132.488C67.8737 132.464 67.9677 132.421 68.0506 132.36C68.1335 132.299 68.2038 132.223 68.2574 132.135C68.3109 132.047 68.3467 131.949 68.3627 131.847C68.3787 131.745 68.3746 131.641 68.3506 131.54C66.9126 125.551 63.3941 110.961 61.9342 104.883C61.9058 104.764 61.8545 104.653 61.7832 104.554C61.7119 104.455 61.622 104.372 61.5186 104.308C61.4153 104.245 61.3005 104.202 61.1809 104.183C61.0613 104.165 60.9392 104.17 60.8216 104.199C56.3591 105.28 36.3376 110.132 26.0691 112.636C25.9698 112.66 25.8762 112.704 25.7936 112.764C25.7111 112.825 25.6412 112.901 25.588 112.989C25.5349 113.077 25.4994 113.175 25.4838 113.277C25.4681 113.378 25.4725 113.482 25.4968 113.582Z" fill="white"/>
<path d="M24.7787 113.927C25.8557 118.415 26.9337 122.902 28.0126 127.39C29.0115 131.545 30.0107 135.701 31.0101 139.857C31.0731 140.295 31.2006 140.721 31.3885 141.122C31.5602 141.397 31.8113 141.614 32.1081 141.742C32.4049 141.87 32.7334 141.903 33.0497 141.838C34.6069 141.555 36.1489 141.092 37.685 140.715C40.53 140.02 43.3741 139.322 46.2173 138.62C51.4313 137.333 56.6443 136.044 61.8565 134.751C63.1713 134.427 64.4861 134.103 65.8009 133.781C66.9427 133.501 68.756 133.427 69.0788 132.014C69.2637 131.205 68.8195 130.149 68.6299 129.36C68.4147 128.465 68.1993 127.57 67.9837 126.675C66.9276 122.287 65.8708 117.898 64.8132 113.51C64.3237 111.478 63.8347 109.447 63.346 107.415C63.1555 106.624 62.9654 105.834 62.7756 105.043C62.7382 104.771 62.6475 104.509 62.5087 104.273C62.37 104.036 62.186 103.83 61.9675 103.666C61.7399 103.529 61.4862 103.442 61.223 103.411C60.9599 103.38 60.6931 103.405 60.4402 103.485C57.6073 104.147 54.7845 104.855 51.9575 105.541C47.6705 106.58 43.3838 107.62 39.0974 108.661C34.9986 109.655 30.9001 110.652 26.8018 111.651C26.2964 111.716 25.8108 111.89 25.3778 112.161C25.1247 112.37 24.9347 112.645 24.8291 112.957C24.7236 113.269 24.7068 113.604 24.7806 113.925C24.8365 114.126 24.9684 114.296 25.1476 114.398C25.3269 114.501 25.5391 114.529 25.7383 114.475C25.935 114.416 26.1014 114.282 26.203 114.102C26.3045 113.923 26.3333 113.71 26.2833 113.509C26.2514 113.315 26.9186 113.239 27.1144 113.191L28.4859 112.857L31.2243 112.189C33.239 111.699 35.2539 111.209 37.2689 110.72C41.4367 109.707 45.6048 108.696 49.7731 107.685C52.97 106.909 56.1671 106.134 59.3642 105.36L60.7614 105.021C60.9724 104.97 61.095 104.884 61.1865 105.091C61.3073 105.455 61.397 105.828 61.4548 106.207C61.8749 107.954 62.2952 109.701 62.7157 111.447C63.7318 115.667 64.7481 119.887 65.7647 124.107C66.216 125.981 66.6669 127.854 67.1175 129.728C67.2008 130.073 67.2838 130.419 67.3666 130.765C67.42 130.986 67.6391 131.571 67.5434 131.703C67.4386 131.846 67.0427 131.86 66.8816 131.899L66.0154 132.111L63.9879 132.608C59.0669 133.818 54.1475 135.035 49.2296 136.257C46.6299 136.901 44.0298 137.542 41.4293 138.181C40.0146 138.529 38.6001 138.875 37.186 139.221L35.1141 139.726L34.0105 139.995L33.4526 140.13C33.307 140.166 32.8348 140.366 32.702 140.312C32.7491 140.331 32.7351 140.312 32.6997 140.204C32.6464 140.043 32.6187 139.868 32.579 139.702L32.2894 138.496L31.6587 135.899C31.1594 133.82 30.6598 131.741 30.1599 129.661C29.0922 125.217 28.0249 120.774 26.9579 116.332C26.7316 115.39 26.5057 114.449 26.2802 113.509C26.0447 112.527 24.5427 112.943 24.7787 113.927Z" fill="#15C2C4"/>
<path d="M50.1541 120.939C50.1891 120.931 50.2261 120.927 50.2607 120.917C50.3261 120.899 50.1167 120.933 50.128 120.935C50.1476 120.935 50.1671 120.933 50.1864 120.93C50.253 120.925 50.318 120.93 50.3841 120.93C50.4893 120.93 50.163 120.886 50.2977 120.919C50.3281 120.926 50.3585 120.932 50.3884 120.94C50.4184 120.949 50.4464 120.959 50.4756 120.968C50.6037 121.007 50.3102 120.886 50.3978 120.934C50.4503 120.964 50.5021 120.993 50.5535 121.025C50.5636 121.031 50.5866 121.053 50.5955 121.054C50.6045 121.056 50.4492 120.933 50.4889 120.971C50.5134 120.995 50.5414 121.016 50.5667 121.04C50.6076 121.079 50.6446 121.122 50.6835 121.164C50.759 121.248 50.5589 120.987 50.6337 121.099C50.6531 121.128 50.6726 121.157 50.6921 121.188C50.7224 121.237 50.7485 121.288 50.775 121.34C50.7809 121.357 50.7885 121.374 50.7976 121.389C50.8042 121.394 50.7267 121.208 50.7454 121.264C50.7571 121.298 50.7715 121.332 50.7843 121.366C50.8045 121.426 50.8215 121.488 50.8353 121.55C50.8423 121.581 50.8478 121.612 50.854 121.644C50.8564 121.657 50.8575 121.671 50.8603 121.683C50.877 121.764 50.8412 121.473 50.8427 121.556C50.8427 121.62 50.8529 121.683 50.8529 121.747C50.8416 121.815 50.8375 121.884 50.8408 121.952C50.8322 121.92 50.8797 121.722 50.8521 121.851C50.8459 121.882 50.84 121.913 50.8322 121.944C50.8229 121.983 50.7622 122.101 50.7711 122.138C50.7711 122.142 50.849 121.963 50.8233 122.013C50.8124 122.033 50.8042 122.054 50.7941 122.074C50.7777 122.107 50.7602 122.139 50.7415 122.17C50.719 122.198 50.6989 122.229 50.6812 122.261C50.6812 122.261 50.798 122.118 50.759 122.157C50.7466 122.171 50.7357 122.186 50.7236 122.2C50.6723 122.255 50.6181 122.307 50.5613 122.357C50.4978 122.415 50.7221 122.239 50.6493 122.287C50.6329 122.298 50.6169 122.31 50.6006 122.321C50.5617 122.346 50.5227 122.369 50.4838 122.391C50.3069 122.497 50.1785 122.67 50.1262 122.871C50.0739 123.071 50.102 123.285 50.2043 123.465C50.3115 123.642 50.4822 123.77 50.6808 123.822C50.8794 123.875 51.0905 123.848 51.2698 123.747C51.6342 123.539 51.9337 123.233 52.1345 122.862C52.3352 122.492 52.4294 122.072 52.4062 121.65C52.3974 121.241 52.2875 120.84 52.0865 120.484C51.8854 120.128 51.5995 119.828 51.2546 119.612C50.7927 119.358 50.2531 119.29 49.7434 119.42C49.545 119.476 49.3766 119.61 49.2746 119.79C49.1727 119.971 49.1453 120.185 49.1983 120.386C49.2568 120.585 49.3891 120.753 49.5676 120.855C49.7461 120.958 49.9569 120.987 50.156 120.936L50.1541 120.939Z" fill="#15C2C4"/>
<path d="M53.9909 139.289C53.7848 139.677 53.4549 139.983 53.0547 140.158C52.4127 140.446 51.9078 140.155 51.1631 139.673C50.5643 140.525 48.5521 140.524 47.4585 140.596C47.3129 140.605 45.44 140.236 44.7381 139.353C43.9182 138.321 43.5021 136.966 42.9302 135.763C42.4206 134.691 42.8862 130.794 41.1367 129.045C42.7687 128.983 48.1293 126.857 50.8217 125.795C51.7996 125.751 53.1699 125.859 53.8383 126.174C54.5589 126.514 55.0245 127.342 55.6427 127.838C56.8908 128.84 58.2226 129.69 59.4781 130.658C60.0231 131.077 60.7195 131.367 60.9574 132.051C61.0944 132.426 61.1062 132.836 60.9911 133.219C60.8759 133.602 60.6401 133.936 60.3193 134.171C59.399 134.764 58.6454 134.296 57.8485 133.805C56.992 133.277 55.8849 133.052 55.1919 132.318C55.6852 133.389 56.3987 134.618 56.8165 135.514C57.1882 136.309 58.003 137.612 57.8313 138.495C57.7163 138.965 57.4223 139.371 57.013 139.623C56.6037 139.876 56.1121 139.957 55.6447 139.847C54.5208 139.611 54.3386 139.103 54.0357 138.454C54.0723 138.625 54.0957 138.736 54.0957 138.736C54.1222 138.927 54.0854 139.121 53.9909 139.289Z" fill="white"/>
<path d="M50.7694 126.582C51.4621 126.539 52.1573 126.578 52.8412 126.697C53.454 126.821 54.0005 127.167 54.3782 127.669C55.5461 128.968 57.1056 129.868 58.5012 130.897C58.8091 131.123 59.1089 131.361 59.425 131.576C59.7139 131.726 59.9677 131.936 60.1693 132.193C60.2345 132.311 60.2758 132.441 60.2909 132.575C60.306 132.709 60.2945 132.845 60.2572 132.975C60.2199 133.104 60.1575 133.225 60.0736 133.33C59.9897 133.436 59.886 133.523 59.7684 133.587C59.119 133.892 58.3926 133.181 57.8487 132.91C57.1439 132.629 56.4679 132.279 55.8302 131.866C55.6516 131.762 55.4397 131.733 55.2403 131.786C55.0409 131.839 54.8702 131.969 54.7651 132.148C54.666 132.329 54.6397 132.541 54.6917 132.741C54.7438 132.941 54.8702 133.114 55.0446 133.222C55.6585 133.625 56.3118 133.964 56.9942 134.233C57.6775 134.565 58.2824 135.065 59.049 135.194C59.4165 135.245 59.7908 135.212 60.1438 135.096C60.4968 134.981 60.8193 134.787 61.0873 134.528C61.3552 134.269 61.5617 133.952 61.6911 133.601C61.8205 133.251 61.8697 132.875 61.8348 132.502C61.8076 132.13 61.6993 131.768 61.5176 131.442C61.336 131.116 61.0854 130.835 60.7837 130.618C60.1775 130.153 59.5414 129.717 58.9216 129.27C58.2046 128.753 57.4762 128.251 56.7681 127.721C56.2001 127.268 55.6697 126.769 55.1821 126.229C54.0375 125.048 52.3277 124.944 50.7733 125.01C49.7747 125.053 49.7697 126.624 50.7733 126.581L50.7694 126.582Z" fill="#15C2C4"/>
<path d="M54.6126 132.911C55.0989 133.924 55.6599 134.898 56.1457 135.911C56.4871 136.623 57.1108 137.521 57.0761 138.281C57.0508 138.849 56.3119 139.189 55.7942 139.076C55.6153 139.042 55.4419 138.984 55.2787 138.902C55.2324 138.876 55.1872 138.847 55.1436 138.817C55.2018 138.863 55.1974 138.856 55.1304 138.798C55.1032 138.775 54.9747 138.617 55.0716 138.746C54.8882 138.457 54.7308 138.152 54.6014 137.835C54.5498 137.746 54.4813 137.668 54.3999 137.606C54.3184 137.543 54.2256 137.498 54.1267 137.472C54.0278 137.445 53.9247 137.439 53.8234 137.453C53.7221 137.467 53.6245 137.501 53.5362 137.553C53.448 137.605 53.3707 137.674 53.3089 137.756C53.247 137.839 53.2018 137.932 53.1759 138.032C53.1499 138.132 53.1437 138.236 53.1576 138.338C53.1715 138.44 53.2051 138.538 53.2567 138.628C53.5872 139.293 53.8687 139.941 54.5675 140.298C54.9956 140.53 55.473 140.654 55.9589 140.66C56.4448 140.665 56.9248 140.552 57.358 140.33C57.7701 140.11 58.1092 139.772 58.3333 139.359C58.5574 138.947 58.6567 138.477 58.6189 138.008C58.5142 137.033 58.0116 136.175 57.5849 135.313C57.0547 134.242 56.4747 133.196 55.9573 132.118C55.8518 131.94 55.681 131.81 55.4818 131.758C55.2826 131.705 55.0709 131.733 54.8922 131.837C54.7171 131.945 54.5902 132.117 54.5381 132.317C54.486 132.517 54.5127 132.73 54.6126 132.911Z" fill="#15C2C4"/>
<path d="M53.3181 138.737C53.3527 138.995 53.0798 139.281 52.7937 139.415C52.3577 139.62 51.9092 139.221 51.5565 138.995C51.4078 138.907 51.2347 138.872 51.0641 138.894C50.8935 138.916 50.7349 138.995 50.6129 139.117C50.31 139.51 49.7615 139.596 49.2892 139.67C48.732 139.745 48.1711 139.788 47.609 139.801C47.5436 139.804 47.4767 139.804 47.4117 139.808C47.5814 139.799 47.5047 139.823 47.3864 139.796C47.1637 139.745 46.9433 139.691 46.7246 139.622C46.2123 139.499 45.7409 139.243 45.357 138.879C44.9002 138.289 44.5373 137.631 44.2813 136.928C44.1299 136.579 43.9858 136.228 43.834 135.88C43.7589 135.708 43.6713 135.54 43.6004 135.366C43.6697 135.538 43.5942 135.327 43.5783 135.264C43.3626 134.366 43.3634 133.274 43.2236 132.268C43.0336 130.903 42.663 129.504 41.6851 128.489C40.9844 127.763 39.885 128.875 40.5842 129.6C41.404 130.451 41.6178 131.764 41.7462 132.899C41.8611 133.908 41.8007 135.065 42.1939 136.015C42.5127 136.785 42.8448 137.562 43.203 138.314C43.4957 139.034 43.9373 139.682 44.4982 140.216C45.3667 140.925 46.439 141.332 47.5553 141.376C48.3168 141.367 49.0763 141.296 49.8265 141.163C50.5027 141.041 51.2723 140.797 51.7115 140.229L50.7682 140.351C51.6554 140.922 52.5718 141.319 53.5774 140.772C54.2555 140.404 54.9843 139.574 54.8729 138.737C54.8665 138.531 54.7824 138.335 54.6378 138.189C54.4931 138.043 54.2988 137.959 54.0943 137.952C53.7171 137.952 53.2597 138.314 53.3157 138.737L53.3181 138.737Z" fill="#15C2C4"/>
<path d="M43.7999 81.4158C44.2519 84.5524 44.348 87.7308 44.0864 90.8894C43.4978 96.74 42.7367 101.334 44.3652 107.06C44.83 108.695 50.831 122.092 52.2979 125.227C51.3203 125.549 43.2128 128.966 41.1371 129.045C39.4631 126.315 30.4159 108.75 30.0094 106.673C29.3764 103.437 27.6102 90.1257 27.3104 85.3007C26.9805 81.3548 27.1909 77.3819 27.9356 73.4939" fill="white"/>
<path d="M42.9095 81.0838C43.161 83.018 43.3642 84.9597 43.4234 86.9108C43.441 89.1585 43.3064 91.4048 43.0205 93.6339C42.5732 97.9002 42.3388 102.151 43.3709 106.356C43.8139 108.16 44.6224 109.856 45.352 111.555C46.4319 114.068 47.5398 116.573 48.6556 119.071C49.6331 121.261 50.6087 123.452 51.6243 125.624L52.0915 124.471C50.8866 124.874 49.7141 125.398 48.529 125.857C46.7492 126.548 44.9604 127.232 43.1346 127.791C42.7238 127.916 42.3108 128.035 41.8927 128.133C41.737 128.17 41.577 128.2 41.4185 128.231C41.3882 128.237 41.3578 128.242 41.3274 128.247C41.2223 128.264 41.4832 128.233 41.3364 128.247C41.2702 128.253 41.2044 128.259 41.1378 128.262L41.8102 128.651C40.3009 126.182 39.0189 123.551 37.6914 120.98C35.8847 117.482 34.1017 113.968 32.4223 110.405C32.1046 109.731 31.7912 109.055 31.4899 108.374C31.4323 108.244 31.3754 108.114 31.3194 107.984C31.291 107.918 31.2629 107.852 31.2345 107.787C31.1567 107.604 31.2439 107.812 31.2014 107.709C31.1146 107.498 31.0286 107.286 30.9499 107.072C30.6393 106.039 30.4324 104.977 30.3321 103.902C29.6629 99.5312 29.1 95.1413 28.6071 90.7475C28.0652 85.9178 27.6483 81.0563 28.2922 76.2137C28.4035 75.3749 28.541 74.5394 28.6877 73.7058C28.7367 73.505 28.7075 73.2929 28.6061 73.1132C28.5047 72.9335 28.3389 72.7999 28.1427 72.7398C27.9435 72.6863 27.7314 72.7139 27.5522 72.8168C27.373 72.9197 27.2412 73.0894 27.185 73.2895C26.6172 76.3495 26.3563 79.4593 26.4064 82.572C26.4602 84.7383 26.64 86.8943 26.8643 89.0485C27.3447 93.6457 27.9379 98.2367 28.604 102.808C28.7562 104.217 28.9836 105.617 29.2853 107.001C29.6049 108.022 30.0121 109.014 30.5022 109.964C32.1023 113.467 33.8483 116.904 35.602 120.33C37.0876 123.231 38.5607 126.151 40.1864 128.975C40.2771 129.133 40.369 129.29 40.464 129.447C40.5326 129.565 40.6308 129.663 40.7487 129.732C40.8667 129.8 41.0003 129.836 41.1363 129.836C42.6802 129.76 44.2472 129.106 45.6868 128.594C47.4449 127.968 49.1827 127.285 50.9189 126.6C51.4445 126.393 51.97 126.168 52.5042 125.989C52.6178 125.955 52.7224 125.895 52.8102 125.815C52.8981 125.735 52.9669 125.636 53.0118 125.525C53.0566 125.414 53.0762 125.295 53.0692 125.176C53.0622 125.056 53.0288 124.94 52.9713 124.835C50.947 120.506 49.0192 116.126 47.119 111.74C46.3836 110.184 45.727 108.592 45.1519 106.969C43.926 103.16 44.0533 99.0605 44.4282 95.128C44.6637 92.6613 45.0203 90.2068 44.9977 87.7232C44.9544 85.5025 44.7774 83.2865 44.4679 81.0873C44.4616 80.8811 44.3775 80.685 44.2328 80.5391C44.0882 80.3932 43.8938 80.3084 43.6893 80.302C43.4832 80.3033 43.2859 80.3864 43.1401 80.5334C42.9944 80.6804 42.9119 80.8794 42.9107 81.0873L42.9095 81.0838Z" fill="#15C2C4"/>
<path d="M37.0219 56.7472C36.3345 58.1963 35.7936 59.7115 35.4071 61.2699C35.0753 62.4639 34.8153 63.6771 34.6285 64.9027C34.5882 65.0698 34.601 65.2453 34.6652 65.4046C34.7295 65.5638 34.8418 65.6986 34.9863 65.7898C35.9825 66.3297 37.004 66.8264 38.0294 67.3066C39.0521 67.8385 40.1206 68.2756 41.2217 68.6126C42.1949 68.8639 42.6072 67.3494 41.6355 67.0981C40.623 66.7888 39.6409 66.3865 38.7013 65.8962C37.7153 65.432 36.7327 64.9538 35.7738 64.4335L36.1316 65.3205C36.3113 64.141 36.5593 62.973 36.8744 61.8227C37.2262 60.3475 37.7267 58.9125 38.3681 57.54C38.8154 56.6369 37.4727 55.8422 37.0235 56.7472H37.0219Z" fill="#15C2C4"/>
<path d="M41.7971 66.8304C40.9597 67.6491 40.2463 68.5877 39.6798 69.6159C39.5967 69.7669 39.5638 69.9407 39.5857 70.112C39.6076 70.2832 39.6833 70.4429 39.8016 70.5677C41.6274 72.5157 43.6704 74.2877 45.6302 76.0951C48.4806 78.7259 51.3497 81.3414 54.3197 83.8332C55.3021 84.7371 56.3632 85.5499 57.4901 86.2618C58.3653 86.757 59.1509 85.4007 58.2761 84.9056C57.9065 84.686 57.5518 84.4417 57.2145 84.1745L57.0685 84.063L56.9934 84.0052C56.9023 83.9346 57.0903 84.081 56.9969 84.008C56.8696 83.9082 56.7427 83.8073 56.6165 83.7064C56.3347 83.4802 56.0548 83.2515 55.7768 83.0201C54.3944 81.8723 53.0432 80.6861 51.7005 79.4916C48.8716 76.9747 46.0806 74.4139 43.3275 71.8093C42.51 71.0377 41.6718 70.2779 40.9025 69.4569L41.0244 70.4087C41.5245 69.4971 42.1561 68.6655 42.8985 67.9412C43.6124 67.2297 42.5111 66.1189 41.7971 66.8304Z" fill="#15C2C4"/>
<path d="M52.2515 55.1006C52.0014 55.8147 51.8129 56.5492 51.6882 57.296C51.4758 58.1916 51.3532 59.1065 51.3223 60.0269C51.3223 60.2352 51.4043 60.4349 51.5503 60.5822C51.6963 60.7295 51.8944 60.8122 52.1009 60.8122C52.3074 60.8122 52.5054 60.7295 52.6514 60.5822C52.7974 60.4349 52.8795 60.2352 52.8795 60.0269C52.8795 59.8549 52.8892 59.6833 52.904 59.5121C52.9122 59.4167 52.9223 59.3217 52.9332 59.2263C52.9366 59.1711 52.9434 59.1161 52.9534 59.0617C52.9032 59.2691 52.9499 59.0892 52.9565 59.0433C53.0231 58.5772 53.1076 58.1139 53.2022 57.6525C53.3254 56.9265 53.5098 56.2124 53.7534 55.518C53.8074 55.317 53.7805 55.1027 53.6783 54.9217C53.5762 54.7408 53.4073 54.6079 53.2084 54.5521C53.0093 54.5028 52.7991 54.5324 52.6209 54.6346C52.4427 54.7369 52.3101 54.904 52.2503 55.1018L52.2515 55.1006Z" fill="#15C2C4"/>
<path d="M61.6361 37.9859C61.8245 38.7234 61.6338 40.3976 60.328 40.4942C58.6085 40.4224 58.5813 38.3892 59.1905 37.4551C59.6892 36.6906 61.093 36.4149 61.6361 37.9859Z" fill="#15C2C4"/>
<path d="M63.1567 46.6026L60.9548 46.4589C60.4997 46.4291 60.0412 46.3757 59.6795 46.7255C59.4061 47.0588 59.2557 47.4773 59.254 47.9098C59.1731 49.1886 59.5924 50.4484 60.4219 51.419C60.5683 51.5654 60.7662 51.6476 60.9724 51.6476C61.1786 51.6476 61.3764 51.5654 61.5228 51.419C61.6638 51.2691 61.7425 51.0704 61.7425 50.8638C61.7425 50.6571 61.6638 50.4584 61.5228 50.3085L61.466 50.239C61.5357 50.3309 61.5528 50.3533 61.5174 50.3054C61.4878 50.2579 61.4516 50.2135 61.4208 50.1668C61.3648 50.082 61.3118 49.9952 61.262 49.9065C61.201 49.7968 61.1444 49.685 61.0923 49.5711C61.0689 49.5197 60.9817 49.4003 61.0833 49.555C61.0577 49.505 61.0375 49.4523 61.023 49.398C60.9385 49.1653 60.8734 48.926 60.8283 48.6825C60.8217 48.6433 60.8151 48.6075 60.8092 48.5699C60.8233 48.6845 60.8251 48.6976 60.8147 48.6091C60.81 48.5526 60.8038 48.496 60.8003 48.4395C60.7933 48.3184 60.7933 48.197 60.8003 48.0759C60.8003 48.048 60.8034 48.0205 60.8057 47.9926C60.8146 47.9047 60.8114 47.9197 60.7964 48.0378C60.7969 47.9827 60.8066 47.9282 60.8252 47.8764C60.8365 47.8234 60.8513 47.7716 60.8641 47.7194C60.8901 47.6385 60.8831 47.6516 60.8431 47.7586C60.8136 47.8145 60.7712 47.8624 60.7194 47.8981C60.6676 47.9339 60.608 47.9565 60.5457 47.964C60.2965 48.0358 60.5184 48.0013 60.6021 48.0068L60.8155 48.0205L61.2772 48.0508L63.1594 48.1737C63.3656 48.1726 63.5631 48.0896 63.7088 47.9425C63.8546 47.7955 63.937 47.5963 63.938 47.3883C63.9335 47.1815 63.85 46.9844 63.7049 46.8381C63.5599 46.6918 63.3645 46.6076 63.1594 46.603L63.1567 46.6026Z" fill="#15C2C4"/>
<path d="M77.3261 13.7089C80.4627 10.3477 83.6417 7.02664 86.7973 3.68355C87.5297 2.90792 88.2607 2.13111 88.9903 1.35313C89.6785 0.61768 88.5784 -0.495113 87.8878 0.242299C84.6667 3.69101 81.4071 7.1036 78.1666 10.535C77.5178 11.2214 76.8706 11.9092 76.2252 12.5985C75.5385 13.3339 76.6374 14.4467 77.3261 13.7089Z" fill="#FCEB3B"/>
<path d="M80.5446 19.9325C85.7947 17.1725 91.088 14.4973 96.3583 11.7766C97.2505 11.316 96.4634 9.96017 95.5723 10.4204C90.3024 13.1411 85.0091 15.8167 79.7586 18.5763C78.8699 19.0435 79.6563 20.3994 80.5446 19.9325Z" fill="#FCEB3B"/>
<path d="M81.8365 26.3637C85.7762 25.7665 89.7202 25.2003 93.6576 24.5866C93.8562 24.5303 94.0248 24.3974 94.1268 24.2165C94.2288 24.0357 94.2561 23.8216 94.2026 23.6206C94.1437 23.4223 94.0113 23.2546 93.833 23.1522C93.6546 23.0498 93.444 23.0207 93.2449 23.0709C89.3079 23.6846 85.364 24.2509 81.4243 24.8481C81.2257 24.9044 81.0572 25.0374 80.9552 25.2182C80.8531 25.399 80.8259 25.6131 80.8793 25.814C80.9383 26.0122 81.0707 26.1799 81.249 26.2822C81.4273 26.3846 81.6378 26.4138 81.8369 26.3637H81.8365Z" fill="#FCEB3B"/>
</g>
<rect y="99.2825" width="194" height="51.3529" fill="white"/>
<defs>
<clipPath id="clip0_657_17977">
<rect width="136.941" height="142.647" fill="white" transform="translate(23.9648)"/>
</clipPath>
</defs>
</svg>
