<svg width="123" height="127" viewBox="0 0 123 127" fill="none" xmlns="http://www.w3.org/2000/svg">
<g clip-path="url(#clip0_657_18032)">
<path d="M51.1289 12.5C53.5277 10.2621 60.3596 14.9165 63.2887 12.4971C85.7033 12.4999 108.162 12.4999 109.868 12.4999C112.794 14.9145 119.641 10.2955 121.924 12.5C121.924 18.802 122.037 106.469 122.037 106.587C114.74 106.585 57.8841 106.585 51.1393 106.584C51.1393 106.172 51.1145 9.78242 51.1417 12.568L51.1289 12.5Z" fill="white"/>
<path d="M122.037 105.62C118.974 105.62 115.912 105.62 112.851 105.62H96.7334H51.1388L52.1016 106.586C52.1016 105.714 52.1016 104.842 52.1016 103.97C52.1016 101.676 52.1016 99.3826 52.1016 97.0885C52.1016 93.7046 52.1016 90.3209 52.1016 86.9373L52.0992 74.626C52.0992 70.1365 52.0992 65.6472 52.0992 61.158V47.5206C52.0992 43.2818 52.0992 39.0438 52.0992 34.8068C52.0992 31.2365 52.0992 27.6665 52.0992 24.0967C52.0992 21.5231 52.1002 18.9498 52.1024 16.377C52.1024 15.1464 52.1272 13.9134 52.108 12.6827C52.1056 12.533 52.1605 12.3206 52.0755 12.766L51.1468 13.4751L50.2182 12.766C50.213 12.7395 50.1833 12.391 50.1849 12.5685C50.1887 12.8234 50.2914 13.0668 50.4711 13.2471C50.6509 13.4274 50.8935 13.5304 51.1477 13.5343C54.1843 13.5375 57.2211 13.5363 60.258 13.5306C65.3926 13.5266 70.5259 13.5215 75.6578 13.5154C81.6046 13.5089 87.5514 13.5021 93.4982 13.4948C98.9748 13.4887 104.452 13.4826 109.929 13.4767C113.652 13.473 117.376 13.47 121.1 13.4679H121.929L120.967 12.5021C120.967 13.8453 120.968 15.1885 120.97 16.5315C120.972 19.1044 120.975 21.6772 120.978 24.25C120.982 27.7417 120.986 31.2337 120.99 34.726C120.995 38.8411 121 42.9563 121.005 47.0715C121.011 51.4636 121.016 55.8558 121.022 60.2481C121.027 64.6198 121.032 68.9913 121.038 73.3627C121.043 77.4138 121.049 81.4664 121.053 85.5204L121.067 95.6848C121.07 98.1128 121.073 100.541 121.076 102.969C121.076 104.123 121.056 105.281 121.08 106.435C121.08 106.486 121.08 106.538 121.08 106.589C121.08 107.832 123.006 107.834 123.006 106.589C123.006 105.792 123.005 104.995 123.003 104.198L122.994 97.7589L122.982 88.209C122.977 84.2854 122.972 80.3617 122.967 76.4381C122.962 72.1187 122.956 67.7994 122.951 63.48C122.945 59.0638 122.94 54.6477 122.934 50.2318L122.919 37.5852C122.914 33.9169 122.91 30.2488 122.906 26.5809C122.903 23.7553 122.9 20.9302 122.897 18.1054C122.895 16.4327 122.893 14.7598 122.892 13.0868C122.892 12.8923 122.892 12.6979 122.892 12.5037C122.889 12.2486 122.786 12.0051 122.606 11.8247C122.426 11.6444 122.184 11.5415 121.929 11.5378C118.513 11.5378 115.097 11.5404 111.68 11.5455C106.352 11.5506 101.023 11.5564 95.6936 11.5628L77.8191 11.5833C72.5147 11.5895 67.2106 11.595 61.9067 11.5998C58.5398 11.6028 55.173 11.6045 51.8063 11.605H51.1412L52.104 12.5709C52.1033 12.4646 52.0915 12.3587 52.0687 12.255C52.0126 12.0511 51.8915 11.8714 51.7238 11.7433C51.5561 11.6152 51.3512 11.5459 51.1404 11.5459C50.9307 11.5499 50.7277 11.6208 50.5608 11.7483C50.394 11.8758 50.2719 12.0532 50.2122 12.255C50.0453 13.129 50.1721 14.121 50.1721 15.0031C50.1697 17.2744 50.1685 19.5457 50.1685 21.817C50.1685 25.181 50.1685 28.5446 50.1685 31.9078C50.1685 36.0149 50.1685 40.1219 50.1685 44.2288V57.6847C50.1685 62.2329 50.1685 66.7811 50.1685 71.3293C50.1685 75.5759 50.1693 79.8229 50.1709 84.0701C50.1709 87.6667 50.1709 91.2633 50.1709 94.8599C50.1709 97.4574 50.1709 100.055 50.1709 102.653C50.1709 103.901 50.152 105.151 50.1709 106.399C50.1709 106.461 50.1709 106.524 50.1709 106.587C50.1745 106.842 50.2771 107.085 50.4569 107.265C50.6366 107.446 50.8794 107.549 51.1336 107.552H94.5371H111.142C114.567 107.552 117.993 107.552 121.418 107.552H122.031C123.276 107.552 123.278 105.62 122.037 105.62Z" fill="#15C2C4"/>
<path d="M56.7057 35.8559C48.2616 38.1674 10.5259 48.5568 2.11753 50.8583C1.70943 50.9695 1.36186 51.2384 1.15084 51.606C0.939827 51.9737 0.882544 52.4102 0.991525 52.8201C2.41558 58.2126 4.75303 67.3227 5.49594 70.1043C7.22526 76.5813 18.0561 116.047 20.4557 124.862C20.5667 125.272 20.8353 125.621 21.2026 125.833C21.5699 126.045 22.0059 126.101 22.4149 125.991C31.1574 123.644 68.9228 113.516 77.2934 111.269C77.4975 111.215 77.6889 111.121 77.8565 110.992C78.0241 110.863 78.1646 110.702 78.2699 110.518C78.3752 110.335 78.4433 110.132 78.4702 109.922C78.4971 109.712 78.4823 109.498 78.4267 109.294C75.9861 100.318 65.061 60.4763 63.2118 53.5521C62.6313 51.379 59.9184 41.5695 58.6721 36.9863C58.6172 36.7824 58.5227 36.5914 58.3941 36.4242C58.2655 36.257 58.1053 36.1168 57.9226 36.0118C57.74 35.9068 57.5385 35.839 57.3296 35.8123C57.1208 35.7855 56.9088 35.8003 56.7057 35.8559Z" fill="white"/>
<path d="M56.4484 34.9264C53.1382 35.8326 49.8289 36.7412 46.5206 37.652L31.5019 41.7817L15.891 46.0751C11.9288 47.1641 7.96676 48.2527 4.00482 49.3408L2.15074 49.8491C1.50142 49.9872 0.918851 50.3442 0.500043 50.8608C0.245146 51.2198 0.0794028 51.6346 0.0166065 52.0709C-0.0461898 52.5071 -0.00422254 52.952 0.139015 53.3687C0.958414 56.4759 1.76859 59.5856 2.56953 62.6977C3.507 66.3135 4.44447 69.9289 5.42325 73.5338C6.48815 77.4574 7.55786 81.3799 8.63238 85.3011C10.0337 90.4272 11.4361 95.553 12.8396 100.679C14.181 105.578 15.5224 110.477 16.8638 115.377C17.3882 117.293 17.9121 119.208 18.4355 121.123C18.7989 122.451 19.1174 123.802 19.5258 125.117C19.6507 125.553 19.8855 125.949 20.2076 126.266C20.5297 126.584 20.9281 126.813 21.3642 126.931C21.9416 127.041 22.5376 126.998 23.0935 126.807L25.0447 126.284L30.4268 124.84L44.9854 120.936L60.879 116.673L73.7493 113.221L76.0077 112.615C76.7251 112.48 77.4258 112.267 78.0972 111.979C78.4952 111.761 78.8291 111.442 79.0653 111.053C79.3015 110.665 79.4318 110.221 79.4431 109.766C79.4244 109.319 79.3408 108.876 79.1952 108.453C79.0187 107.804 78.8419 107.155 78.6649 106.507C77.5786 102.527 76.4907 98.5468 75.4012 94.5673C73.998 89.4372 72.5947 84.307 71.1912 79.1766C69.8401 74.2356 68.4896 69.2945 67.1397 64.3533C66.2251 60.9997 65.3135 57.6462 64.4051 54.2927C63.2394 49.965 62.042 45.6462 60.8554 41.3241C60.5048 40.0471 60.1549 38.7699 59.8056 37.4926C59.6207 36.815 59.4678 36.1244 58.9568 35.6061C58.6326 35.2847 58.231 35.053 57.7911 34.9334C57.3512 34.8139 56.888 34.8106 56.4464 34.924C55.2386 35.2 55.7497 37.0628 56.9583 36.7868C57.5415 36.6532 57.7148 37.1466 57.8408 37.6134C57.9983 38.1921 58.1564 38.7706 58.3149 39.349C58.696 40.7417 59.0782 42.1345 59.4614 43.5274C60.2038 46.2293 60.946 48.9312 61.6882 51.633C62.4263 54.3293 63.1483 57.0316 63.882 59.7298C65.0621 64.0674 66.2455 68.4045 67.4321 72.741C68.834 77.8727 70.237 83.004 71.6413 88.135C72.9049 92.7535 74.1681 97.3719 75.4309 101.99C75.8983 103.699 76.3651 105.408 76.8312 107.117L77.3487 109.014C77.4289 109.312 77.5934 109.666 77.4691 109.962C77.3226 110.312 76.9508 110.358 76.6267 110.445C73.2442 111.352 69.8613 112.26 66.4778 113.167L51.5718 117.165L36.1202 121.31L24.3355 124.471L22.4798 124.969C22.1364 125.061 21.7798 125.174 21.5074 124.861C21.35 124.589 21.248 124.288 21.2074 123.976C20.8164 122.541 20.4243 121.105 20.0312 119.67C18.8527 115.36 17.6732 111.051 16.4928 106.741C15.0941 101.633 13.6956 96.524 12.2972 91.4151C11.0483 86.85 9.80077 82.2846 8.55456 77.719C7.80724 74.9785 7.05229 72.24 6.32502 69.4942C4.85323 63.9187 3.34133 58.3402 1.96501 52.7385C1.73596 51.8077 2.58397 51.7324 3.28116 51.5425L5.29649 50.9896L10.6782 49.5115C15.4341 48.2044 20.1899 46.8968 24.9456 45.5886L40.5199 41.3052C44.7295 40.1478 48.9393 38.9909 53.1494 37.8343C54.42 37.4855 55.6903 37.1368 56.9603 36.788C58.1541 36.462 57.6474 34.5984 56.4484 34.9264Z" fill="#15C2C4"/>
<path d="M55.9285 65.4205C50.6067 66.8512 45.2849 68.2825 39.963 69.7143C35.32 70.9704 30.6769 72.2266 26.0338 73.4827C23.2022 74.2436 20.3645 74.9809 17.5328 75.7415C17.3296 75.7977 17.1395 75.8935 16.9732 76.0234C16.8069 76.1533 16.6678 76.3148 16.5637 76.4987C16.4597 76.6826 16.3927 76.8852 16.3667 77.095C16.3408 77.3049 16.3562 77.5178 16.4122 77.7216C16.4683 77.9254 16.5637 78.1162 16.6933 78.283C16.8228 78.4498 16.9838 78.5894 17.1671 78.6938C17.3503 78.7982 17.5523 78.8653 17.7615 78.8914C17.9706 78.9175 18.1829 78.902 18.386 78.8458C23.0826 77.5846 27.7848 76.3463 32.4789 75.0759C37.0215 73.8463 41.5647 72.619 46.1085 71.3941L56.7817 68.5248C57.192 68.4113 57.5406 68.1389 57.7508 67.7675C57.9609 67.3962 58.0154 66.9563 57.9023 66.5446C57.7891 66.133 57.5176 65.7833 57.1475 65.5725C56.7773 65.3616 56.3388 65.307 55.9285 65.4205Z" fill="#15C2C4"/>
<path d="M59.1664 77.5413C53.8446 78.9721 48.5227 80.4034 43.2009 81.8352C38.5581 83.0908 33.9152 84.3467 29.2721 85.6031C26.4408 86.3645 23.6028 87.1017 20.7711 87.8623C20.3608 87.9758 20.0122 88.2482 19.802 88.6196C19.5919 88.9909 19.5374 89.4308 19.6505 89.8425C19.7637 90.2541 20.0352 90.6038 20.4053 90.8146C20.7755 91.0255 21.214 91.0801 21.6243 90.9666C26.3209 89.7054 31.0231 88.4672 35.7172 87.1967C40.2598 85.9669 44.8031 84.7395 49.3472 83.5145L60.02 80.6456C60.4303 80.5321 60.7789 80.2597 60.9891 79.8884C61.1992 79.517 61.2537 79.0772 61.1406 78.6655C61.0274 78.2538 60.7559 77.9041 60.3857 77.6933C60.0156 77.4825 59.5771 77.4278 59.1668 77.5413H59.1664Z" fill="#15C2C4"/>
<path d="M62.4028 89.6602C57.081 91.091 51.7592 92.5224 46.4374 93.9545C41.7943 95.21 37.1512 96.466 32.5082 97.7224C29.6769 98.4834 26.8392 99.221 24.0076 99.9812C23.8044 100.037 23.6142 100.133 23.4479 100.263C23.2817 100.393 23.1425 100.554 23.0384 100.738C22.9344 100.922 22.8674 101.125 22.8414 101.335C22.8154 101.544 22.8308 101.757 22.8868 101.961C22.9999 102.373 23.2713 102.722 23.6415 102.933C23.8247 103.038 24.0267 103.105 24.2359 103.131C24.445 103.157 24.6572 103.142 24.8604 103.085C29.557 101.825 34.2595 100.586 38.9533 99.3156C43.4964 98.0863 48.0397 96.859 52.5833 95.6338L63.2561 92.7649C63.4593 92.7087 63.6494 92.6129 63.8158 92.483C63.9821 92.353 64.1212 92.1915 64.2253 92.0076C64.3294 91.8237 64.3963 91.6211 64.4223 91.4112C64.4483 91.2014 64.4329 90.9884 64.3769 90.7846C64.3208 90.5807 64.2253 90.3899 64.0958 90.2231C63.9663 90.0563 63.8053 89.9167 63.622 89.8123C63.4387 89.7079 63.2367 89.6407 63.0275 89.6146C62.8183 89.5885 62.606 89.604 62.4028 89.6602Z" fill="#15C2C4"/>
<path d="M68.368 37.512H66.944C66.976 37.704 67.008 38.112 67.008 38.288C67.008 38.504 67.008 38.72 67 38.92H66C65.696 38.92 65.24 38.896 64.872 38.856V40.12C65.24 40.088 65.752 40.08 66 40.08H66.904C66.76 41.088 66.424 41.92 65.728 42.64C65.36 43.024 64.92 43.32 64.544 43.528L65.672 44.44C67.152 43.376 67.88 42.104 68.168 40.08H69.728C69.728 40.952 69.616 42.344 69.424 42.784C69.344 42.984 69.256 43.08 68.984 43.08C68.68 43.08 68.272 43.032 67.896 42.96L68.048 44.256C68.424 44.288 68.904 44.328 69.4 44.328C70.008 44.328 70.344 44.08 70.52 43.64C70.856 42.8 70.96 40.616 70.992 39.696C70.992 39.616 71.024 39.384 71.048 39.256L70.224 38.856C70 38.896 69.76 38.92 69.56 38.92H68.28C68.296 38.712 68.304 38.488 68.312 38.264C68.32 38.072 68.344 37.704 68.368 37.512ZM78.704 37.712H77.24C77.272 37.952 77.296 38.224 77.296 38.576V40.232C77.296 41.336 77.184 41.904 76.648 42.472C76.168 42.968 75.544 43.264 74.712 43.448L75.728 44.52C76.312 44.336 77.152 43.928 77.688 43.368C78.296 42.728 78.672 41.928 78.672 40.32V38.576C78.672 38.224 78.688 37.952 78.704 37.712ZM75 37.784H73.6C73.624 37.984 73.632 38.264 73.632 38.416V41.128C73.632 41.376 73.6 41.72 73.592 41.88H75C74.984 41.672 74.968 41.336 74.968 41.136V38.416C74.968 38.128 74.984 37.984 75 37.784ZM83.112 38.256C83.136 38.392 83.184 38.624 83.24 38.92C82.584 39.024 82.008 39.104 81.752 39.136C81.504 39.168 81.248 39.184 80.968 39.2L81.224 40.52C81.52 40.44 81.736 40.392 82.008 40.336C82.224 40.296 82.8 40.2 83.464 40.096C83.528 40.448 83.6 40.824 83.672 41.192C82.92 41.312 82.24 41.416 81.888 41.472C81.616 41.512 81.216 41.56 80.992 41.568L81.264 42.848C81.448 42.8 81.752 42.744 82.112 42.68C82.44 42.616 83.128 42.496 83.888 42.368C84 42.976 84.096 43.48 84.136 43.728C84.184 43.968 84.2 44.256 84.24 44.568L85.632 44.328C85.56 44.048 85.48 43.752 85.424 43.512C85.368 43.24 85.272 42.744 85.16 42.16C85.816 42.056 86.408 41.96 86.76 41.904C87.064 41.856 87.432 41.792 87.672 41.776L87.416 40.504C87.184 40.568 86.848 40.648 86.536 40.712C86.2 40.776 85.6 40.88 84.936 40.992C84.864 40.616 84.792 40.248 84.728 39.896C85.328 39.8 85.872 39.712 86.176 39.664C86.432 39.632 86.8 39.576 87.008 39.56L86.776 38.296C86.552 38.36 86.192 38.44 85.928 38.488C85.672 38.536 85.128 38.632 84.512 38.728C84.456 38.416 84.408 38.176 84.392 38.056C84.352 37.856 84.328 37.56 84.304 37.4L82.936 37.616C83 37.816 83.056 38.016 83.112 38.256ZM94.648 40.184L93.72 39.728C93.6 39.792 93.2 39.832 93.016 39.832H91.176C90.96 39.832 90.52 39.808 90.296 39.776V41.048C90.544 41.032 90.92 41.008 91.184 41.008H93.136C93.104 41.448 92.96 42.384 92.848 43.032H90.432C90.136 43.032 89.8 43.008 89.576 42.984V44.24C89.912 44.224 90.128 44.216 90.432 44.216H94.552C94.784 44.216 95.232 44.232 95.408 44.24V42.992C95.176 43.016 94.752 43.032 94.536 43.032H94.176C94.296 42.272 94.496 41.008 94.56 40.568C94.576 40.472 94.608 40.304 94.648 40.184ZM98.392 37.76V39.008C98.632 38.984 99.016 38.976 99.288 38.976H102.304C102.608 38.976 103.04 38.992 103.264 39.008V37.76C103.032 37.792 102.576 37.808 102.32 37.808H99.288C99.008 37.808 98.616 37.792 98.392 37.76ZM103.992 40.208L103.136 39.672C103.008 39.728 102.768 39.768 102.464 39.768H98.656C98.384 39.768 98.008 39.744 97.64 39.712V40.96C98 40.928 98.456 40.92 98.656 40.92H102.296C102.16 41.288 101.944 41.688 101.552 42.08C100.976 42.656 100.048 43.184 98.8 43.448L99.768 44.544C100.792 44.248 101.832 43.664 102.624 42.776C103.216 42.112 103.552 41.36 103.816 40.592C103.848 40.496 103.928 40.328 103.992 40.208ZM109.142 37.928L107.606 37.616C107.566 37.912 107.518 38.2 107.398 38.624C107.158 39.48 106.534 41.488 106.07 42.688C106.03 42.696 105.99 42.696 105.95 42.696C105.678 42.704 105.286 42.704 104.998 42.704L105.222 44.12C105.486 44.088 105.822 44.04 106.022 44.016C106.99 43.912 109.286 43.68 110.606 43.52C110.742 43.84 110.862 44.144 110.958 44.408L112.27 43.824C111.886 42.896 111.102 41.344 110.526 40.456L109.31 40.952C109.55 41.28 109.814 41.768 110.07 42.304C109.334 42.392 108.382 42.504 107.526 42.584C107.91 41.52 108.494 39.696 108.766 38.904C108.894 38.536 109.022 38.192 109.142 37.928Z" fill="#15C2C4"/>
</g>
<defs>
<clipPath id="clip0_657_18032">
<rect width="123" height="127" fill="white"/>
</clipPath>
</defs>
</svg>
